%TF.GenerationSoftware,KiCad,Pcbnew,8.0.5*%
%TF.CreationDate,2024-10-25T18:54:30-04:00*%
%TF.ProjectId,macropad,6d616372-6f70-4616-942e-6b696361645f,v1.0.0*%
%TF.SameCoordinates,Original*%
%TF.FileFunction,Copper,L2,Bot*%
%TF.FilePolarity,Positive*%
%FSLAX46Y46*%
G04 Gerber Fmt 4.6, Leading zero omitted, Abs format (unit mm)*
G04 Created by KiCad (PCBNEW 8.0.5) date 2024-10-25 18:54:30*
%MOMM*%
%LPD*%
G01*
G04 APERTURE LIST*
%TA.AperFunction,ComponentPad*%
%ADD10C,2.286000*%
%TD*%
%TA.AperFunction,ComponentPad*%
%ADD11R,1.778000X1.778000*%
%TD*%
%TA.AperFunction,SMDPad,CuDef*%
%ADD12R,1.200000X0.900000*%
%TD*%
%TA.AperFunction,ComponentPad*%
%ADD13C,1.905000*%
%TD*%
%TA.AperFunction,ComponentPad*%
%ADD14R,3.200000X2.000000*%
%TD*%
%TA.AperFunction,ComponentPad*%
%ADD15C,1.500000*%
%TD*%
%TA.AperFunction,ComponentPad*%
%ADD16R,2.000000X2.000000*%
%TD*%
%TA.AperFunction,ComponentPad*%
%ADD17C,2.000000*%
%TD*%
%TA.AperFunction,ComponentPad*%
%ADD18C,1.530000*%
%TD*%
%TA.AperFunction,ComponentPad*%
%ADD19C,1.400000*%
%TD*%
%TA.AperFunction,SMDPad,CuDef*%
%ADD20R,1.000000X1.000000*%
%TD*%
%TA.AperFunction,ViaPad*%
%ADD21C,0.800000*%
%TD*%
%TA.AperFunction,Conductor*%
%ADD22C,0.250000*%
%TD*%
G04 APERTURE END LIST*
D10*
%TO.P,S14,1*%
%TO.N,col4_row4*%
X148540000Y-99110000D03*
%TO.P,S14,2*%
%TO.N,col4*%
X142190000Y-101650000D03*
%TD*%
D11*
%TO.P,D10,1*%
%TO.N,row4*%
X136500000Y-108000000D03*
D12*
X136500000Y-105840000D03*
%TO.P,D10,2*%
%TO.N,col3_row4*%
X136500000Y-102540000D03*
D13*
X136500000Y-100380000D03*
%TD*%
D10*
%TO.P,S5,1*%
%TO.N,col2_row5*%
X110540000Y-118110000D03*
%TO.P,S5,2*%
%TO.N,col2*%
X104190000Y-120650000D03*
%TD*%
%TO.P,S2,1*%
%TO.N,col1_row4*%
X91540000Y-99110000D03*
%TO.P,S2,2*%
%TO.N,col1*%
X85190000Y-101650000D03*
%TD*%
%TO.P,S7,1*%
%TO.N,col2_row3*%
X110540000Y-80110000D03*
%TO.P,S7,2*%
%TO.N,col2*%
X104190000Y-82650000D03*
%TD*%
%TO.P,S12,1*%
%TO.N,col3_row2*%
X129540000Y-61110000D03*
%TO.P,S12,2*%
%TO.N,col3*%
X123190000Y-63650000D03*
%TD*%
%TO.P,S13,1*%
%TO.N,col4_row5*%
X148540000Y-118110000D03*
%TO.P,S13,2*%
%TO.N,col4*%
X142190000Y-120650000D03*
%TD*%
D11*
%TO.P,D13,1*%
%TO.N,row5*%
X155500000Y-127000000D03*
D12*
X155500000Y-124840000D03*
%TO.P,D13,2*%
%TO.N,col4_row5*%
X155500000Y-121540000D03*
D13*
X155500000Y-119380000D03*
%TD*%
D10*
%TO.P,S11,1*%
%TO.N,col3_row3*%
X129540000Y-80110000D03*
%TO.P,S11,2*%
%TO.N,col3*%
X123190000Y-82650000D03*
%TD*%
%TO.P,S15,1*%
%TO.N,col4_row3*%
X148540000Y-80110000D03*
%TO.P,S15,2*%
%TO.N,col4*%
X142190000Y-82650000D03*
%TD*%
D11*
%TO.P,D2,1*%
%TO.N,row4*%
X98500000Y-108000000D03*
D12*
X98500000Y-105840000D03*
%TO.P,D2,2*%
%TO.N,col1_row4*%
X98500000Y-102540000D03*
D13*
X98500000Y-100380000D03*
%TD*%
D11*
%TO.P,D9,1*%
%TO.N,row5*%
X136500000Y-127000000D03*
D12*
X136500000Y-124840000D03*
%TO.P,D9,2*%
%TO.N,col3_row5*%
X136500000Y-121540000D03*
D13*
X136500000Y-119380000D03*
%TD*%
D14*
%TO.P,ROT1,*%
%TO.N,*%
X145880000Y-41550000D03*
X145880000Y-52750000D03*
D15*
%TO.P,ROT1,1*%
%TO.N,col4_row1*%
X152880000Y-44650000D03*
%TO.P,ROT1,2*%
%TO.N,col4*%
X152880000Y-49650000D03*
D16*
%TO.P,ROT1,A*%
%TO.N,ENCA*%
X138380000Y-44650000D03*
D17*
%TO.P,ROT1,B*%
%TO.N,ENCB*%
X138380000Y-49650000D03*
%TO.P,ROT1,C*%
%TO.N,GND*%
X138380000Y-47150000D03*
%TD*%
D11*
%TO.P,D4,1*%
%TO.N,row2*%
X98500000Y-70000000D03*
D12*
X98500000Y-67840000D03*
%TO.P,D4,2*%
%TO.N,col1_row2*%
X98500000Y-64540000D03*
D13*
X98500000Y-62380000D03*
%TD*%
D11*
%TO.P,D14,1*%
%TO.N,row4*%
X155500000Y-108000000D03*
D12*
X155500000Y-105840000D03*
%TO.P,D14,2*%
%TO.N,col4_row4*%
X155500000Y-102540000D03*
D13*
X155500000Y-100380000D03*
%TD*%
D11*
%TO.P,D15,1*%
%TO.N,row3*%
X155500000Y-89000000D03*
D12*
X155500000Y-86840000D03*
%TO.P,D15,2*%
%TO.N,col4_row3*%
X155500000Y-83540000D03*
D13*
X155500000Y-81380000D03*
%TD*%
D11*
%TO.P,D6,1*%
%TO.N,row4*%
X117500000Y-108000000D03*
D12*
X117500000Y-105840000D03*
%TO.P,D6,2*%
%TO.N,col2_row4*%
X117500000Y-102540000D03*
D13*
X117500000Y-100380000D03*
%TD*%
D10*
%TO.P,S6,1*%
%TO.N,col2_row4*%
X110540000Y-99110000D03*
%TO.P,S6,2*%
%TO.N,col2*%
X104190000Y-101650000D03*
%TD*%
D11*
%TO.P,D3,1*%
%TO.N,row3*%
X98500000Y-89000000D03*
D12*
X98500000Y-86840000D03*
%TO.P,D3,2*%
%TO.N,col1_row3*%
X98500000Y-83540000D03*
D13*
X98500000Y-81380000D03*
%TD*%
D11*
%TO.P,D8,1*%
%TO.N,row2*%
X117500000Y-70000000D03*
D12*
X117500000Y-67840000D03*
%TO.P,D8,2*%
%TO.N,col2_row2*%
X117500000Y-64540000D03*
D13*
X117500000Y-62380000D03*
%TD*%
D18*
%TO.P,_1,*%
%TO.N,col1*%
X85380000Y-51810000D03*
%TO.N,col2*%
X87920000Y-51810000D03*
%TO.N,col3*%
X90460000Y-51810000D03*
%TO.N,col4*%
X93000000Y-51810000D03*
%TO.N,row1*%
X95540000Y-51810000D03*
%TO.N,row2*%
X98080000Y-51810000D03*
%TO.N,row3*%
X100620000Y-51810000D03*
D19*
%TO.N,BATP*%
X92683000Y-48635000D03*
%TO.N,RST*%
X86967000Y-45460000D03*
%TO.N,GND*%
X86967000Y-42920000D03*
D18*
%TO.N,RAW5V*%
X85380000Y-36570000D03*
%TO.N,GND*%
X87920000Y-36570000D03*
%TO.N,RAW3V3*%
X90460000Y-36570000D03*
%TO.N,row5*%
X93000000Y-36570000D03*
%TO.N,row4*%
X95540000Y-36570000D03*
%TO.N,ENCB*%
X98080000Y-36570000D03*
%TO.N,ENCA*%
X100620000Y-36570000D03*
%TD*%
D10*
%TO.P,S10,1*%
%TO.N,col3_row4*%
X129540000Y-99110000D03*
%TO.P,S10,2*%
%TO.N,col3*%
X123190000Y-101650000D03*
%TD*%
%TO.P,S1,1*%
%TO.N,col1_row5*%
X91540000Y-118110000D03*
%TO.P,S1,2*%
%TO.N,col1*%
X85190000Y-120650000D03*
%TD*%
D11*
%TO.P,D11,1*%
%TO.N,row3*%
X136500000Y-89000000D03*
D12*
X136500000Y-86840000D03*
%TO.P,D11,2*%
%TO.N,col3_row3*%
X136500000Y-83540000D03*
D13*
X136500000Y-81380000D03*
%TD*%
D10*
%TO.P,S16,1*%
%TO.N,col4_row2*%
X148540000Y-61110000D03*
%TO.P,S16,2*%
%TO.N,col4*%
X142190000Y-63650000D03*
%TD*%
D11*
%TO.P,D12,1*%
%TO.N,row2*%
X136500000Y-70000000D03*
D12*
X136500000Y-67840000D03*
%TO.P,D12,2*%
%TO.N,col3_row2*%
X136500000Y-64540000D03*
D13*
X136500000Y-62380000D03*
%TD*%
D11*
%TO.P,D5,1*%
%TO.N,row5*%
X117500000Y-127000000D03*
D12*
X117500000Y-124840000D03*
%TO.P,D5,2*%
%TO.N,col2_row5*%
X117500000Y-121540000D03*
D13*
X117500000Y-119380000D03*
%TD*%
D10*
%TO.P,S4,1*%
%TO.N,col1_row2*%
X91540000Y-61110000D03*
%TO.P,S4,2*%
%TO.N,col1*%
X85190000Y-63650000D03*
%TD*%
%TO.P,S9,1*%
%TO.N,col3_row5*%
X129540000Y-118110000D03*
%TO.P,S9,2*%
%TO.N,col3*%
X123190000Y-120650000D03*
%TD*%
D11*
%TO.P,D7,1*%
%TO.N,row3*%
X117500000Y-89000000D03*
D12*
X117500000Y-86840000D03*
%TO.P,D7,2*%
%TO.N,col2_row3*%
X117500000Y-83540000D03*
D13*
X117500000Y-81380000D03*
%TD*%
D10*
%TO.P,S8,1*%
%TO.N,col2_row2*%
X110540000Y-61110000D03*
%TO.P,S8,2*%
%TO.N,col2*%
X104190000Y-63650000D03*
%TD*%
D11*
%TO.P,D16,1*%
%TO.N,row2*%
X155500000Y-70000000D03*
D12*
X155500000Y-67840000D03*
%TO.P,D16,2*%
%TO.N,col4_row2*%
X155500000Y-64540000D03*
D13*
X155500000Y-62380000D03*
%TD*%
D10*
%TO.P,S3,1*%
%TO.N,col1_row3*%
X91540000Y-80110000D03*
%TO.P,S3,2*%
%TO.N,col1*%
X85190000Y-82650000D03*
%TD*%
D11*
%TO.P,D17,1*%
%TO.N,row1*%
X155500000Y-51000000D03*
D12*
X155500000Y-48840000D03*
%TO.P,D17,2*%
%TO.N,col4_row1*%
X155500000Y-45540000D03*
D13*
X155500000Y-43380000D03*
%TD*%
D11*
%TO.P,D1,1*%
%TO.N,row5*%
X98500000Y-127000000D03*
D12*
X98500000Y-124840000D03*
%TO.P,D1,2*%
%TO.N,col1_row5*%
X98500000Y-121540000D03*
D13*
X98500000Y-119380000D03*
%TD*%
D20*
%TO.P,REF\u002A\u002A,1*%
%TO.N,col2*%
X116000000Y-37000000D03*
%TD*%
%TO.P,REF\u002A\u002A,1*%
%TO.N,col3*%
X116000000Y-39000000D03*
%TD*%
%TO.P,REF\u002A\u002A,1*%
%TO.N,row1*%
X115500000Y-47500000D03*
%TD*%
%TO.P,REF\u002A\u002A,1*%
%TO.N,col1*%
X116000000Y-35000000D03*
%TD*%
%TO.P,REF\u002A\u002A,1*%
%TO.N,row5*%
X115500000Y-55500000D03*
%TD*%
%TO.P,REF\u002A\u002A,1*%
%TO.N,row4*%
X115500000Y-53500000D03*
%TD*%
%TO.P,REF\u002A\u002A,1*%
%TO.N,col4*%
X116000000Y-41000000D03*
%TD*%
%TO.P,REF\u002A\u002A,1*%
%TO.N,row3*%
X115500000Y-51500000D03*
%TD*%
%TO.P,REF\u002A\u002A,1*%
%TO.N,row2*%
X115500000Y-49500000D03*
%TD*%
D21*
%TO.N,col1*%
X104600000Y-46400000D03*
%TO.N,col4*%
X119500000Y-58500000D03*
%TO.N,row5*%
X111050000Y-46350000D03*
X93700000Y-45500000D03*
%TO.N,row4*%
X112800000Y-45300000D03*
X94900000Y-44000000D03*
%TO.N,row3*%
X114100000Y-51400000D03*
%TO.N,row2*%
X114000000Y-49500000D03*
%TO.N,row1*%
X114000000Y-47500000D03*
%TD*%
D22*
%TO.N,col1_row5*%
X98500000Y-121540000D02*
X98500000Y-119380000D01*
%TO.N,col1*%
X85380000Y-63460000D02*
X85190000Y-63650000D01*
X116000000Y-35000000D02*
X104600000Y-46400000D01*
X85190000Y-63650000D02*
X85190000Y-82650000D01*
X85190000Y-82650000D02*
X85190000Y-101650000D01*
X85380000Y-51810000D02*
X85380000Y-63460000D01*
X85190000Y-120650000D02*
X85190000Y-101650000D01*
%TO.N,col1_row4*%
X98500000Y-102540000D02*
X98500000Y-100380000D01*
%TO.N,col1_row3*%
X98500000Y-83540000D02*
X98500000Y-81380000D01*
%TO.N,col1_row2*%
X98500000Y-64540000D02*
X98500000Y-62380000D01*
%TO.N,col2_row5*%
X117500000Y-121540000D02*
X117500000Y-119380000D01*
%TO.N,col2*%
X104190000Y-120650000D02*
X104190000Y-101650000D01*
X104190000Y-48810000D02*
X104190000Y-63650000D01*
X104190000Y-63650000D02*
X104190000Y-82650000D01*
X104190000Y-82650000D02*
X104190000Y-101650000D01*
X116000000Y-37000000D02*
X104190000Y-48810000D01*
%TO.N,col2_row4*%
X117500000Y-102540000D02*
X117500000Y-100380000D01*
%TO.N,col2_row3*%
X117500000Y-83540000D02*
X117500000Y-81380000D01*
%TO.N,col2_row2*%
X117500000Y-64540000D02*
X117500000Y-62380000D01*
%TO.N,col3_row5*%
X136500000Y-121540000D02*
X136500000Y-119380000D01*
%TO.N,col3*%
X123190000Y-101650000D02*
X123190000Y-120650000D01*
X123190000Y-82650000D02*
X123190000Y-101650000D01*
X116000000Y-39000000D02*
X123190000Y-46190000D01*
X123190000Y-63650000D02*
X123190000Y-82650000D01*
X123190000Y-46190000D02*
X123190000Y-63650000D01*
%TO.N,col3_row4*%
X136500000Y-102540000D02*
X136500000Y-100380000D01*
%TO.N,col3_row3*%
X136500000Y-83540000D02*
X136500000Y-81380000D01*
%TO.N,col3_row2*%
X136500000Y-64540000D02*
X136500000Y-62380000D01*
%TO.N,col4_row5*%
X155500000Y-121540000D02*
X155500000Y-119380000D01*
%TO.N,col4*%
X142190000Y-63650000D02*
X142190000Y-82650000D01*
X142190000Y-60340000D02*
X152880000Y-49650000D01*
X142190000Y-82650000D02*
X142190000Y-101650000D01*
X119500000Y-44500000D02*
X116000000Y-41000000D01*
X142190000Y-63650000D02*
X142190000Y-60340000D01*
X142190000Y-101650000D02*
X142190000Y-120650000D01*
X119500000Y-58500000D02*
X119500000Y-44500000D01*
%TO.N,col4_row4*%
X155500000Y-102540000D02*
X155500000Y-100380000D01*
%TO.N,col4_row3*%
X155500000Y-83540000D02*
X155500000Y-81380000D01*
%TO.N,col4_row2*%
X155500000Y-64540000D02*
X155500000Y-62380000D01*
%TO.N,col4_row1*%
X155500000Y-45540000D02*
X155500000Y-43380000D01*
%TO.N,row5*%
X92854100Y-65645900D02*
X92854100Y-78854100D01*
X93008000Y-60008000D02*
X93008000Y-65492000D01*
X96772500Y-123112500D02*
X98500000Y-124840000D01*
X155500000Y-127000000D02*
X155500000Y-124840000D01*
X115500000Y-55500000D02*
X111050000Y-51050000D01*
X92854100Y-78854100D02*
X96772500Y-82772500D01*
X111050000Y-51050000D02*
X111050000Y-46350000D01*
X91910000Y-58910000D02*
X93008000Y-60008000D01*
X117500000Y-127000000D02*
X117500000Y-124840000D01*
X93008000Y-65492000D02*
X92854100Y-65645900D01*
X96772500Y-82772500D02*
X96772500Y-123112500D01*
X93765000Y-37335000D02*
X93765000Y-49235000D01*
X136500000Y-127000000D02*
X136500000Y-124840000D01*
X93000000Y-36570000D02*
X93765000Y-37335000D01*
X93765000Y-49235000D02*
X91910000Y-51090000D01*
X91910000Y-51090000D02*
X91910000Y-58910000D01*
X98500000Y-127000000D02*
X98500000Y-124840000D01*
%TO.N,row4*%
X94450000Y-64826316D02*
X97222500Y-67598816D01*
X112800000Y-51550000D02*
X112800000Y-45300000D01*
X98500000Y-108000000D02*
X98500000Y-105840000D01*
X97222500Y-67598816D02*
X97222500Y-104562500D01*
X136500000Y-108000000D02*
X136500000Y-105840000D01*
X97222500Y-104562500D02*
X98500000Y-105840000D01*
X115500000Y-53500000D02*
X114750000Y-53500000D01*
X94600000Y-43700000D02*
X94450000Y-43700000D01*
X112800000Y-45300000D02*
X112800000Y-45200000D01*
X155500000Y-108000000D02*
X155500000Y-105840000D01*
X95540000Y-36570000D02*
X94450000Y-37660000D01*
X94900000Y-44000000D02*
X94600000Y-43700000D01*
X117500000Y-108000000D02*
X117500000Y-105840000D01*
X114750000Y-53500000D02*
X112800000Y-51550000D01*
X94450000Y-43700000D02*
X94450000Y-46500000D01*
X94450000Y-37660000D02*
X94450000Y-43700000D01*
X94450000Y-46500000D02*
X94450000Y-64826316D01*
%TO.N,row3*%
X117500000Y-89000000D02*
X117500000Y-86840000D01*
X100620000Y-84720000D02*
X98500000Y-86840000D01*
X155500000Y-89000000D02*
X155500000Y-86840000D01*
X114200000Y-51500000D02*
X114100000Y-51400000D01*
X136500000Y-89000000D02*
X136500000Y-86840000D01*
X115190000Y-51810000D02*
X115500000Y-51500000D01*
X98500000Y-89000000D02*
X98500000Y-86840000D01*
X115500000Y-51500000D02*
X114200000Y-51500000D01*
X100620000Y-51810000D02*
X100620000Y-84720000D01*
%TO.N,row2*%
X97222500Y-66562500D02*
X98500000Y-67840000D01*
X98500000Y-70000000D02*
X98500000Y-67840000D01*
X117500000Y-70000000D02*
X117500000Y-67840000D01*
X97222500Y-52667500D02*
X97222500Y-66562500D01*
X98080000Y-51810000D02*
X97222500Y-52667500D01*
X155500000Y-70000000D02*
X155500000Y-67840000D01*
X136500000Y-70000000D02*
X136500000Y-67840000D01*
X115500000Y-49500000D02*
X114000000Y-49500000D01*
%TO.N,row1*%
X114000000Y-47500000D02*
X115500000Y-47500000D01*
X155500000Y-51000000D02*
X155500000Y-48840000D01*
%TD*%
M02*
