%TF.GenerationSoftware,KiCad,Pcbnew,8.0.5*%
%TF.CreationDate,2024-10-25T18:54:30-04:00*%
%TF.ProjectId,macropad,6d616372-6f70-4616-942e-6b696361645f,v1.0.0*%
%TF.SameCoordinates,Original*%
%TF.FileFunction,Legend,Bot*%
%TF.FilePolarity,Positive*%
%FSLAX46Y46*%
G04 Gerber Fmt 4.6, Leading zero omitted, Abs format (unit mm)*
G04 Created by KiCad (PCBNEW 8.0.5) date 2024-10-25 18:54:30*
%MOMM*%
%LPD*%
G01*
G04 APERTURE LIST*
%ADD10C,0.150000*%
%ADD11C,0.100000*%
%ADD12C,0.120000*%
G04 APERTURE END LIST*
D10*
X134767982Y-47805178D02*
X135234649Y-47138512D01*
X135567982Y-47805178D02*
X135567982Y-46405178D01*
X135567982Y-46405178D02*
X135034649Y-46405178D01*
X135034649Y-46405178D02*
X134901316Y-46471845D01*
X134901316Y-46471845D02*
X134834649Y-46538512D01*
X134834649Y-46538512D02*
X134767982Y-46671845D01*
X134767982Y-46671845D02*
X134767982Y-46871845D01*
X134767982Y-46871845D02*
X134834649Y-47005178D01*
X134834649Y-47005178D02*
X134901316Y-47071845D01*
X134901316Y-47071845D02*
X135034649Y-47138512D01*
X135034649Y-47138512D02*
X135567982Y-47138512D01*
X133967982Y-47805178D02*
X134101316Y-47738512D01*
X134101316Y-47738512D02*
X134167982Y-47671845D01*
X134167982Y-47671845D02*
X134234649Y-47538512D01*
X134234649Y-47538512D02*
X134234649Y-47138512D01*
X134234649Y-47138512D02*
X134167982Y-47005178D01*
X134167982Y-47005178D02*
X134101316Y-46938512D01*
X134101316Y-46938512D02*
X133967982Y-46871845D01*
X133967982Y-46871845D02*
X133767982Y-46871845D01*
X133767982Y-46871845D02*
X133634649Y-46938512D01*
X133634649Y-46938512D02*
X133567982Y-47005178D01*
X133567982Y-47005178D02*
X133501316Y-47138512D01*
X133501316Y-47138512D02*
X133501316Y-47538512D01*
X133501316Y-47538512D02*
X133567982Y-47671845D01*
X133567982Y-47671845D02*
X133634649Y-47738512D01*
X133634649Y-47738512D02*
X133767982Y-47805178D01*
X133767982Y-47805178D02*
X133967982Y-47805178D01*
X133034649Y-46871845D02*
X132767982Y-47805178D01*
X132767982Y-47805178D02*
X132501315Y-47138512D01*
X132501315Y-47138512D02*
X132234649Y-47805178D01*
X132234649Y-47805178D02*
X131967982Y-46871845D01*
X129634648Y-47805178D02*
X130434648Y-47805178D01*
X130034648Y-47805178D02*
X130034648Y-46405178D01*
X130034648Y-46405178D02*
X130167981Y-46605178D01*
X130167981Y-46605178D02*
X130301315Y-46738512D01*
X130301315Y-46738512D02*
X130434648Y-46805178D01*
X129034648Y-47671845D02*
X128967982Y-47738512D01*
X128967982Y-47738512D02*
X129034648Y-47805178D01*
X129034648Y-47805178D02*
X129101315Y-47738512D01*
X129101315Y-47738512D02*
X129034648Y-47671845D01*
X129034648Y-47671845D02*
X129034648Y-47805178D01*
X129034648Y-46938512D02*
X128967982Y-47005178D01*
X128967982Y-47005178D02*
X129034648Y-47071845D01*
X129034648Y-47071845D02*
X129101315Y-47005178D01*
X129101315Y-47005178D02*
X129034648Y-46938512D01*
X129034648Y-46938512D02*
X129034648Y-47071845D01*
X127301314Y-47805178D02*
X127301314Y-46405178D01*
X127301314Y-46405178D02*
X126967981Y-46405178D01*
X126967981Y-46405178D02*
X126767981Y-46471845D01*
X126767981Y-46471845D02*
X126634648Y-46605178D01*
X126634648Y-46605178D02*
X126567981Y-46738512D01*
X126567981Y-46738512D02*
X126501314Y-47005178D01*
X126501314Y-47005178D02*
X126501314Y-47205178D01*
X126501314Y-47205178D02*
X126567981Y-47471845D01*
X126567981Y-47471845D02*
X126634648Y-47605178D01*
X126634648Y-47605178D02*
X126767981Y-47738512D01*
X126767981Y-47738512D02*
X126967981Y-47805178D01*
X126967981Y-47805178D02*
X127301314Y-47805178D01*
X125301314Y-46871845D02*
X125301314Y-47805178D01*
X125634648Y-46338512D02*
X125967981Y-47338512D01*
X125967981Y-47338512D02*
X125101314Y-47338512D01*
X123101314Y-48338512D02*
X123167981Y-48271845D01*
X123167981Y-48271845D02*
X123301314Y-48071845D01*
X123301314Y-48071845D02*
X123367981Y-47938512D01*
X123367981Y-47938512D02*
X123434648Y-47738512D01*
X123434648Y-47738512D02*
X123501314Y-47405178D01*
X123501314Y-47405178D02*
X123501314Y-47138512D01*
X123501314Y-47138512D02*
X123434648Y-46805178D01*
X123434648Y-46805178D02*
X123367981Y-46605178D01*
X123367981Y-46605178D02*
X123301314Y-46471845D01*
X123301314Y-46471845D02*
X123167981Y-46271845D01*
X123167981Y-46271845D02*
X123101314Y-46205178D01*
X121834648Y-46471845D02*
X121967981Y-46405178D01*
X121967981Y-46405178D02*
X122167981Y-46405178D01*
X122167981Y-46405178D02*
X122367981Y-46471845D01*
X122367981Y-46471845D02*
X122501315Y-46605178D01*
X122501315Y-46605178D02*
X122567981Y-46738512D01*
X122567981Y-46738512D02*
X122634648Y-47005178D01*
X122634648Y-47005178D02*
X122634648Y-47205178D01*
X122634648Y-47205178D02*
X122567981Y-47471845D01*
X122567981Y-47471845D02*
X122501315Y-47605178D01*
X122501315Y-47605178D02*
X122367981Y-47738512D01*
X122367981Y-47738512D02*
X122167981Y-47805178D01*
X122167981Y-47805178D02*
X122034648Y-47805178D01*
X122034648Y-47805178D02*
X121834648Y-47738512D01*
X121834648Y-47738512D02*
X121767981Y-47671845D01*
X121767981Y-47671845D02*
X121767981Y-47205178D01*
X121767981Y-47205178D02*
X122034648Y-47205178D01*
X121167981Y-47805178D02*
X121167981Y-46405178D01*
X121167981Y-46405178D02*
X120634648Y-46405178D01*
X120634648Y-46405178D02*
X120501315Y-46471845D01*
X120501315Y-46471845D02*
X120434648Y-46538512D01*
X120434648Y-46538512D02*
X120367981Y-46671845D01*
X120367981Y-46671845D02*
X120367981Y-46871845D01*
X120367981Y-46871845D02*
X120434648Y-47005178D01*
X120434648Y-47005178D02*
X120501315Y-47071845D01*
X120501315Y-47071845D02*
X120634648Y-47138512D01*
X120634648Y-47138512D02*
X121167981Y-47138512D01*
X119167981Y-46405178D02*
X119434648Y-46405178D01*
X119434648Y-46405178D02*
X119567981Y-46471845D01*
X119567981Y-46471845D02*
X119634648Y-46538512D01*
X119634648Y-46538512D02*
X119767981Y-46738512D01*
X119767981Y-46738512D02*
X119834648Y-47005178D01*
X119834648Y-47005178D02*
X119834648Y-47538512D01*
X119834648Y-47538512D02*
X119767981Y-47671845D01*
X119767981Y-47671845D02*
X119701315Y-47738512D01*
X119701315Y-47738512D02*
X119567981Y-47805178D01*
X119567981Y-47805178D02*
X119301315Y-47805178D01*
X119301315Y-47805178D02*
X119167981Y-47738512D01*
X119167981Y-47738512D02*
X119101315Y-47671845D01*
X119101315Y-47671845D02*
X119034648Y-47538512D01*
X119034648Y-47538512D02*
X119034648Y-47205178D01*
X119034648Y-47205178D02*
X119101315Y-47071845D01*
X119101315Y-47071845D02*
X119167981Y-47005178D01*
X119167981Y-47005178D02*
X119301315Y-46938512D01*
X119301315Y-46938512D02*
X119567981Y-46938512D01*
X119567981Y-46938512D02*
X119701315Y-47005178D01*
X119701315Y-47005178D02*
X119767981Y-47071845D01*
X119767981Y-47071845D02*
X119834648Y-47205178D01*
X118567982Y-48338512D02*
X118501315Y-48271845D01*
X118501315Y-48271845D02*
X118367982Y-48071845D01*
X118367982Y-48071845D02*
X118301315Y-47938512D01*
X118301315Y-47938512D02*
X118234648Y-47738512D01*
X118234648Y-47738512D02*
X118167982Y-47405178D01*
X118167982Y-47405178D02*
X118167982Y-47138512D01*
X118167982Y-47138512D02*
X118234648Y-46805178D01*
X118234648Y-46805178D02*
X118301315Y-46605178D01*
X118301315Y-46605178D02*
X118367982Y-46471845D01*
X118367982Y-46471845D02*
X118501315Y-46271845D01*
X118501315Y-46271845D02*
X118567982Y-46205178D01*
X134767982Y-50059100D02*
X135234649Y-49392434D01*
X135567982Y-50059100D02*
X135567982Y-48659100D01*
X135567982Y-48659100D02*
X135034649Y-48659100D01*
X135034649Y-48659100D02*
X134901316Y-48725767D01*
X134901316Y-48725767D02*
X134834649Y-48792434D01*
X134834649Y-48792434D02*
X134767982Y-48925767D01*
X134767982Y-48925767D02*
X134767982Y-49125767D01*
X134767982Y-49125767D02*
X134834649Y-49259100D01*
X134834649Y-49259100D02*
X134901316Y-49325767D01*
X134901316Y-49325767D02*
X135034649Y-49392434D01*
X135034649Y-49392434D02*
X135567982Y-49392434D01*
X133967982Y-50059100D02*
X134101316Y-49992434D01*
X134101316Y-49992434D02*
X134167982Y-49925767D01*
X134167982Y-49925767D02*
X134234649Y-49792434D01*
X134234649Y-49792434D02*
X134234649Y-49392434D01*
X134234649Y-49392434D02*
X134167982Y-49259100D01*
X134167982Y-49259100D02*
X134101316Y-49192434D01*
X134101316Y-49192434D02*
X133967982Y-49125767D01*
X133967982Y-49125767D02*
X133767982Y-49125767D01*
X133767982Y-49125767D02*
X133634649Y-49192434D01*
X133634649Y-49192434D02*
X133567982Y-49259100D01*
X133567982Y-49259100D02*
X133501316Y-49392434D01*
X133501316Y-49392434D02*
X133501316Y-49792434D01*
X133501316Y-49792434D02*
X133567982Y-49925767D01*
X133567982Y-49925767D02*
X133634649Y-49992434D01*
X133634649Y-49992434D02*
X133767982Y-50059100D01*
X133767982Y-50059100D02*
X133967982Y-50059100D01*
X133034649Y-49125767D02*
X132767982Y-50059100D01*
X132767982Y-50059100D02*
X132501315Y-49392434D01*
X132501315Y-49392434D02*
X132234649Y-50059100D01*
X132234649Y-50059100D02*
X131967982Y-49125767D01*
X130434648Y-48792434D02*
X130367981Y-48725767D01*
X130367981Y-48725767D02*
X130234648Y-48659100D01*
X130234648Y-48659100D02*
X129901315Y-48659100D01*
X129901315Y-48659100D02*
X129767981Y-48725767D01*
X129767981Y-48725767D02*
X129701315Y-48792434D01*
X129701315Y-48792434D02*
X129634648Y-48925767D01*
X129634648Y-48925767D02*
X129634648Y-49059100D01*
X129634648Y-49059100D02*
X129701315Y-49259100D01*
X129701315Y-49259100D02*
X130501315Y-50059100D01*
X130501315Y-50059100D02*
X129634648Y-50059100D01*
X129034648Y-49925767D02*
X128967982Y-49992434D01*
X128967982Y-49992434D02*
X129034648Y-50059100D01*
X129034648Y-50059100D02*
X129101315Y-49992434D01*
X129101315Y-49992434D02*
X129034648Y-49925767D01*
X129034648Y-49925767D02*
X129034648Y-50059100D01*
X129034648Y-49192434D02*
X128967982Y-49259100D01*
X128967982Y-49259100D02*
X129034648Y-49325767D01*
X129034648Y-49325767D02*
X129101315Y-49259100D01*
X129101315Y-49259100D02*
X129034648Y-49192434D01*
X129034648Y-49192434D02*
X129034648Y-49325767D01*
X127301314Y-50059100D02*
X127301314Y-48659100D01*
X127301314Y-48659100D02*
X126967981Y-48659100D01*
X126967981Y-48659100D02*
X126767981Y-48725767D01*
X126767981Y-48725767D02*
X126634648Y-48859100D01*
X126634648Y-48859100D02*
X126567981Y-48992434D01*
X126567981Y-48992434D02*
X126501314Y-49259100D01*
X126501314Y-49259100D02*
X126501314Y-49459100D01*
X126501314Y-49459100D02*
X126567981Y-49725767D01*
X126567981Y-49725767D02*
X126634648Y-49859100D01*
X126634648Y-49859100D02*
X126767981Y-49992434D01*
X126767981Y-49992434D02*
X126967981Y-50059100D01*
X126967981Y-50059100D02*
X127301314Y-50059100D01*
X125234648Y-48659100D02*
X125901314Y-48659100D01*
X125901314Y-48659100D02*
X125967981Y-49325767D01*
X125967981Y-49325767D02*
X125901314Y-49259100D01*
X125901314Y-49259100D02*
X125767981Y-49192434D01*
X125767981Y-49192434D02*
X125434648Y-49192434D01*
X125434648Y-49192434D02*
X125301314Y-49259100D01*
X125301314Y-49259100D02*
X125234648Y-49325767D01*
X125234648Y-49325767D02*
X125167981Y-49459100D01*
X125167981Y-49459100D02*
X125167981Y-49792434D01*
X125167981Y-49792434D02*
X125234648Y-49925767D01*
X125234648Y-49925767D02*
X125301314Y-49992434D01*
X125301314Y-49992434D02*
X125434648Y-50059100D01*
X125434648Y-50059100D02*
X125767981Y-50059100D01*
X125767981Y-50059100D02*
X125901314Y-49992434D01*
X125901314Y-49992434D02*
X125967981Y-49925767D01*
X123101314Y-50592434D02*
X123167981Y-50525767D01*
X123167981Y-50525767D02*
X123301314Y-50325767D01*
X123301314Y-50325767D02*
X123367981Y-50192434D01*
X123367981Y-50192434D02*
X123434648Y-49992434D01*
X123434648Y-49992434D02*
X123501314Y-49659100D01*
X123501314Y-49659100D02*
X123501314Y-49392434D01*
X123501314Y-49392434D02*
X123434648Y-49059100D01*
X123434648Y-49059100D02*
X123367981Y-48859100D01*
X123367981Y-48859100D02*
X123301314Y-48725767D01*
X123301314Y-48725767D02*
X123167981Y-48525767D01*
X123167981Y-48525767D02*
X123101314Y-48459100D01*
X121834648Y-48725767D02*
X121967981Y-48659100D01*
X121967981Y-48659100D02*
X122167981Y-48659100D01*
X122167981Y-48659100D02*
X122367981Y-48725767D01*
X122367981Y-48725767D02*
X122501315Y-48859100D01*
X122501315Y-48859100D02*
X122567981Y-48992434D01*
X122567981Y-48992434D02*
X122634648Y-49259100D01*
X122634648Y-49259100D02*
X122634648Y-49459100D01*
X122634648Y-49459100D02*
X122567981Y-49725767D01*
X122567981Y-49725767D02*
X122501315Y-49859100D01*
X122501315Y-49859100D02*
X122367981Y-49992434D01*
X122367981Y-49992434D02*
X122167981Y-50059100D01*
X122167981Y-50059100D02*
X122034648Y-50059100D01*
X122034648Y-50059100D02*
X121834648Y-49992434D01*
X121834648Y-49992434D02*
X121767981Y-49925767D01*
X121767981Y-49925767D02*
X121767981Y-49459100D01*
X121767981Y-49459100D02*
X122034648Y-49459100D01*
X121167981Y-50059100D02*
X121167981Y-48659100D01*
X121167981Y-48659100D02*
X120634648Y-48659100D01*
X120634648Y-48659100D02*
X120501315Y-48725767D01*
X120501315Y-48725767D02*
X120434648Y-48792434D01*
X120434648Y-48792434D02*
X120367981Y-48925767D01*
X120367981Y-48925767D02*
X120367981Y-49125767D01*
X120367981Y-49125767D02*
X120434648Y-49259100D01*
X120434648Y-49259100D02*
X120501315Y-49325767D01*
X120501315Y-49325767D02*
X120634648Y-49392434D01*
X120634648Y-49392434D02*
X121167981Y-49392434D01*
X119901315Y-48659100D02*
X118967981Y-48659100D01*
X118967981Y-48659100D02*
X119567981Y-50059100D01*
X118567982Y-50592434D02*
X118501315Y-50525767D01*
X118501315Y-50525767D02*
X118367982Y-50325767D01*
X118367982Y-50325767D02*
X118301315Y-50192434D01*
X118301315Y-50192434D02*
X118234648Y-49992434D01*
X118234648Y-49992434D02*
X118167982Y-49659100D01*
X118167982Y-49659100D02*
X118167982Y-49392434D01*
X118167982Y-49392434D02*
X118234648Y-49059100D01*
X118234648Y-49059100D02*
X118301315Y-48859100D01*
X118301315Y-48859100D02*
X118367982Y-48725767D01*
X118367982Y-48725767D02*
X118501315Y-48525767D01*
X118501315Y-48525767D02*
X118567982Y-48459100D01*
X134767982Y-52313022D02*
X135234649Y-51646356D01*
X135567982Y-52313022D02*
X135567982Y-50913022D01*
X135567982Y-50913022D02*
X135034649Y-50913022D01*
X135034649Y-50913022D02*
X134901316Y-50979689D01*
X134901316Y-50979689D02*
X134834649Y-51046356D01*
X134834649Y-51046356D02*
X134767982Y-51179689D01*
X134767982Y-51179689D02*
X134767982Y-51379689D01*
X134767982Y-51379689D02*
X134834649Y-51513022D01*
X134834649Y-51513022D02*
X134901316Y-51579689D01*
X134901316Y-51579689D02*
X135034649Y-51646356D01*
X135034649Y-51646356D02*
X135567982Y-51646356D01*
X133967982Y-52313022D02*
X134101316Y-52246356D01*
X134101316Y-52246356D02*
X134167982Y-52179689D01*
X134167982Y-52179689D02*
X134234649Y-52046356D01*
X134234649Y-52046356D02*
X134234649Y-51646356D01*
X134234649Y-51646356D02*
X134167982Y-51513022D01*
X134167982Y-51513022D02*
X134101316Y-51446356D01*
X134101316Y-51446356D02*
X133967982Y-51379689D01*
X133967982Y-51379689D02*
X133767982Y-51379689D01*
X133767982Y-51379689D02*
X133634649Y-51446356D01*
X133634649Y-51446356D02*
X133567982Y-51513022D01*
X133567982Y-51513022D02*
X133501316Y-51646356D01*
X133501316Y-51646356D02*
X133501316Y-52046356D01*
X133501316Y-52046356D02*
X133567982Y-52179689D01*
X133567982Y-52179689D02*
X133634649Y-52246356D01*
X133634649Y-52246356D02*
X133767982Y-52313022D01*
X133767982Y-52313022D02*
X133967982Y-52313022D01*
X133034649Y-51379689D02*
X132767982Y-52313022D01*
X132767982Y-52313022D02*
X132501315Y-51646356D01*
X132501315Y-51646356D02*
X132234649Y-52313022D01*
X132234649Y-52313022D02*
X131967982Y-51379689D01*
X130501315Y-50913022D02*
X129634648Y-50913022D01*
X129634648Y-50913022D02*
X130101315Y-51446356D01*
X130101315Y-51446356D02*
X129901315Y-51446356D01*
X129901315Y-51446356D02*
X129767981Y-51513022D01*
X129767981Y-51513022D02*
X129701315Y-51579689D01*
X129701315Y-51579689D02*
X129634648Y-51713022D01*
X129634648Y-51713022D02*
X129634648Y-52046356D01*
X129634648Y-52046356D02*
X129701315Y-52179689D01*
X129701315Y-52179689D02*
X129767981Y-52246356D01*
X129767981Y-52246356D02*
X129901315Y-52313022D01*
X129901315Y-52313022D02*
X130301315Y-52313022D01*
X130301315Y-52313022D02*
X130434648Y-52246356D01*
X130434648Y-52246356D02*
X130501315Y-52179689D01*
X129034648Y-52179689D02*
X128967982Y-52246356D01*
X128967982Y-52246356D02*
X129034648Y-52313022D01*
X129034648Y-52313022D02*
X129101315Y-52246356D01*
X129101315Y-52246356D02*
X129034648Y-52179689D01*
X129034648Y-52179689D02*
X129034648Y-52313022D01*
X129034648Y-51446356D02*
X128967982Y-51513022D01*
X128967982Y-51513022D02*
X129034648Y-51579689D01*
X129034648Y-51579689D02*
X129101315Y-51513022D01*
X129101315Y-51513022D02*
X129034648Y-51446356D01*
X129034648Y-51446356D02*
X129034648Y-51579689D01*
X127301314Y-52313022D02*
X127301314Y-50913022D01*
X127301314Y-50913022D02*
X126967981Y-50913022D01*
X126967981Y-50913022D02*
X126767981Y-50979689D01*
X126767981Y-50979689D02*
X126634648Y-51113022D01*
X126634648Y-51113022D02*
X126567981Y-51246356D01*
X126567981Y-51246356D02*
X126501314Y-51513022D01*
X126501314Y-51513022D02*
X126501314Y-51713022D01*
X126501314Y-51713022D02*
X126567981Y-51979689D01*
X126567981Y-51979689D02*
X126634648Y-52113022D01*
X126634648Y-52113022D02*
X126767981Y-52246356D01*
X126767981Y-52246356D02*
X126967981Y-52313022D01*
X126967981Y-52313022D02*
X127301314Y-52313022D01*
X125301314Y-50913022D02*
X125567981Y-50913022D01*
X125567981Y-50913022D02*
X125701314Y-50979689D01*
X125701314Y-50979689D02*
X125767981Y-51046356D01*
X125767981Y-51046356D02*
X125901314Y-51246356D01*
X125901314Y-51246356D02*
X125967981Y-51513022D01*
X125967981Y-51513022D02*
X125967981Y-52046356D01*
X125967981Y-52046356D02*
X125901314Y-52179689D01*
X125901314Y-52179689D02*
X125834648Y-52246356D01*
X125834648Y-52246356D02*
X125701314Y-52313022D01*
X125701314Y-52313022D02*
X125434648Y-52313022D01*
X125434648Y-52313022D02*
X125301314Y-52246356D01*
X125301314Y-52246356D02*
X125234648Y-52179689D01*
X125234648Y-52179689D02*
X125167981Y-52046356D01*
X125167981Y-52046356D02*
X125167981Y-51713022D01*
X125167981Y-51713022D02*
X125234648Y-51579689D01*
X125234648Y-51579689D02*
X125301314Y-51513022D01*
X125301314Y-51513022D02*
X125434648Y-51446356D01*
X125434648Y-51446356D02*
X125701314Y-51446356D01*
X125701314Y-51446356D02*
X125834648Y-51513022D01*
X125834648Y-51513022D02*
X125901314Y-51579689D01*
X125901314Y-51579689D02*
X125967981Y-51713022D01*
X123101314Y-52846356D02*
X123167981Y-52779689D01*
X123167981Y-52779689D02*
X123301314Y-52579689D01*
X123301314Y-52579689D02*
X123367981Y-52446356D01*
X123367981Y-52446356D02*
X123434648Y-52246356D01*
X123434648Y-52246356D02*
X123501314Y-51913022D01*
X123501314Y-51913022D02*
X123501314Y-51646356D01*
X123501314Y-51646356D02*
X123434648Y-51313022D01*
X123434648Y-51313022D02*
X123367981Y-51113022D01*
X123367981Y-51113022D02*
X123301314Y-50979689D01*
X123301314Y-50979689D02*
X123167981Y-50779689D01*
X123167981Y-50779689D02*
X123101314Y-50713022D01*
X121834648Y-50979689D02*
X121967981Y-50913022D01*
X121967981Y-50913022D02*
X122167981Y-50913022D01*
X122167981Y-50913022D02*
X122367981Y-50979689D01*
X122367981Y-50979689D02*
X122501315Y-51113022D01*
X122501315Y-51113022D02*
X122567981Y-51246356D01*
X122567981Y-51246356D02*
X122634648Y-51513022D01*
X122634648Y-51513022D02*
X122634648Y-51713022D01*
X122634648Y-51713022D02*
X122567981Y-51979689D01*
X122567981Y-51979689D02*
X122501315Y-52113022D01*
X122501315Y-52113022D02*
X122367981Y-52246356D01*
X122367981Y-52246356D02*
X122167981Y-52313022D01*
X122167981Y-52313022D02*
X122034648Y-52313022D01*
X122034648Y-52313022D02*
X121834648Y-52246356D01*
X121834648Y-52246356D02*
X121767981Y-52179689D01*
X121767981Y-52179689D02*
X121767981Y-51713022D01*
X121767981Y-51713022D02*
X122034648Y-51713022D01*
X121167981Y-52313022D02*
X121167981Y-50913022D01*
X121167981Y-50913022D02*
X120634648Y-50913022D01*
X120634648Y-50913022D02*
X120501315Y-50979689D01*
X120501315Y-50979689D02*
X120434648Y-51046356D01*
X120434648Y-51046356D02*
X120367981Y-51179689D01*
X120367981Y-51179689D02*
X120367981Y-51379689D01*
X120367981Y-51379689D02*
X120434648Y-51513022D01*
X120434648Y-51513022D02*
X120501315Y-51579689D01*
X120501315Y-51579689D02*
X120634648Y-51646356D01*
X120634648Y-51646356D02*
X121167981Y-51646356D01*
X119501315Y-50913022D02*
X119367981Y-50913022D01*
X119367981Y-50913022D02*
X119234648Y-50979689D01*
X119234648Y-50979689D02*
X119167981Y-51046356D01*
X119167981Y-51046356D02*
X119101315Y-51179689D01*
X119101315Y-51179689D02*
X119034648Y-51446356D01*
X119034648Y-51446356D02*
X119034648Y-51779689D01*
X119034648Y-51779689D02*
X119101315Y-52046356D01*
X119101315Y-52046356D02*
X119167981Y-52179689D01*
X119167981Y-52179689D02*
X119234648Y-52246356D01*
X119234648Y-52246356D02*
X119367981Y-52313022D01*
X119367981Y-52313022D02*
X119501315Y-52313022D01*
X119501315Y-52313022D02*
X119634648Y-52246356D01*
X119634648Y-52246356D02*
X119701315Y-52179689D01*
X119701315Y-52179689D02*
X119767981Y-52046356D01*
X119767981Y-52046356D02*
X119834648Y-51779689D01*
X119834648Y-51779689D02*
X119834648Y-51446356D01*
X119834648Y-51446356D02*
X119767981Y-51179689D01*
X119767981Y-51179689D02*
X119701315Y-51046356D01*
X119701315Y-51046356D02*
X119634648Y-50979689D01*
X119634648Y-50979689D02*
X119501315Y-50913022D01*
X118567982Y-52846356D02*
X118501315Y-52779689D01*
X118501315Y-52779689D02*
X118367982Y-52579689D01*
X118367982Y-52579689D02*
X118301315Y-52446356D01*
X118301315Y-52446356D02*
X118234648Y-52246356D01*
X118234648Y-52246356D02*
X118167982Y-51913022D01*
X118167982Y-51913022D02*
X118167982Y-51646356D01*
X118167982Y-51646356D02*
X118234648Y-51313022D01*
X118234648Y-51313022D02*
X118301315Y-51113022D01*
X118301315Y-51113022D02*
X118367982Y-50979689D01*
X118367982Y-50979689D02*
X118501315Y-50779689D01*
X118501315Y-50779689D02*
X118567982Y-50713022D01*
X134767982Y-54566944D02*
X135234649Y-53900278D01*
X135567982Y-54566944D02*
X135567982Y-53166944D01*
X135567982Y-53166944D02*
X135034649Y-53166944D01*
X135034649Y-53166944D02*
X134901316Y-53233611D01*
X134901316Y-53233611D02*
X134834649Y-53300278D01*
X134834649Y-53300278D02*
X134767982Y-53433611D01*
X134767982Y-53433611D02*
X134767982Y-53633611D01*
X134767982Y-53633611D02*
X134834649Y-53766944D01*
X134834649Y-53766944D02*
X134901316Y-53833611D01*
X134901316Y-53833611D02*
X135034649Y-53900278D01*
X135034649Y-53900278D02*
X135567982Y-53900278D01*
X133967982Y-54566944D02*
X134101316Y-54500278D01*
X134101316Y-54500278D02*
X134167982Y-54433611D01*
X134167982Y-54433611D02*
X134234649Y-54300278D01*
X134234649Y-54300278D02*
X134234649Y-53900278D01*
X134234649Y-53900278D02*
X134167982Y-53766944D01*
X134167982Y-53766944D02*
X134101316Y-53700278D01*
X134101316Y-53700278D02*
X133967982Y-53633611D01*
X133967982Y-53633611D02*
X133767982Y-53633611D01*
X133767982Y-53633611D02*
X133634649Y-53700278D01*
X133634649Y-53700278D02*
X133567982Y-53766944D01*
X133567982Y-53766944D02*
X133501316Y-53900278D01*
X133501316Y-53900278D02*
X133501316Y-54300278D01*
X133501316Y-54300278D02*
X133567982Y-54433611D01*
X133567982Y-54433611D02*
X133634649Y-54500278D01*
X133634649Y-54500278D02*
X133767982Y-54566944D01*
X133767982Y-54566944D02*
X133967982Y-54566944D01*
X133034649Y-53633611D02*
X132767982Y-54566944D01*
X132767982Y-54566944D02*
X132501315Y-53900278D01*
X132501315Y-53900278D02*
X132234649Y-54566944D01*
X132234649Y-54566944D02*
X131967982Y-53633611D01*
X129767981Y-53633611D02*
X129767981Y-54566944D01*
X130101315Y-53100278D02*
X130434648Y-54100278D01*
X130434648Y-54100278D02*
X129567981Y-54100278D01*
X129034648Y-54433611D02*
X128967982Y-54500278D01*
X128967982Y-54500278D02*
X129034648Y-54566944D01*
X129034648Y-54566944D02*
X129101315Y-54500278D01*
X129101315Y-54500278D02*
X129034648Y-54433611D01*
X129034648Y-54433611D02*
X129034648Y-54566944D01*
X129034648Y-53700278D02*
X128967982Y-53766944D01*
X128967982Y-53766944D02*
X129034648Y-53833611D01*
X129034648Y-53833611D02*
X129101315Y-53766944D01*
X129101315Y-53766944D02*
X129034648Y-53700278D01*
X129034648Y-53700278D02*
X129034648Y-53833611D01*
X127301314Y-54566944D02*
X127301314Y-53166944D01*
X127301314Y-53166944D02*
X126967981Y-53166944D01*
X126967981Y-53166944D02*
X126767981Y-53233611D01*
X126767981Y-53233611D02*
X126634648Y-53366944D01*
X126634648Y-53366944D02*
X126567981Y-53500278D01*
X126567981Y-53500278D02*
X126501314Y-53766944D01*
X126501314Y-53766944D02*
X126501314Y-53966944D01*
X126501314Y-53966944D02*
X126567981Y-54233611D01*
X126567981Y-54233611D02*
X126634648Y-54366944D01*
X126634648Y-54366944D02*
X126767981Y-54500278D01*
X126767981Y-54500278D02*
X126967981Y-54566944D01*
X126967981Y-54566944D02*
X127301314Y-54566944D01*
X125834648Y-54566944D02*
X125567981Y-54566944D01*
X125567981Y-54566944D02*
X125434648Y-54500278D01*
X125434648Y-54500278D02*
X125367981Y-54433611D01*
X125367981Y-54433611D02*
X125234648Y-54233611D01*
X125234648Y-54233611D02*
X125167981Y-53966944D01*
X125167981Y-53966944D02*
X125167981Y-53433611D01*
X125167981Y-53433611D02*
X125234648Y-53300278D01*
X125234648Y-53300278D02*
X125301314Y-53233611D01*
X125301314Y-53233611D02*
X125434648Y-53166944D01*
X125434648Y-53166944D02*
X125701314Y-53166944D01*
X125701314Y-53166944D02*
X125834648Y-53233611D01*
X125834648Y-53233611D02*
X125901314Y-53300278D01*
X125901314Y-53300278D02*
X125967981Y-53433611D01*
X125967981Y-53433611D02*
X125967981Y-53766944D01*
X125967981Y-53766944D02*
X125901314Y-53900278D01*
X125901314Y-53900278D02*
X125834648Y-53966944D01*
X125834648Y-53966944D02*
X125701314Y-54033611D01*
X125701314Y-54033611D02*
X125434648Y-54033611D01*
X125434648Y-54033611D02*
X125301314Y-53966944D01*
X125301314Y-53966944D02*
X125234648Y-53900278D01*
X125234648Y-53900278D02*
X125167981Y-53766944D01*
X123101314Y-55100278D02*
X123167981Y-55033611D01*
X123167981Y-55033611D02*
X123301314Y-54833611D01*
X123301314Y-54833611D02*
X123367981Y-54700278D01*
X123367981Y-54700278D02*
X123434648Y-54500278D01*
X123434648Y-54500278D02*
X123501314Y-54166944D01*
X123501314Y-54166944D02*
X123501314Y-53900278D01*
X123501314Y-53900278D02*
X123434648Y-53566944D01*
X123434648Y-53566944D02*
X123367981Y-53366944D01*
X123367981Y-53366944D02*
X123301314Y-53233611D01*
X123301314Y-53233611D02*
X123167981Y-53033611D01*
X123167981Y-53033611D02*
X123101314Y-52966944D01*
X121834648Y-53233611D02*
X121967981Y-53166944D01*
X121967981Y-53166944D02*
X122167981Y-53166944D01*
X122167981Y-53166944D02*
X122367981Y-53233611D01*
X122367981Y-53233611D02*
X122501315Y-53366944D01*
X122501315Y-53366944D02*
X122567981Y-53500278D01*
X122567981Y-53500278D02*
X122634648Y-53766944D01*
X122634648Y-53766944D02*
X122634648Y-53966944D01*
X122634648Y-53966944D02*
X122567981Y-54233611D01*
X122567981Y-54233611D02*
X122501315Y-54366944D01*
X122501315Y-54366944D02*
X122367981Y-54500278D01*
X122367981Y-54500278D02*
X122167981Y-54566944D01*
X122167981Y-54566944D02*
X122034648Y-54566944D01*
X122034648Y-54566944D02*
X121834648Y-54500278D01*
X121834648Y-54500278D02*
X121767981Y-54433611D01*
X121767981Y-54433611D02*
X121767981Y-53966944D01*
X121767981Y-53966944D02*
X122034648Y-53966944D01*
X121167981Y-54566944D02*
X121167981Y-53166944D01*
X121167981Y-53166944D02*
X120634648Y-53166944D01*
X120634648Y-53166944D02*
X120501315Y-53233611D01*
X120501315Y-53233611D02*
X120434648Y-53300278D01*
X120434648Y-53300278D02*
X120367981Y-53433611D01*
X120367981Y-53433611D02*
X120367981Y-53633611D01*
X120367981Y-53633611D02*
X120434648Y-53766944D01*
X120434648Y-53766944D02*
X120501315Y-53833611D01*
X120501315Y-53833611D02*
X120634648Y-53900278D01*
X120634648Y-53900278D02*
X121167981Y-53900278D01*
X119167981Y-53633611D02*
X119167981Y-54566944D01*
X119501315Y-53100278D02*
X119834648Y-54100278D01*
X119834648Y-54100278D02*
X118967981Y-54100278D01*
X118567982Y-55100278D02*
X118501315Y-55033611D01*
X118501315Y-55033611D02*
X118367982Y-54833611D01*
X118367982Y-54833611D02*
X118301315Y-54700278D01*
X118301315Y-54700278D02*
X118234648Y-54500278D01*
X118234648Y-54500278D02*
X118167982Y-54166944D01*
X118167982Y-54166944D02*
X118167982Y-53900278D01*
X118167982Y-53900278D02*
X118234648Y-53566944D01*
X118234648Y-53566944D02*
X118301315Y-53366944D01*
X118301315Y-53366944D02*
X118367982Y-53233611D01*
X118367982Y-53233611D02*
X118501315Y-53033611D01*
X118501315Y-53033611D02*
X118567982Y-52966944D01*
X134767982Y-56820866D02*
X135234649Y-56154200D01*
X135567982Y-56820866D02*
X135567982Y-55420866D01*
X135567982Y-55420866D02*
X135034649Y-55420866D01*
X135034649Y-55420866D02*
X134901316Y-55487533D01*
X134901316Y-55487533D02*
X134834649Y-55554200D01*
X134834649Y-55554200D02*
X134767982Y-55687533D01*
X134767982Y-55687533D02*
X134767982Y-55887533D01*
X134767982Y-55887533D02*
X134834649Y-56020866D01*
X134834649Y-56020866D02*
X134901316Y-56087533D01*
X134901316Y-56087533D02*
X135034649Y-56154200D01*
X135034649Y-56154200D02*
X135567982Y-56154200D01*
X133967982Y-56820866D02*
X134101316Y-56754200D01*
X134101316Y-56754200D02*
X134167982Y-56687533D01*
X134167982Y-56687533D02*
X134234649Y-56554200D01*
X134234649Y-56554200D02*
X134234649Y-56154200D01*
X134234649Y-56154200D02*
X134167982Y-56020866D01*
X134167982Y-56020866D02*
X134101316Y-55954200D01*
X134101316Y-55954200D02*
X133967982Y-55887533D01*
X133967982Y-55887533D02*
X133767982Y-55887533D01*
X133767982Y-55887533D02*
X133634649Y-55954200D01*
X133634649Y-55954200D02*
X133567982Y-56020866D01*
X133567982Y-56020866D02*
X133501316Y-56154200D01*
X133501316Y-56154200D02*
X133501316Y-56554200D01*
X133501316Y-56554200D02*
X133567982Y-56687533D01*
X133567982Y-56687533D02*
X133634649Y-56754200D01*
X133634649Y-56754200D02*
X133767982Y-56820866D01*
X133767982Y-56820866D02*
X133967982Y-56820866D01*
X133034649Y-55887533D02*
X132767982Y-56820866D01*
X132767982Y-56820866D02*
X132501315Y-56154200D01*
X132501315Y-56154200D02*
X132234649Y-56820866D01*
X132234649Y-56820866D02*
X131967982Y-55887533D01*
X129701315Y-55420866D02*
X130367981Y-55420866D01*
X130367981Y-55420866D02*
X130434648Y-56087533D01*
X130434648Y-56087533D02*
X130367981Y-56020866D01*
X130367981Y-56020866D02*
X130234648Y-55954200D01*
X130234648Y-55954200D02*
X129901315Y-55954200D01*
X129901315Y-55954200D02*
X129767981Y-56020866D01*
X129767981Y-56020866D02*
X129701315Y-56087533D01*
X129701315Y-56087533D02*
X129634648Y-56220866D01*
X129634648Y-56220866D02*
X129634648Y-56554200D01*
X129634648Y-56554200D02*
X129701315Y-56687533D01*
X129701315Y-56687533D02*
X129767981Y-56754200D01*
X129767981Y-56754200D02*
X129901315Y-56820866D01*
X129901315Y-56820866D02*
X130234648Y-56820866D01*
X130234648Y-56820866D02*
X130367981Y-56754200D01*
X130367981Y-56754200D02*
X130434648Y-56687533D01*
X129034648Y-56687533D02*
X128967982Y-56754200D01*
X128967982Y-56754200D02*
X129034648Y-56820866D01*
X129034648Y-56820866D02*
X129101315Y-56754200D01*
X129101315Y-56754200D02*
X129034648Y-56687533D01*
X129034648Y-56687533D02*
X129034648Y-56820866D01*
X129034648Y-55954200D02*
X128967982Y-56020866D01*
X128967982Y-56020866D02*
X129034648Y-56087533D01*
X129034648Y-56087533D02*
X129101315Y-56020866D01*
X129101315Y-56020866D02*
X129034648Y-55954200D01*
X129034648Y-55954200D02*
X129034648Y-56087533D01*
X127301314Y-56820866D02*
X127301314Y-55420866D01*
X127301314Y-55420866D02*
X126967981Y-55420866D01*
X126967981Y-55420866D02*
X126767981Y-55487533D01*
X126767981Y-55487533D02*
X126634648Y-55620866D01*
X126634648Y-55620866D02*
X126567981Y-55754200D01*
X126567981Y-55754200D02*
X126501314Y-56020866D01*
X126501314Y-56020866D02*
X126501314Y-56220866D01*
X126501314Y-56220866D02*
X126567981Y-56487533D01*
X126567981Y-56487533D02*
X126634648Y-56620866D01*
X126634648Y-56620866D02*
X126767981Y-56754200D01*
X126767981Y-56754200D02*
X126967981Y-56820866D01*
X126967981Y-56820866D02*
X127301314Y-56820866D01*
X125167981Y-56820866D02*
X125967981Y-56820866D01*
X125567981Y-56820866D02*
X125567981Y-55420866D01*
X125567981Y-55420866D02*
X125701314Y-55620866D01*
X125701314Y-55620866D02*
X125834648Y-55754200D01*
X125834648Y-55754200D02*
X125967981Y-55820866D01*
X124301315Y-55420866D02*
X124167981Y-55420866D01*
X124167981Y-55420866D02*
X124034648Y-55487533D01*
X124034648Y-55487533D02*
X123967981Y-55554200D01*
X123967981Y-55554200D02*
X123901315Y-55687533D01*
X123901315Y-55687533D02*
X123834648Y-55954200D01*
X123834648Y-55954200D02*
X123834648Y-56287533D01*
X123834648Y-56287533D02*
X123901315Y-56554200D01*
X123901315Y-56554200D02*
X123967981Y-56687533D01*
X123967981Y-56687533D02*
X124034648Y-56754200D01*
X124034648Y-56754200D02*
X124167981Y-56820866D01*
X124167981Y-56820866D02*
X124301315Y-56820866D01*
X124301315Y-56820866D02*
X124434648Y-56754200D01*
X124434648Y-56754200D02*
X124501315Y-56687533D01*
X124501315Y-56687533D02*
X124567981Y-56554200D01*
X124567981Y-56554200D02*
X124634648Y-56287533D01*
X124634648Y-56287533D02*
X124634648Y-55954200D01*
X124634648Y-55954200D02*
X124567981Y-55687533D01*
X124567981Y-55687533D02*
X124501315Y-55554200D01*
X124501315Y-55554200D02*
X124434648Y-55487533D01*
X124434648Y-55487533D02*
X124301315Y-55420866D01*
X121767981Y-57354200D02*
X121834648Y-57287533D01*
X121834648Y-57287533D02*
X121967981Y-57087533D01*
X121967981Y-57087533D02*
X122034648Y-56954200D01*
X122034648Y-56954200D02*
X122101315Y-56754200D01*
X122101315Y-56754200D02*
X122167981Y-56420866D01*
X122167981Y-56420866D02*
X122167981Y-56154200D01*
X122167981Y-56154200D02*
X122101315Y-55820866D01*
X122101315Y-55820866D02*
X122034648Y-55620866D01*
X122034648Y-55620866D02*
X121967981Y-55487533D01*
X121967981Y-55487533D02*
X121834648Y-55287533D01*
X121834648Y-55287533D02*
X121767981Y-55220866D01*
X120501315Y-55487533D02*
X120634648Y-55420866D01*
X120634648Y-55420866D02*
X120834648Y-55420866D01*
X120834648Y-55420866D02*
X121034648Y-55487533D01*
X121034648Y-55487533D02*
X121167982Y-55620866D01*
X121167982Y-55620866D02*
X121234648Y-55754200D01*
X121234648Y-55754200D02*
X121301315Y-56020866D01*
X121301315Y-56020866D02*
X121301315Y-56220866D01*
X121301315Y-56220866D02*
X121234648Y-56487533D01*
X121234648Y-56487533D02*
X121167982Y-56620866D01*
X121167982Y-56620866D02*
X121034648Y-56754200D01*
X121034648Y-56754200D02*
X120834648Y-56820866D01*
X120834648Y-56820866D02*
X120701315Y-56820866D01*
X120701315Y-56820866D02*
X120501315Y-56754200D01*
X120501315Y-56754200D02*
X120434648Y-56687533D01*
X120434648Y-56687533D02*
X120434648Y-56220866D01*
X120434648Y-56220866D02*
X120701315Y-56220866D01*
X119834648Y-56820866D02*
X119834648Y-55420866D01*
X119834648Y-55420866D02*
X119301315Y-55420866D01*
X119301315Y-55420866D02*
X119167982Y-55487533D01*
X119167982Y-55487533D02*
X119101315Y-55554200D01*
X119101315Y-55554200D02*
X119034648Y-55687533D01*
X119034648Y-55687533D02*
X119034648Y-55887533D01*
X119034648Y-55887533D02*
X119101315Y-56020866D01*
X119101315Y-56020866D02*
X119167982Y-56087533D01*
X119167982Y-56087533D02*
X119301315Y-56154200D01*
X119301315Y-56154200D02*
X119834648Y-56154200D01*
X118567982Y-55420866D02*
X117701315Y-55420866D01*
X117701315Y-55420866D02*
X118167982Y-55954200D01*
X118167982Y-55954200D02*
X117967982Y-55954200D01*
X117967982Y-55954200D02*
X117834648Y-56020866D01*
X117834648Y-56020866D02*
X117767982Y-56087533D01*
X117767982Y-56087533D02*
X117701315Y-56220866D01*
X117701315Y-56220866D02*
X117701315Y-56554200D01*
X117701315Y-56554200D02*
X117767982Y-56687533D01*
X117767982Y-56687533D02*
X117834648Y-56754200D01*
X117834648Y-56754200D02*
X117967982Y-56820866D01*
X117967982Y-56820866D02*
X118367982Y-56820866D01*
X118367982Y-56820866D02*
X118501315Y-56754200D01*
X118501315Y-56754200D02*
X118567982Y-56687533D01*
X117234649Y-57354200D02*
X117167982Y-57287533D01*
X117167982Y-57287533D02*
X117034649Y-57087533D01*
X117034649Y-57087533D02*
X116967982Y-56954200D01*
X116967982Y-56954200D02*
X116901315Y-56754200D01*
X116901315Y-56754200D02*
X116834649Y-56420866D01*
X116834649Y-56420866D02*
X116834649Y-56154200D01*
X116834649Y-56154200D02*
X116901315Y-55820866D01*
X116901315Y-55820866D02*
X116967982Y-55620866D01*
X116967982Y-55620866D02*
X117034649Y-55487533D01*
X117034649Y-55487533D02*
X117167982Y-55287533D01*
X117167982Y-55287533D02*
X117234649Y-55220866D01*
X95869819Y-33836779D02*
X94869819Y-33836779D01*
X94869819Y-33836779D02*
X94869819Y-34074874D01*
X94869819Y-34074874D02*
X94917438Y-34217731D01*
X94917438Y-34217731D02*
X95012676Y-34312969D01*
X95012676Y-34312969D02*
X95107914Y-34360588D01*
X95107914Y-34360588D02*
X95298390Y-34408207D01*
X95298390Y-34408207D02*
X95441247Y-34408207D01*
X95441247Y-34408207D02*
X95631723Y-34360588D01*
X95631723Y-34360588D02*
X95726961Y-34312969D01*
X95726961Y-34312969D02*
X95822200Y-34217731D01*
X95822200Y-34217731D02*
X95869819Y-34074874D01*
X95869819Y-34074874D02*
X95869819Y-33836779D01*
X95869819Y-34884398D02*
X95869819Y-35074874D01*
X95869819Y-35074874D02*
X95822200Y-35170112D01*
X95822200Y-35170112D02*
X95774580Y-35217731D01*
X95774580Y-35217731D02*
X95631723Y-35312969D01*
X95631723Y-35312969D02*
X95441247Y-35360588D01*
X95441247Y-35360588D02*
X95060295Y-35360588D01*
X95060295Y-35360588D02*
X94965057Y-35312969D01*
X94965057Y-35312969D02*
X94917438Y-35265350D01*
X94917438Y-35265350D02*
X94869819Y-35170112D01*
X94869819Y-35170112D02*
X94869819Y-34979636D01*
X94869819Y-34979636D02*
X94917438Y-34884398D01*
X94917438Y-34884398D02*
X94965057Y-34836779D01*
X94965057Y-34836779D02*
X95060295Y-34789160D01*
X95060295Y-34789160D02*
X95298390Y-34789160D01*
X95298390Y-34789160D02*
X95393628Y-34836779D01*
X95393628Y-34836779D02*
X95441247Y-34884398D01*
X95441247Y-34884398D02*
X95488866Y-34979636D01*
X95488866Y-34979636D02*
X95488866Y-35170112D01*
X95488866Y-35170112D02*
X95441247Y-35265350D01*
X95441247Y-35265350D02*
X95393628Y-35312969D01*
X95393628Y-35312969D02*
X95298390Y-35360588D01*
X93369819Y-33336779D02*
X92369819Y-33336779D01*
X92369819Y-33336779D02*
X92369819Y-33574874D01*
X92369819Y-33574874D02*
X92417438Y-33717731D01*
X92417438Y-33717731D02*
X92512676Y-33812969D01*
X92512676Y-33812969D02*
X92607914Y-33860588D01*
X92607914Y-33860588D02*
X92798390Y-33908207D01*
X92798390Y-33908207D02*
X92941247Y-33908207D01*
X92941247Y-33908207D02*
X93131723Y-33860588D01*
X93131723Y-33860588D02*
X93226961Y-33812969D01*
X93226961Y-33812969D02*
X93322200Y-33717731D01*
X93322200Y-33717731D02*
X93369819Y-33574874D01*
X93369819Y-33574874D02*
X93369819Y-33336779D01*
X93369819Y-34860588D02*
X93369819Y-34289160D01*
X93369819Y-34574874D02*
X92369819Y-34574874D01*
X92369819Y-34574874D02*
X92512676Y-34479636D01*
X92512676Y-34479636D02*
X92607914Y-34384398D01*
X92607914Y-34384398D02*
X92655533Y-34289160D01*
X92369819Y-35479636D02*
X92369819Y-35574874D01*
X92369819Y-35574874D02*
X92417438Y-35670112D01*
X92417438Y-35670112D02*
X92465057Y-35717731D01*
X92465057Y-35717731D02*
X92560295Y-35765350D01*
X92560295Y-35765350D02*
X92750771Y-35812969D01*
X92750771Y-35812969D02*
X92988866Y-35812969D01*
X92988866Y-35812969D02*
X93179342Y-35765350D01*
X93179342Y-35765350D02*
X93274580Y-35717731D01*
X93274580Y-35717731D02*
X93322200Y-35670112D01*
X93322200Y-35670112D02*
X93369819Y-35574874D01*
X93369819Y-35574874D02*
X93369819Y-35479636D01*
X93369819Y-35479636D02*
X93322200Y-35384398D01*
X93322200Y-35384398D02*
X93274580Y-35336779D01*
X93274580Y-35336779D02*
X93179342Y-35289160D01*
X93179342Y-35289160D02*
X92988866Y-35241541D01*
X92988866Y-35241541D02*
X92750771Y-35241541D01*
X92750771Y-35241541D02*
X92560295Y-35289160D01*
X92560295Y-35289160D02*
X92465057Y-35336779D01*
X92465057Y-35336779D02*
X92417438Y-35384398D01*
X92417438Y-35384398D02*
X92369819Y-35479636D01*
X98369819Y-52836779D02*
X97369819Y-52836779D01*
X97369819Y-52836779D02*
X97369819Y-53074874D01*
X97369819Y-53074874D02*
X97417438Y-53217731D01*
X97417438Y-53217731D02*
X97512676Y-53312969D01*
X97512676Y-53312969D02*
X97607914Y-53360588D01*
X97607914Y-53360588D02*
X97798390Y-53408207D01*
X97798390Y-53408207D02*
X97941247Y-53408207D01*
X97941247Y-53408207D02*
X98131723Y-53360588D01*
X98131723Y-53360588D02*
X98226961Y-53312969D01*
X98226961Y-53312969D02*
X98322200Y-53217731D01*
X98322200Y-53217731D02*
X98369819Y-53074874D01*
X98369819Y-53074874D02*
X98369819Y-52836779D01*
X97369819Y-54312969D02*
X97369819Y-53836779D01*
X97369819Y-53836779D02*
X97846009Y-53789160D01*
X97846009Y-53789160D02*
X97798390Y-53836779D01*
X97798390Y-53836779D02*
X97750771Y-53932017D01*
X97750771Y-53932017D02*
X97750771Y-54170112D01*
X97750771Y-54170112D02*
X97798390Y-54265350D01*
X97798390Y-54265350D02*
X97846009Y-54312969D01*
X97846009Y-54312969D02*
X97941247Y-54360588D01*
X97941247Y-54360588D02*
X98179342Y-54360588D01*
X98179342Y-54360588D02*
X98274580Y-54312969D01*
X98274580Y-54312969D02*
X98322200Y-54265350D01*
X98322200Y-54265350D02*
X98369819Y-54170112D01*
X98369819Y-54170112D02*
X98369819Y-53932017D01*
X98369819Y-53932017D02*
X98322200Y-53836779D01*
X98322200Y-53836779D02*
X98274580Y-53789160D01*
X100869819Y-33836779D02*
X99869819Y-33836779D01*
X99869819Y-33836779D02*
X99869819Y-34074874D01*
X99869819Y-34074874D02*
X99917438Y-34217731D01*
X99917438Y-34217731D02*
X100012676Y-34312969D01*
X100012676Y-34312969D02*
X100107914Y-34360588D01*
X100107914Y-34360588D02*
X100298390Y-34408207D01*
X100298390Y-34408207D02*
X100441247Y-34408207D01*
X100441247Y-34408207D02*
X100631723Y-34360588D01*
X100631723Y-34360588D02*
X100726961Y-34312969D01*
X100726961Y-34312969D02*
X100822200Y-34217731D01*
X100822200Y-34217731D02*
X100869819Y-34074874D01*
X100869819Y-34074874D02*
X100869819Y-33836779D01*
X99869819Y-34741541D02*
X99869819Y-35408207D01*
X99869819Y-35408207D02*
X100869819Y-34979636D01*
X88369819Y-52836779D02*
X87369819Y-52836779D01*
X87369819Y-52836779D02*
X87369819Y-53074874D01*
X87369819Y-53074874D02*
X87417438Y-53217731D01*
X87417438Y-53217731D02*
X87512676Y-53312969D01*
X87512676Y-53312969D02*
X87607914Y-53360588D01*
X87607914Y-53360588D02*
X87798390Y-53408207D01*
X87798390Y-53408207D02*
X87941247Y-53408207D01*
X87941247Y-53408207D02*
X88131723Y-53360588D01*
X88131723Y-53360588D02*
X88226961Y-53312969D01*
X88226961Y-53312969D02*
X88322200Y-53217731D01*
X88322200Y-53217731D02*
X88369819Y-53074874D01*
X88369819Y-53074874D02*
X88369819Y-52836779D01*
X88369819Y-54360588D02*
X88369819Y-53789160D01*
X88369819Y-54074874D02*
X87369819Y-54074874D01*
X87369819Y-54074874D02*
X87512676Y-53979636D01*
X87512676Y-53979636D02*
X87607914Y-53884398D01*
X87607914Y-53884398D02*
X87655533Y-53789160D01*
X90869819Y-52836779D02*
X89869819Y-52836779D01*
X89869819Y-52836779D02*
X89869819Y-53074874D01*
X89869819Y-53074874D02*
X89917438Y-53217731D01*
X89917438Y-53217731D02*
X90012676Y-53312969D01*
X90012676Y-53312969D02*
X90107914Y-53360588D01*
X90107914Y-53360588D02*
X90298390Y-53408207D01*
X90298390Y-53408207D02*
X90441247Y-53408207D01*
X90441247Y-53408207D02*
X90631723Y-53360588D01*
X90631723Y-53360588D02*
X90726961Y-53312969D01*
X90726961Y-53312969D02*
X90822200Y-53217731D01*
X90822200Y-53217731D02*
X90869819Y-53074874D01*
X90869819Y-53074874D02*
X90869819Y-52836779D01*
X89965057Y-53789160D02*
X89917438Y-53836779D01*
X89917438Y-53836779D02*
X89869819Y-53932017D01*
X89869819Y-53932017D02*
X89869819Y-54170112D01*
X89869819Y-54170112D02*
X89917438Y-54265350D01*
X89917438Y-54265350D02*
X89965057Y-54312969D01*
X89965057Y-54312969D02*
X90060295Y-54360588D01*
X90060295Y-54360588D02*
X90155533Y-54360588D01*
X90155533Y-54360588D02*
X90298390Y-54312969D01*
X90298390Y-54312969D02*
X90869819Y-53741541D01*
X90869819Y-53741541D02*
X90869819Y-54360588D01*
X84869819Y-34312969D02*
X84869819Y-33836779D01*
X84869819Y-33836779D02*
X85346009Y-33789160D01*
X85346009Y-33789160D02*
X85298390Y-33836779D01*
X85298390Y-33836779D02*
X85250771Y-33932017D01*
X85250771Y-33932017D02*
X85250771Y-34170112D01*
X85250771Y-34170112D02*
X85298390Y-34265350D01*
X85298390Y-34265350D02*
X85346009Y-34312969D01*
X85346009Y-34312969D02*
X85441247Y-34360588D01*
X85441247Y-34360588D02*
X85679342Y-34360588D01*
X85679342Y-34360588D02*
X85774580Y-34312969D01*
X85774580Y-34312969D02*
X85822200Y-34265350D01*
X85822200Y-34265350D02*
X85869819Y-34170112D01*
X85869819Y-34170112D02*
X85869819Y-33932017D01*
X85869819Y-33932017D02*
X85822200Y-33836779D01*
X85822200Y-33836779D02*
X85774580Y-33789160D01*
X84869819Y-34646303D02*
X85869819Y-34979636D01*
X85869819Y-34979636D02*
X84869819Y-35312969D01*
X124763220Y-44969819D02*
X124763220Y-43969819D01*
X124334649Y-44969819D02*
X124334649Y-44446009D01*
X124334649Y-44446009D02*
X124382268Y-44350771D01*
X124382268Y-44350771D02*
X124477506Y-44303152D01*
X124477506Y-44303152D02*
X124620363Y-44303152D01*
X124620363Y-44303152D02*
X124715601Y-44350771D01*
X124715601Y-44350771D02*
X124763220Y-44398390D01*
X124001315Y-44303152D02*
X123620363Y-44303152D01*
X123858458Y-43969819D02*
X123858458Y-44826961D01*
X123858458Y-44826961D02*
X123810839Y-44922200D01*
X123810839Y-44922200D02*
X123715601Y-44969819D01*
X123715601Y-44969819D02*
X123620363Y-44969819D01*
X123429886Y-44303152D02*
X123048934Y-44303152D01*
X123287029Y-43969819D02*
X123287029Y-44826961D01*
X123287029Y-44826961D02*
X123239410Y-44922200D01*
X123239410Y-44922200D02*
X123144172Y-44969819D01*
X123144172Y-44969819D02*
X123048934Y-44969819D01*
X122715600Y-44303152D02*
X122715600Y-45303152D01*
X122715600Y-44350771D02*
X122620362Y-44303152D01*
X122620362Y-44303152D02*
X122429886Y-44303152D01*
X122429886Y-44303152D02*
X122334648Y-44350771D01*
X122334648Y-44350771D02*
X122287029Y-44398390D01*
X122287029Y-44398390D02*
X122239410Y-44493628D01*
X122239410Y-44493628D02*
X122239410Y-44779342D01*
X122239410Y-44779342D02*
X122287029Y-44874580D01*
X122287029Y-44874580D02*
X122334648Y-44922200D01*
X122334648Y-44922200D02*
X122429886Y-44969819D01*
X122429886Y-44969819D02*
X122620362Y-44969819D01*
X122620362Y-44969819D02*
X122715600Y-44922200D01*
X121858457Y-44922200D02*
X121763219Y-44969819D01*
X121763219Y-44969819D02*
X121572743Y-44969819D01*
X121572743Y-44969819D02*
X121477505Y-44922200D01*
X121477505Y-44922200D02*
X121429886Y-44826961D01*
X121429886Y-44826961D02*
X121429886Y-44779342D01*
X121429886Y-44779342D02*
X121477505Y-44684104D01*
X121477505Y-44684104D02*
X121572743Y-44636485D01*
X121572743Y-44636485D02*
X121715600Y-44636485D01*
X121715600Y-44636485D02*
X121810838Y-44588866D01*
X121810838Y-44588866D02*
X121858457Y-44493628D01*
X121858457Y-44493628D02*
X121858457Y-44446009D01*
X121858457Y-44446009D02*
X121810838Y-44350771D01*
X121810838Y-44350771D02*
X121715600Y-44303152D01*
X121715600Y-44303152D02*
X121572743Y-44303152D01*
X121572743Y-44303152D02*
X121477505Y-44350771D01*
X121001314Y-44874580D02*
X120953695Y-44922200D01*
X120953695Y-44922200D02*
X121001314Y-44969819D01*
X121001314Y-44969819D02*
X121048933Y-44922200D01*
X121048933Y-44922200D02*
X121001314Y-44874580D01*
X121001314Y-44874580D02*
X121001314Y-44969819D01*
X121001314Y-44350771D02*
X120953695Y-44398390D01*
X120953695Y-44398390D02*
X121001314Y-44446009D01*
X121001314Y-44446009D02*
X121048933Y-44398390D01*
X121048933Y-44398390D02*
X121001314Y-44350771D01*
X121001314Y-44350771D02*
X121001314Y-44446009D01*
X119810839Y-43922200D02*
X120667981Y-45207914D01*
X118763220Y-43922200D02*
X119620362Y-45207914D01*
X118001315Y-44303152D02*
X118001315Y-45112676D01*
X118001315Y-45112676D02*
X118048934Y-45207914D01*
X118048934Y-45207914D02*
X118096553Y-45255533D01*
X118096553Y-45255533D02*
X118191791Y-45303152D01*
X118191791Y-45303152D02*
X118334648Y-45303152D01*
X118334648Y-45303152D02*
X118429886Y-45255533D01*
X118001315Y-44922200D02*
X118096553Y-44969819D01*
X118096553Y-44969819D02*
X118287029Y-44969819D01*
X118287029Y-44969819D02*
X118382267Y-44922200D01*
X118382267Y-44922200D02*
X118429886Y-44874580D01*
X118429886Y-44874580D02*
X118477505Y-44779342D01*
X118477505Y-44779342D02*
X118477505Y-44493628D01*
X118477505Y-44493628D02*
X118429886Y-44398390D01*
X118429886Y-44398390D02*
X118382267Y-44350771D01*
X118382267Y-44350771D02*
X118287029Y-44303152D01*
X118287029Y-44303152D02*
X118096553Y-44303152D01*
X118096553Y-44303152D02*
X118001315Y-44350771D01*
X117525124Y-44969819D02*
X117525124Y-44303152D01*
X117525124Y-43969819D02*
X117572743Y-44017438D01*
X117572743Y-44017438D02*
X117525124Y-44065057D01*
X117525124Y-44065057D02*
X117477505Y-44017438D01*
X117477505Y-44017438D02*
X117525124Y-43969819D01*
X117525124Y-43969819D02*
X117525124Y-44065057D01*
X117191791Y-44303152D02*
X116810839Y-44303152D01*
X117048934Y-43969819D02*
X117048934Y-44826961D01*
X117048934Y-44826961D02*
X117001315Y-44922200D01*
X117001315Y-44922200D02*
X116906077Y-44969819D01*
X116906077Y-44969819D02*
X116810839Y-44969819D01*
X116477505Y-44969819D02*
X116477505Y-43969819D01*
X116048934Y-44969819D02*
X116048934Y-44446009D01*
X116048934Y-44446009D02*
X116096553Y-44350771D01*
X116096553Y-44350771D02*
X116191791Y-44303152D01*
X116191791Y-44303152D02*
X116334648Y-44303152D01*
X116334648Y-44303152D02*
X116429886Y-44350771D01*
X116429886Y-44350771D02*
X116477505Y-44398390D01*
X115144172Y-44303152D02*
X115144172Y-44969819D01*
X115572743Y-44303152D02*
X115572743Y-44826961D01*
X115572743Y-44826961D02*
X115525124Y-44922200D01*
X115525124Y-44922200D02*
X115429886Y-44969819D01*
X115429886Y-44969819D02*
X115287029Y-44969819D01*
X115287029Y-44969819D02*
X115191791Y-44922200D01*
X115191791Y-44922200D02*
X115144172Y-44874580D01*
X114667981Y-44969819D02*
X114667981Y-43969819D01*
X114667981Y-44350771D02*
X114572743Y-44303152D01*
X114572743Y-44303152D02*
X114382267Y-44303152D01*
X114382267Y-44303152D02*
X114287029Y-44350771D01*
X114287029Y-44350771D02*
X114239410Y-44398390D01*
X114239410Y-44398390D02*
X114191791Y-44493628D01*
X114191791Y-44493628D02*
X114191791Y-44779342D01*
X114191791Y-44779342D02*
X114239410Y-44874580D01*
X114239410Y-44874580D02*
X114287029Y-44922200D01*
X114287029Y-44922200D02*
X114382267Y-44969819D01*
X114382267Y-44969819D02*
X114572743Y-44969819D01*
X114572743Y-44969819D02*
X114667981Y-44922200D01*
X113763219Y-44874580D02*
X113715600Y-44922200D01*
X113715600Y-44922200D02*
X113763219Y-44969819D01*
X113763219Y-44969819D02*
X113810838Y-44922200D01*
X113810838Y-44922200D02*
X113763219Y-44874580D01*
X113763219Y-44874580D02*
X113763219Y-44969819D01*
X112858458Y-44922200D02*
X112953696Y-44969819D01*
X112953696Y-44969819D02*
X113144172Y-44969819D01*
X113144172Y-44969819D02*
X113239410Y-44922200D01*
X113239410Y-44922200D02*
X113287029Y-44874580D01*
X113287029Y-44874580D02*
X113334648Y-44779342D01*
X113334648Y-44779342D02*
X113334648Y-44493628D01*
X113334648Y-44493628D02*
X113287029Y-44398390D01*
X113287029Y-44398390D02*
X113239410Y-44350771D01*
X113239410Y-44350771D02*
X113144172Y-44303152D01*
X113144172Y-44303152D02*
X112953696Y-44303152D01*
X112953696Y-44303152D02*
X112858458Y-44350771D01*
X112287029Y-44969819D02*
X112382267Y-44922200D01*
X112382267Y-44922200D02*
X112429886Y-44874580D01*
X112429886Y-44874580D02*
X112477505Y-44779342D01*
X112477505Y-44779342D02*
X112477505Y-44493628D01*
X112477505Y-44493628D02*
X112429886Y-44398390D01*
X112429886Y-44398390D02*
X112382267Y-44350771D01*
X112382267Y-44350771D02*
X112287029Y-44303152D01*
X112287029Y-44303152D02*
X112144172Y-44303152D01*
X112144172Y-44303152D02*
X112048934Y-44350771D01*
X112048934Y-44350771D02*
X112001315Y-44398390D01*
X112001315Y-44398390D02*
X111953696Y-44493628D01*
X111953696Y-44493628D02*
X111953696Y-44779342D01*
X111953696Y-44779342D02*
X112001315Y-44874580D01*
X112001315Y-44874580D02*
X112048934Y-44922200D01*
X112048934Y-44922200D02*
X112144172Y-44969819D01*
X112144172Y-44969819D02*
X112287029Y-44969819D01*
X111525124Y-44969819D02*
X111525124Y-44303152D01*
X111525124Y-44398390D02*
X111477505Y-44350771D01*
X111477505Y-44350771D02*
X111382267Y-44303152D01*
X111382267Y-44303152D02*
X111239410Y-44303152D01*
X111239410Y-44303152D02*
X111144172Y-44350771D01*
X111144172Y-44350771D02*
X111096553Y-44446009D01*
X111096553Y-44446009D02*
X111096553Y-44969819D01*
X111096553Y-44446009D02*
X111048934Y-44350771D01*
X111048934Y-44350771D02*
X110953696Y-44303152D01*
X110953696Y-44303152D02*
X110810839Y-44303152D01*
X110810839Y-44303152D02*
X110715600Y-44350771D01*
X110715600Y-44350771D02*
X110667981Y-44446009D01*
X110667981Y-44446009D02*
X110667981Y-44969819D01*
X109477506Y-43922200D02*
X110334648Y-45207914D01*
X108715601Y-44303152D02*
X108715601Y-45112676D01*
X108715601Y-45112676D02*
X108763220Y-45207914D01*
X108763220Y-45207914D02*
X108810839Y-45255533D01*
X108810839Y-45255533D02*
X108906077Y-45303152D01*
X108906077Y-45303152D02*
X109048934Y-45303152D01*
X109048934Y-45303152D02*
X109144172Y-45255533D01*
X108715601Y-44922200D02*
X108810839Y-44969819D01*
X108810839Y-44969819D02*
X109001315Y-44969819D01*
X109001315Y-44969819D02*
X109096553Y-44922200D01*
X109096553Y-44922200D02*
X109144172Y-44874580D01*
X109144172Y-44874580D02*
X109191791Y-44779342D01*
X109191791Y-44779342D02*
X109191791Y-44493628D01*
X109191791Y-44493628D02*
X109144172Y-44398390D01*
X109144172Y-44398390D02*
X109096553Y-44350771D01*
X109096553Y-44350771D02*
X109001315Y-44303152D01*
X109001315Y-44303152D02*
X108810839Y-44303152D01*
X108810839Y-44303152D02*
X108715601Y-44350771D01*
X107810839Y-44303152D02*
X107810839Y-44969819D01*
X108239410Y-44303152D02*
X108239410Y-44826961D01*
X108239410Y-44826961D02*
X108191791Y-44922200D01*
X108191791Y-44922200D02*
X108096553Y-44969819D01*
X108096553Y-44969819D02*
X107953696Y-44969819D01*
X107953696Y-44969819D02*
X107858458Y-44922200D01*
X107858458Y-44922200D02*
X107810839Y-44874580D01*
X107334648Y-44969819D02*
X107334648Y-44303152D01*
X107334648Y-43969819D02*
X107382267Y-44017438D01*
X107382267Y-44017438D02*
X107334648Y-44065057D01*
X107334648Y-44065057D02*
X107287029Y-44017438D01*
X107287029Y-44017438D02*
X107334648Y-43969819D01*
X107334648Y-43969819D02*
X107334648Y-44065057D01*
X106429887Y-44969819D02*
X106429887Y-43969819D01*
X106429887Y-44922200D02*
X106525125Y-44969819D01*
X106525125Y-44969819D02*
X106715601Y-44969819D01*
X106715601Y-44969819D02*
X106810839Y-44922200D01*
X106810839Y-44922200D02*
X106858458Y-44874580D01*
X106858458Y-44874580D02*
X106906077Y-44779342D01*
X106906077Y-44779342D02*
X106906077Y-44493628D01*
X106906077Y-44493628D02*
X106858458Y-44398390D01*
X106858458Y-44398390D02*
X106810839Y-44350771D01*
X106810839Y-44350771D02*
X106715601Y-44303152D01*
X106715601Y-44303152D02*
X106525125Y-44303152D01*
X106525125Y-44303152D02*
X106429887Y-44350771D01*
X105810839Y-44969819D02*
X105906077Y-44922200D01*
X105906077Y-44922200D02*
X105953696Y-44874580D01*
X105953696Y-44874580D02*
X106001315Y-44779342D01*
X106001315Y-44779342D02*
X106001315Y-44493628D01*
X106001315Y-44493628D02*
X105953696Y-44398390D01*
X105953696Y-44398390D02*
X105906077Y-44350771D01*
X105906077Y-44350771D02*
X105810839Y-44303152D01*
X105810839Y-44303152D02*
X105667982Y-44303152D01*
X105667982Y-44303152D02*
X105572744Y-44350771D01*
X105572744Y-44350771D02*
X105525125Y-44398390D01*
X105525125Y-44398390D02*
X105477506Y-44493628D01*
X105477506Y-44493628D02*
X105477506Y-44779342D01*
X105477506Y-44779342D02*
X105525125Y-44874580D01*
X105525125Y-44874580D02*
X105572744Y-44922200D01*
X105572744Y-44922200D02*
X105667982Y-44969819D01*
X105667982Y-44969819D02*
X105810839Y-44969819D01*
X105048934Y-44969819D02*
X105048934Y-44303152D01*
X105048934Y-43969819D02*
X105096553Y-44017438D01*
X105096553Y-44017438D02*
X105048934Y-44065057D01*
X105048934Y-44065057D02*
X105001315Y-44017438D01*
X105001315Y-44017438D02*
X105048934Y-43969819D01*
X105048934Y-43969819D02*
X105048934Y-44065057D01*
X104620363Y-44922200D02*
X104525125Y-44969819D01*
X104525125Y-44969819D02*
X104334649Y-44969819D01*
X104334649Y-44969819D02*
X104239411Y-44922200D01*
X104239411Y-44922200D02*
X104191792Y-44826961D01*
X104191792Y-44826961D02*
X104191792Y-44779342D01*
X104191792Y-44779342D02*
X104239411Y-44684104D01*
X104239411Y-44684104D02*
X104334649Y-44636485D01*
X104334649Y-44636485D02*
X104477506Y-44636485D01*
X104477506Y-44636485D02*
X104572744Y-44588866D01*
X104572744Y-44588866D02*
X104620363Y-44493628D01*
X104620363Y-44493628D02*
X104620363Y-44446009D01*
X104620363Y-44446009D02*
X104572744Y-44350771D01*
X104572744Y-44350771D02*
X104477506Y-44303152D01*
X104477506Y-44303152D02*
X104334649Y-44303152D01*
X104334649Y-44303152D02*
X104239411Y-44350771D01*
X103763220Y-44969819D02*
X103763220Y-44303152D01*
X103763220Y-44398390D02*
X103715601Y-44350771D01*
X103715601Y-44350771D02*
X103620363Y-44303152D01*
X103620363Y-44303152D02*
X103477506Y-44303152D01*
X103477506Y-44303152D02*
X103382268Y-44350771D01*
X103382268Y-44350771D02*
X103334649Y-44446009D01*
X103334649Y-44446009D02*
X103334649Y-44969819D01*
X103334649Y-44446009D02*
X103287030Y-44350771D01*
X103287030Y-44350771D02*
X103191792Y-44303152D01*
X103191792Y-44303152D02*
X103048935Y-44303152D01*
X103048935Y-44303152D02*
X102953696Y-44350771D01*
X102953696Y-44350771D02*
X102906077Y-44446009D01*
X102906077Y-44446009D02*
X102906077Y-44969819D01*
X101715602Y-43922200D02*
X102572744Y-45207914D01*
X101382268Y-44969819D02*
X101382268Y-44303152D01*
X101382268Y-44398390D02*
X101334649Y-44350771D01*
X101334649Y-44350771D02*
X101239411Y-44303152D01*
X101239411Y-44303152D02*
X101096554Y-44303152D01*
X101096554Y-44303152D02*
X101001316Y-44350771D01*
X101001316Y-44350771D02*
X100953697Y-44446009D01*
X100953697Y-44446009D02*
X100953697Y-44969819D01*
X100953697Y-44446009D02*
X100906078Y-44350771D01*
X100906078Y-44350771D02*
X100810840Y-44303152D01*
X100810840Y-44303152D02*
X100667983Y-44303152D01*
X100667983Y-44303152D02*
X100572744Y-44350771D01*
X100572744Y-44350771D02*
X100525125Y-44446009D01*
X100525125Y-44446009D02*
X100525125Y-44969819D01*
X99620364Y-44969819D02*
X99620364Y-44446009D01*
X99620364Y-44446009D02*
X99667983Y-44350771D01*
X99667983Y-44350771D02*
X99763221Y-44303152D01*
X99763221Y-44303152D02*
X99953697Y-44303152D01*
X99953697Y-44303152D02*
X100048935Y-44350771D01*
X99620364Y-44922200D02*
X99715602Y-44969819D01*
X99715602Y-44969819D02*
X99953697Y-44969819D01*
X99953697Y-44969819D02*
X100048935Y-44922200D01*
X100048935Y-44922200D02*
X100096554Y-44826961D01*
X100096554Y-44826961D02*
X100096554Y-44731723D01*
X100096554Y-44731723D02*
X100048935Y-44636485D01*
X100048935Y-44636485D02*
X99953697Y-44588866D01*
X99953697Y-44588866D02*
X99715602Y-44588866D01*
X99715602Y-44588866D02*
X99620364Y-44541247D01*
X98715602Y-44969819D02*
X98715602Y-43969819D01*
X98715602Y-44922200D02*
X98810840Y-44969819D01*
X98810840Y-44969819D02*
X99001316Y-44969819D01*
X99001316Y-44969819D02*
X99096554Y-44922200D01*
X99096554Y-44922200D02*
X99144173Y-44874580D01*
X99144173Y-44874580D02*
X99191792Y-44779342D01*
X99191792Y-44779342D02*
X99191792Y-44493628D01*
X99191792Y-44493628D02*
X99144173Y-44398390D01*
X99144173Y-44398390D02*
X99096554Y-44350771D01*
X99096554Y-44350771D02*
X99001316Y-44303152D01*
X99001316Y-44303152D02*
X98810840Y-44303152D01*
X98810840Y-44303152D02*
X98715602Y-44350771D01*
X98239411Y-44303152D02*
X98239411Y-45160295D01*
X98239411Y-45160295D02*
X98287030Y-45255533D01*
X98287030Y-45255533D02*
X98382268Y-45303152D01*
X98382268Y-45303152D02*
X98429887Y-45303152D01*
X98239411Y-43969819D02*
X98287030Y-44017438D01*
X98287030Y-44017438D02*
X98239411Y-44065057D01*
X98239411Y-44065057D02*
X98191792Y-44017438D01*
X98191792Y-44017438D02*
X98239411Y-43969819D01*
X98239411Y-43969819D02*
X98239411Y-44065057D01*
X97334650Y-44969819D02*
X97334650Y-44446009D01*
X97334650Y-44446009D02*
X97382269Y-44350771D01*
X97382269Y-44350771D02*
X97477507Y-44303152D01*
X97477507Y-44303152D02*
X97667983Y-44303152D01*
X97667983Y-44303152D02*
X97763221Y-44350771D01*
X97334650Y-44922200D02*
X97429888Y-44969819D01*
X97429888Y-44969819D02*
X97667983Y-44969819D01*
X97667983Y-44969819D02*
X97763221Y-44922200D01*
X97763221Y-44922200D02*
X97810840Y-44826961D01*
X97810840Y-44826961D02*
X97810840Y-44731723D01*
X97810840Y-44731723D02*
X97763221Y-44636485D01*
X97763221Y-44636485D02*
X97667983Y-44588866D01*
X97667983Y-44588866D02*
X97429888Y-44588866D01*
X97429888Y-44588866D02*
X97334650Y-44541247D01*
X96953697Y-44969819D02*
X96429888Y-44303152D01*
X96953697Y-44303152D02*
X96429888Y-44969819D01*
X96287031Y-45065057D02*
X95525126Y-45065057D01*
X95287030Y-44969819D02*
X95287030Y-44303152D01*
X95287030Y-44398390D02*
X95239411Y-44350771D01*
X95239411Y-44350771D02*
X95144173Y-44303152D01*
X95144173Y-44303152D02*
X95001316Y-44303152D01*
X95001316Y-44303152D02*
X94906078Y-44350771D01*
X94906078Y-44350771D02*
X94858459Y-44446009D01*
X94858459Y-44446009D02*
X94858459Y-44969819D01*
X94858459Y-44446009D02*
X94810840Y-44350771D01*
X94810840Y-44350771D02*
X94715602Y-44303152D01*
X94715602Y-44303152D02*
X94572745Y-44303152D01*
X94572745Y-44303152D02*
X94477506Y-44350771D01*
X94477506Y-44350771D02*
X94429887Y-44446009D01*
X94429887Y-44446009D02*
X94429887Y-44969819D01*
X93525126Y-44969819D02*
X93525126Y-44446009D01*
X93525126Y-44446009D02*
X93572745Y-44350771D01*
X93572745Y-44350771D02*
X93667983Y-44303152D01*
X93667983Y-44303152D02*
X93858459Y-44303152D01*
X93858459Y-44303152D02*
X93953697Y-44350771D01*
X93525126Y-44922200D02*
X93620364Y-44969819D01*
X93620364Y-44969819D02*
X93858459Y-44969819D01*
X93858459Y-44969819D02*
X93953697Y-44922200D01*
X93953697Y-44922200D02*
X94001316Y-44826961D01*
X94001316Y-44826961D02*
X94001316Y-44731723D01*
X94001316Y-44731723D02*
X93953697Y-44636485D01*
X93953697Y-44636485D02*
X93858459Y-44588866D01*
X93858459Y-44588866D02*
X93620364Y-44588866D01*
X93620364Y-44588866D02*
X93525126Y-44541247D01*
X92620364Y-44922200D02*
X92715602Y-44969819D01*
X92715602Y-44969819D02*
X92906078Y-44969819D01*
X92906078Y-44969819D02*
X93001316Y-44922200D01*
X93001316Y-44922200D02*
X93048935Y-44874580D01*
X93048935Y-44874580D02*
X93096554Y-44779342D01*
X93096554Y-44779342D02*
X93096554Y-44493628D01*
X93096554Y-44493628D02*
X93048935Y-44398390D01*
X93048935Y-44398390D02*
X93001316Y-44350771D01*
X93001316Y-44350771D02*
X92906078Y-44303152D01*
X92906078Y-44303152D02*
X92715602Y-44303152D01*
X92715602Y-44303152D02*
X92620364Y-44350771D01*
X92191792Y-44969819D02*
X92191792Y-44303152D01*
X92191792Y-44493628D02*
X92144173Y-44398390D01*
X92144173Y-44398390D02*
X92096554Y-44350771D01*
X92096554Y-44350771D02*
X92001316Y-44303152D01*
X92001316Y-44303152D02*
X91906078Y-44303152D01*
X91429887Y-44969819D02*
X91525125Y-44922200D01*
X91525125Y-44922200D02*
X91572744Y-44874580D01*
X91572744Y-44874580D02*
X91620363Y-44779342D01*
X91620363Y-44779342D02*
X91620363Y-44493628D01*
X91620363Y-44493628D02*
X91572744Y-44398390D01*
X91572744Y-44398390D02*
X91525125Y-44350771D01*
X91525125Y-44350771D02*
X91429887Y-44303152D01*
X91429887Y-44303152D02*
X91287030Y-44303152D01*
X91287030Y-44303152D02*
X91191792Y-44350771D01*
X91191792Y-44350771D02*
X91144173Y-44398390D01*
X91144173Y-44398390D02*
X91096554Y-44493628D01*
X91096554Y-44493628D02*
X91096554Y-44779342D01*
X91096554Y-44779342D02*
X91144173Y-44874580D01*
X91144173Y-44874580D02*
X91191792Y-44922200D01*
X91191792Y-44922200D02*
X91287030Y-44969819D01*
X91287030Y-44969819D02*
X91429887Y-44969819D01*
X90667982Y-44303152D02*
X90667982Y-45303152D01*
X90667982Y-44350771D02*
X90572744Y-44303152D01*
X90572744Y-44303152D02*
X90382268Y-44303152D01*
X90382268Y-44303152D02*
X90287030Y-44350771D01*
X90287030Y-44350771D02*
X90239411Y-44398390D01*
X90239411Y-44398390D02*
X90191792Y-44493628D01*
X90191792Y-44493628D02*
X90191792Y-44779342D01*
X90191792Y-44779342D02*
X90239411Y-44874580D01*
X90239411Y-44874580D02*
X90287030Y-44922200D01*
X90287030Y-44922200D02*
X90382268Y-44969819D01*
X90382268Y-44969819D02*
X90572744Y-44969819D01*
X90572744Y-44969819D02*
X90667982Y-44922200D01*
X89334649Y-44969819D02*
X89334649Y-44446009D01*
X89334649Y-44446009D02*
X89382268Y-44350771D01*
X89382268Y-44350771D02*
X89477506Y-44303152D01*
X89477506Y-44303152D02*
X89667982Y-44303152D01*
X89667982Y-44303152D02*
X89763220Y-44350771D01*
X89334649Y-44922200D02*
X89429887Y-44969819D01*
X89429887Y-44969819D02*
X89667982Y-44969819D01*
X89667982Y-44969819D02*
X89763220Y-44922200D01*
X89763220Y-44922200D02*
X89810839Y-44826961D01*
X89810839Y-44826961D02*
X89810839Y-44731723D01*
X89810839Y-44731723D02*
X89763220Y-44636485D01*
X89763220Y-44636485D02*
X89667982Y-44588866D01*
X89667982Y-44588866D02*
X89429887Y-44588866D01*
X89429887Y-44588866D02*
X89334649Y-44541247D01*
X88429887Y-44969819D02*
X88429887Y-43969819D01*
X88429887Y-44922200D02*
X88525125Y-44969819D01*
X88525125Y-44969819D02*
X88715601Y-44969819D01*
X88715601Y-44969819D02*
X88810839Y-44922200D01*
X88810839Y-44922200D02*
X88858458Y-44874580D01*
X88858458Y-44874580D02*
X88906077Y-44779342D01*
X88906077Y-44779342D02*
X88906077Y-44493628D01*
X88906077Y-44493628D02*
X88858458Y-44398390D01*
X88858458Y-44398390D02*
X88810839Y-44350771D01*
X88810839Y-44350771D02*
X88715601Y-44303152D01*
X88715601Y-44303152D02*
X88525125Y-44303152D01*
X88525125Y-44303152D02*
X88429887Y-44350771D01*
X87417438Y-33860588D02*
X87369819Y-33765350D01*
X87369819Y-33765350D02*
X87369819Y-33622493D01*
X87369819Y-33622493D02*
X87417438Y-33479636D01*
X87417438Y-33479636D02*
X87512676Y-33384398D01*
X87512676Y-33384398D02*
X87607914Y-33336779D01*
X87607914Y-33336779D02*
X87798390Y-33289160D01*
X87798390Y-33289160D02*
X87941247Y-33289160D01*
X87941247Y-33289160D02*
X88131723Y-33336779D01*
X88131723Y-33336779D02*
X88226961Y-33384398D01*
X88226961Y-33384398D02*
X88322200Y-33479636D01*
X88322200Y-33479636D02*
X88369819Y-33622493D01*
X88369819Y-33622493D02*
X88369819Y-33717731D01*
X88369819Y-33717731D02*
X88322200Y-33860588D01*
X88322200Y-33860588D02*
X88274580Y-33908207D01*
X88274580Y-33908207D02*
X87941247Y-33908207D01*
X87941247Y-33908207D02*
X87941247Y-33717731D01*
X88369819Y-34336779D02*
X87369819Y-34336779D01*
X87369819Y-34336779D02*
X88369819Y-34908207D01*
X88369819Y-34908207D02*
X87369819Y-34908207D01*
X88369819Y-35384398D02*
X87369819Y-35384398D01*
X87369819Y-35384398D02*
X87369819Y-35622493D01*
X87369819Y-35622493D02*
X87417438Y-35765350D01*
X87417438Y-35765350D02*
X87512676Y-35860588D01*
X87512676Y-35860588D02*
X87607914Y-35908207D01*
X87607914Y-35908207D02*
X87798390Y-35955826D01*
X87798390Y-35955826D02*
X87941247Y-35955826D01*
X87941247Y-35955826D02*
X88131723Y-35908207D01*
X88131723Y-35908207D02*
X88226961Y-35860588D01*
X88226961Y-35860588D02*
X88322200Y-35765350D01*
X88322200Y-35765350D02*
X88369819Y-35622493D01*
X88369819Y-35622493D02*
X88369819Y-35384398D01*
X85869819Y-52836779D02*
X84869819Y-52836779D01*
X84869819Y-52836779D02*
X84869819Y-53074874D01*
X84869819Y-53074874D02*
X84917438Y-53217731D01*
X84917438Y-53217731D02*
X85012676Y-53312969D01*
X85012676Y-53312969D02*
X85107914Y-53360588D01*
X85107914Y-53360588D02*
X85298390Y-53408207D01*
X85298390Y-53408207D02*
X85441247Y-53408207D01*
X85441247Y-53408207D02*
X85631723Y-53360588D01*
X85631723Y-53360588D02*
X85726961Y-53312969D01*
X85726961Y-53312969D02*
X85822200Y-53217731D01*
X85822200Y-53217731D02*
X85869819Y-53074874D01*
X85869819Y-53074874D02*
X85869819Y-52836779D01*
X84869819Y-54027255D02*
X84869819Y-54217731D01*
X84869819Y-54217731D02*
X84917438Y-54312969D01*
X84917438Y-54312969D02*
X85012676Y-54408207D01*
X85012676Y-54408207D02*
X85203152Y-54455826D01*
X85203152Y-54455826D02*
X85536485Y-54455826D01*
X85536485Y-54455826D02*
X85726961Y-54408207D01*
X85726961Y-54408207D02*
X85822200Y-54312969D01*
X85822200Y-54312969D02*
X85869819Y-54217731D01*
X85869819Y-54217731D02*
X85869819Y-54027255D01*
X85869819Y-54027255D02*
X85822200Y-53932017D01*
X85822200Y-53932017D02*
X85726961Y-53836779D01*
X85726961Y-53836779D02*
X85536485Y-53789160D01*
X85536485Y-53789160D02*
X85203152Y-53789160D01*
X85203152Y-53789160D02*
X85012676Y-53836779D01*
X85012676Y-53836779D02*
X84917438Y-53932017D01*
X84917438Y-53932017D02*
X84869819Y-54027255D01*
X134767982Y-34925767D02*
X134834649Y-34992434D01*
X134834649Y-34992434D02*
X135034649Y-35059100D01*
X135034649Y-35059100D02*
X135167982Y-35059100D01*
X135167982Y-35059100D02*
X135367982Y-34992434D01*
X135367982Y-34992434D02*
X135501316Y-34859100D01*
X135501316Y-34859100D02*
X135567982Y-34725767D01*
X135567982Y-34725767D02*
X135634649Y-34459100D01*
X135634649Y-34459100D02*
X135634649Y-34259100D01*
X135634649Y-34259100D02*
X135567982Y-33992434D01*
X135567982Y-33992434D02*
X135501316Y-33859100D01*
X135501316Y-33859100D02*
X135367982Y-33725767D01*
X135367982Y-33725767D02*
X135167982Y-33659100D01*
X135167982Y-33659100D02*
X135034649Y-33659100D01*
X135034649Y-33659100D02*
X134834649Y-33725767D01*
X134834649Y-33725767D02*
X134767982Y-33792434D01*
X133967982Y-35059100D02*
X134101316Y-34992434D01*
X134101316Y-34992434D02*
X134167982Y-34925767D01*
X134167982Y-34925767D02*
X134234649Y-34792434D01*
X134234649Y-34792434D02*
X134234649Y-34392434D01*
X134234649Y-34392434D02*
X134167982Y-34259100D01*
X134167982Y-34259100D02*
X134101316Y-34192434D01*
X134101316Y-34192434D02*
X133967982Y-34125767D01*
X133967982Y-34125767D02*
X133767982Y-34125767D01*
X133767982Y-34125767D02*
X133634649Y-34192434D01*
X133634649Y-34192434D02*
X133567982Y-34259100D01*
X133567982Y-34259100D02*
X133501316Y-34392434D01*
X133501316Y-34392434D02*
X133501316Y-34792434D01*
X133501316Y-34792434D02*
X133567982Y-34925767D01*
X133567982Y-34925767D02*
X133634649Y-34992434D01*
X133634649Y-34992434D02*
X133767982Y-35059100D01*
X133767982Y-35059100D02*
X133967982Y-35059100D01*
X132701315Y-35059100D02*
X132834649Y-34992434D01*
X132834649Y-34992434D02*
X132901315Y-34859100D01*
X132901315Y-34859100D02*
X132901315Y-33659100D01*
X130367982Y-35059100D02*
X131167982Y-35059100D01*
X130767982Y-35059100D02*
X130767982Y-33659100D01*
X130767982Y-33659100D02*
X130901315Y-33859100D01*
X130901315Y-33859100D02*
X131034649Y-33992434D01*
X131034649Y-33992434D02*
X131167982Y-34059100D01*
X129767982Y-34925767D02*
X129701316Y-34992434D01*
X129701316Y-34992434D02*
X129767982Y-35059100D01*
X129767982Y-35059100D02*
X129834649Y-34992434D01*
X129834649Y-34992434D02*
X129767982Y-34925767D01*
X129767982Y-34925767D02*
X129767982Y-35059100D01*
X129767982Y-34192434D02*
X129701316Y-34259100D01*
X129701316Y-34259100D02*
X129767982Y-34325767D01*
X129767982Y-34325767D02*
X129834649Y-34259100D01*
X129834649Y-34259100D02*
X129767982Y-34192434D01*
X129767982Y-34192434D02*
X129767982Y-34325767D01*
X128034648Y-35059100D02*
X128034648Y-33659100D01*
X128034648Y-33659100D02*
X127701315Y-33659100D01*
X127701315Y-33659100D02*
X127501315Y-33725767D01*
X127501315Y-33725767D02*
X127367982Y-33859100D01*
X127367982Y-33859100D02*
X127301315Y-33992434D01*
X127301315Y-33992434D02*
X127234648Y-34259100D01*
X127234648Y-34259100D02*
X127234648Y-34459100D01*
X127234648Y-34459100D02*
X127301315Y-34725767D01*
X127301315Y-34725767D02*
X127367982Y-34859100D01*
X127367982Y-34859100D02*
X127501315Y-34992434D01*
X127501315Y-34992434D02*
X127701315Y-35059100D01*
X127701315Y-35059100D02*
X128034648Y-35059100D01*
X126367982Y-33659100D02*
X126234648Y-33659100D01*
X126234648Y-33659100D02*
X126101315Y-33725767D01*
X126101315Y-33725767D02*
X126034648Y-33792434D01*
X126034648Y-33792434D02*
X125967982Y-33925767D01*
X125967982Y-33925767D02*
X125901315Y-34192434D01*
X125901315Y-34192434D02*
X125901315Y-34525767D01*
X125901315Y-34525767D02*
X125967982Y-34792434D01*
X125967982Y-34792434D02*
X126034648Y-34925767D01*
X126034648Y-34925767D02*
X126101315Y-34992434D01*
X126101315Y-34992434D02*
X126234648Y-35059100D01*
X126234648Y-35059100D02*
X126367982Y-35059100D01*
X126367982Y-35059100D02*
X126501315Y-34992434D01*
X126501315Y-34992434D02*
X126567982Y-34925767D01*
X126567982Y-34925767D02*
X126634648Y-34792434D01*
X126634648Y-34792434D02*
X126701315Y-34525767D01*
X126701315Y-34525767D02*
X126701315Y-34192434D01*
X126701315Y-34192434D02*
X126634648Y-33925767D01*
X126634648Y-33925767D02*
X126567982Y-33792434D01*
X126567982Y-33792434D02*
X126501315Y-33725767D01*
X126501315Y-33725767D02*
X126367982Y-33659100D01*
X123834648Y-35592434D02*
X123901315Y-35525767D01*
X123901315Y-35525767D02*
X124034648Y-35325767D01*
X124034648Y-35325767D02*
X124101315Y-35192434D01*
X124101315Y-35192434D02*
X124167982Y-34992434D01*
X124167982Y-34992434D02*
X124234648Y-34659100D01*
X124234648Y-34659100D02*
X124234648Y-34392434D01*
X124234648Y-34392434D02*
X124167982Y-34059100D01*
X124167982Y-34059100D02*
X124101315Y-33859100D01*
X124101315Y-33859100D02*
X124034648Y-33725767D01*
X124034648Y-33725767D02*
X123901315Y-33525767D01*
X123901315Y-33525767D02*
X123834648Y-33459100D01*
X122567982Y-33725767D02*
X122701315Y-33659100D01*
X122701315Y-33659100D02*
X122901315Y-33659100D01*
X122901315Y-33659100D02*
X123101315Y-33725767D01*
X123101315Y-33725767D02*
X123234649Y-33859100D01*
X123234649Y-33859100D02*
X123301315Y-33992434D01*
X123301315Y-33992434D02*
X123367982Y-34259100D01*
X123367982Y-34259100D02*
X123367982Y-34459100D01*
X123367982Y-34459100D02*
X123301315Y-34725767D01*
X123301315Y-34725767D02*
X123234649Y-34859100D01*
X123234649Y-34859100D02*
X123101315Y-34992434D01*
X123101315Y-34992434D02*
X122901315Y-35059100D01*
X122901315Y-35059100D02*
X122767982Y-35059100D01*
X122767982Y-35059100D02*
X122567982Y-34992434D01*
X122567982Y-34992434D02*
X122501315Y-34925767D01*
X122501315Y-34925767D02*
X122501315Y-34459100D01*
X122501315Y-34459100D02*
X122767982Y-34459100D01*
X121901315Y-35059100D02*
X121901315Y-33659100D01*
X121901315Y-33659100D02*
X121367982Y-33659100D01*
X121367982Y-33659100D02*
X121234649Y-33725767D01*
X121234649Y-33725767D02*
X121167982Y-33792434D01*
X121167982Y-33792434D02*
X121101315Y-33925767D01*
X121101315Y-33925767D02*
X121101315Y-34125767D01*
X121101315Y-34125767D02*
X121167982Y-34259100D01*
X121167982Y-34259100D02*
X121234649Y-34325767D01*
X121234649Y-34325767D02*
X121367982Y-34392434D01*
X121367982Y-34392434D02*
X121901315Y-34392434D01*
X120567982Y-33792434D02*
X120501315Y-33725767D01*
X120501315Y-33725767D02*
X120367982Y-33659100D01*
X120367982Y-33659100D02*
X120034649Y-33659100D01*
X120034649Y-33659100D02*
X119901315Y-33725767D01*
X119901315Y-33725767D02*
X119834649Y-33792434D01*
X119834649Y-33792434D02*
X119767982Y-33925767D01*
X119767982Y-33925767D02*
X119767982Y-34059100D01*
X119767982Y-34059100D02*
X119834649Y-34259100D01*
X119834649Y-34259100D02*
X120634649Y-35059100D01*
X120634649Y-35059100D02*
X119767982Y-35059100D01*
X118567982Y-33659100D02*
X118834649Y-33659100D01*
X118834649Y-33659100D02*
X118967982Y-33725767D01*
X118967982Y-33725767D02*
X119034649Y-33792434D01*
X119034649Y-33792434D02*
X119167982Y-33992434D01*
X119167982Y-33992434D02*
X119234649Y-34259100D01*
X119234649Y-34259100D02*
X119234649Y-34792434D01*
X119234649Y-34792434D02*
X119167982Y-34925767D01*
X119167982Y-34925767D02*
X119101316Y-34992434D01*
X119101316Y-34992434D02*
X118967982Y-35059100D01*
X118967982Y-35059100D02*
X118701316Y-35059100D01*
X118701316Y-35059100D02*
X118567982Y-34992434D01*
X118567982Y-34992434D02*
X118501316Y-34925767D01*
X118501316Y-34925767D02*
X118434649Y-34792434D01*
X118434649Y-34792434D02*
X118434649Y-34459100D01*
X118434649Y-34459100D02*
X118501316Y-34325767D01*
X118501316Y-34325767D02*
X118567982Y-34259100D01*
X118567982Y-34259100D02*
X118701316Y-34192434D01*
X118701316Y-34192434D02*
X118967982Y-34192434D01*
X118967982Y-34192434D02*
X119101316Y-34259100D01*
X119101316Y-34259100D02*
X119167982Y-34325767D01*
X119167982Y-34325767D02*
X119234649Y-34459100D01*
X117967983Y-35592434D02*
X117901316Y-35525767D01*
X117901316Y-35525767D02*
X117767983Y-35325767D01*
X117767983Y-35325767D02*
X117701316Y-35192434D01*
X117701316Y-35192434D02*
X117634649Y-34992434D01*
X117634649Y-34992434D02*
X117567983Y-34659100D01*
X117567983Y-34659100D02*
X117567983Y-34392434D01*
X117567983Y-34392434D02*
X117634649Y-34059100D01*
X117634649Y-34059100D02*
X117701316Y-33859100D01*
X117701316Y-33859100D02*
X117767983Y-33725767D01*
X117767983Y-33725767D02*
X117901316Y-33525767D01*
X117901316Y-33525767D02*
X117967983Y-33459100D01*
X134767982Y-37179689D02*
X134834649Y-37246356D01*
X134834649Y-37246356D02*
X135034649Y-37313022D01*
X135034649Y-37313022D02*
X135167982Y-37313022D01*
X135167982Y-37313022D02*
X135367982Y-37246356D01*
X135367982Y-37246356D02*
X135501316Y-37113022D01*
X135501316Y-37113022D02*
X135567982Y-36979689D01*
X135567982Y-36979689D02*
X135634649Y-36713022D01*
X135634649Y-36713022D02*
X135634649Y-36513022D01*
X135634649Y-36513022D02*
X135567982Y-36246356D01*
X135567982Y-36246356D02*
X135501316Y-36113022D01*
X135501316Y-36113022D02*
X135367982Y-35979689D01*
X135367982Y-35979689D02*
X135167982Y-35913022D01*
X135167982Y-35913022D02*
X135034649Y-35913022D01*
X135034649Y-35913022D02*
X134834649Y-35979689D01*
X134834649Y-35979689D02*
X134767982Y-36046356D01*
X133967982Y-37313022D02*
X134101316Y-37246356D01*
X134101316Y-37246356D02*
X134167982Y-37179689D01*
X134167982Y-37179689D02*
X134234649Y-37046356D01*
X134234649Y-37046356D02*
X134234649Y-36646356D01*
X134234649Y-36646356D02*
X134167982Y-36513022D01*
X134167982Y-36513022D02*
X134101316Y-36446356D01*
X134101316Y-36446356D02*
X133967982Y-36379689D01*
X133967982Y-36379689D02*
X133767982Y-36379689D01*
X133767982Y-36379689D02*
X133634649Y-36446356D01*
X133634649Y-36446356D02*
X133567982Y-36513022D01*
X133567982Y-36513022D02*
X133501316Y-36646356D01*
X133501316Y-36646356D02*
X133501316Y-37046356D01*
X133501316Y-37046356D02*
X133567982Y-37179689D01*
X133567982Y-37179689D02*
X133634649Y-37246356D01*
X133634649Y-37246356D02*
X133767982Y-37313022D01*
X133767982Y-37313022D02*
X133967982Y-37313022D01*
X132701315Y-37313022D02*
X132834649Y-37246356D01*
X132834649Y-37246356D02*
X132901315Y-37113022D01*
X132901315Y-37113022D02*
X132901315Y-35913022D01*
X131167982Y-36046356D02*
X131101315Y-35979689D01*
X131101315Y-35979689D02*
X130967982Y-35913022D01*
X130967982Y-35913022D02*
X130634649Y-35913022D01*
X130634649Y-35913022D02*
X130501315Y-35979689D01*
X130501315Y-35979689D02*
X130434649Y-36046356D01*
X130434649Y-36046356D02*
X130367982Y-36179689D01*
X130367982Y-36179689D02*
X130367982Y-36313022D01*
X130367982Y-36313022D02*
X130434649Y-36513022D01*
X130434649Y-36513022D02*
X131234649Y-37313022D01*
X131234649Y-37313022D02*
X130367982Y-37313022D01*
X129767982Y-37179689D02*
X129701316Y-37246356D01*
X129701316Y-37246356D02*
X129767982Y-37313022D01*
X129767982Y-37313022D02*
X129834649Y-37246356D01*
X129834649Y-37246356D02*
X129767982Y-37179689D01*
X129767982Y-37179689D02*
X129767982Y-37313022D01*
X129767982Y-36446356D02*
X129701316Y-36513022D01*
X129701316Y-36513022D02*
X129767982Y-36579689D01*
X129767982Y-36579689D02*
X129834649Y-36513022D01*
X129834649Y-36513022D02*
X129767982Y-36446356D01*
X129767982Y-36446356D02*
X129767982Y-36579689D01*
X128034648Y-37313022D02*
X128034648Y-35913022D01*
X128034648Y-35913022D02*
X127701315Y-35913022D01*
X127701315Y-35913022D02*
X127501315Y-35979689D01*
X127501315Y-35979689D02*
X127367982Y-36113022D01*
X127367982Y-36113022D02*
X127301315Y-36246356D01*
X127301315Y-36246356D02*
X127234648Y-36513022D01*
X127234648Y-36513022D02*
X127234648Y-36713022D01*
X127234648Y-36713022D02*
X127301315Y-36979689D01*
X127301315Y-36979689D02*
X127367982Y-37113022D01*
X127367982Y-37113022D02*
X127501315Y-37246356D01*
X127501315Y-37246356D02*
X127701315Y-37313022D01*
X127701315Y-37313022D02*
X128034648Y-37313022D01*
X125901315Y-37313022D02*
X126701315Y-37313022D01*
X126301315Y-37313022D02*
X126301315Y-35913022D01*
X126301315Y-35913022D02*
X126434648Y-36113022D01*
X126434648Y-36113022D02*
X126567982Y-36246356D01*
X126567982Y-36246356D02*
X126701315Y-36313022D01*
X123834648Y-37846356D02*
X123901315Y-37779689D01*
X123901315Y-37779689D02*
X124034648Y-37579689D01*
X124034648Y-37579689D02*
X124101315Y-37446356D01*
X124101315Y-37446356D02*
X124167982Y-37246356D01*
X124167982Y-37246356D02*
X124234648Y-36913022D01*
X124234648Y-36913022D02*
X124234648Y-36646356D01*
X124234648Y-36646356D02*
X124167982Y-36313022D01*
X124167982Y-36313022D02*
X124101315Y-36113022D01*
X124101315Y-36113022D02*
X124034648Y-35979689D01*
X124034648Y-35979689D02*
X123901315Y-35779689D01*
X123901315Y-35779689D02*
X123834648Y-35713022D01*
X122567982Y-35979689D02*
X122701315Y-35913022D01*
X122701315Y-35913022D02*
X122901315Y-35913022D01*
X122901315Y-35913022D02*
X123101315Y-35979689D01*
X123101315Y-35979689D02*
X123234649Y-36113022D01*
X123234649Y-36113022D02*
X123301315Y-36246356D01*
X123301315Y-36246356D02*
X123367982Y-36513022D01*
X123367982Y-36513022D02*
X123367982Y-36713022D01*
X123367982Y-36713022D02*
X123301315Y-36979689D01*
X123301315Y-36979689D02*
X123234649Y-37113022D01*
X123234649Y-37113022D02*
X123101315Y-37246356D01*
X123101315Y-37246356D02*
X122901315Y-37313022D01*
X122901315Y-37313022D02*
X122767982Y-37313022D01*
X122767982Y-37313022D02*
X122567982Y-37246356D01*
X122567982Y-37246356D02*
X122501315Y-37179689D01*
X122501315Y-37179689D02*
X122501315Y-36713022D01*
X122501315Y-36713022D02*
X122767982Y-36713022D01*
X121901315Y-37313022D02*
X121901315Y-35913022D01*
X121901315Y-35913022D02*
X121367982Y-35913022D01*
X121367982Y-35913022D02*
X121234649Y-35979689D01*
X121234649Y-35979689D02*
X121167982Y-36046356D01*
X121167982Y-36046356D02*
X121101315Y-36179689D01*
X121101315Y-36179689D02*
X121101315Y-36379689D01*
X121101315Y-36379689D02*
X121167982Y-36513022D01*
X121167982Y-36513022D02*
X121234649Y-36579689D01*
X121234649Y-36579689D02*
X121367982Y-36646356D01*
X121367982Y-36646356D02*
X121901315Y-36646356D01*
X120567982Y-36046356D02*
X120501315Y-35979689D01*
X120501315Y-35979689D02*
X120367982Y-35913022D01*
X120367982Y-35913022D02*
X120034649Y-35913022D01*
X120034649Y-35913022D02*
X119901315Y-35979689D01*
X119901315Y-35979689D02*
X119834649Y-36046356D01*
X119834649Y-36046356D02*
X119767982Y-36179689D01*
X119767982Y-36179689D02*
X119767982Y-36313022D01*
X119767982Y-36313022D02*
X119834649Y-36513022D01*
X119834649Y-36513022D02*
X120634649Y-37313022D01*
X120634649Y-37313022D02*
X119767982Y-37313022D01*
X119301316Y-35913022D02*
X118367982Y-35913022D01*
X118367982Y-35913022D02*
X118967982Y-37313022D01*
X117967983Y-37846356D02*
X117901316Y-37779689D01*
X117901316Y-37779689D02*
X117767983Y-37579689D01*
X117767983Y-37579689D02*
X117701316Y-37446356D01*
X117701316Y-37446356D02*
X117634649Y-37246356D01*
X117634649Y-37246356D02*
X117567983Y-36913022D01*
X117567983Y-36913022D02*
X117567983Y-36646356D01*
X117567983Y-36646356D02*
X117634649Y-36313022D01*
X117634649Y-36313022D02*
X117701316Y-36113022D01*
X117701316Y-36113022D02*
X117767983Y-35979689D01*
X117767983Y-35979689D02*
X117901316Y-35779689D01*
X117901316Y-35779689D02*
X117967983Y-35713022D01*
X134767982Y-39433611D02*
X134834649Y-39500278D01*
X134834649Y-39500278D02*
X135034649Y-39566944D01*
X135034649Y-39566944D02*
X135167982Y-39566944D01*
X135167982Y-39566944D02*
X135367982Y-39500278D01*
X135367982Y-39500278D02*
X135501316Y-39366944D01*
X135501316Y-39366944D02*
X135567982Y-39233611D01*
X135567982Y-39233611D02*
X135634649Y-38966944D01*
X135634649Y-38966944D02*
X135634649Y-38766944D01*
X135634649Y-38766944D02*
X135567982Y-38500278D01*
X135567982Y-38500278D02*
X135501316Y-38366944D01*
X135501316Y-38366944D02*
X135367982Y-38233611D01*
X135367982Y-38233611D02*
X135167982Y-38166944D01*
X135167982Y-38166944D02*
X135034649Y-38166944D01*
X135034649Y-38166944D02*
X134834649Y-38233611D01*
X134834649Y-38233611D02*
X134767982Y-38300278D01*
X133967982Y-39566944D02*
X134101316Y-39500278D01*
X134101316Y-39500278D02*
X134167982Y-39433611D01*
X134167982Y-39433611D02*
X134234649Y-39300278D01*
X134234649Y-39300278D02*
X134234649Y-38900278D01*
X134234649Y-38900278D02*
X134167982Y-38766944D01*
X134167982Y-38766944D02*
X134101316Y-38700278D01*
X134101316Y-38700278D02*
X133967982Y-38633611D01*
X133967982Y-38633611D02*
X133767982Y-38633611D01*
X133767982Y-38633611D02*
X133634649Y-38700278D01*
X133634649Y-38700278D02*
X133567982Y-38766944D01*
X133567982Y-38766944D02*
X133501316Y-38900278D01*
X133501316Y-38900278D02*
X133501316Y-39300278D01*
X133501316Y-39300278D02*
X133567982Y-39433611D01*
X133567982Y-39433611D02*
X133634649Y-39500278D01*
X133634649Y-39500278D02*
X133767982Y-39566944D01*
X133767982Y-39566944D02*
X133967982Y-39566944D01*
X132701315Y-39566944D02*
X132834649Y-39500278D01*
X132834649Y-39500278D02*
X132901315Y-39366944D01*
X132901315Y-39366944D02*
X132901315Y-38166944D01*
X131234649Y-38166944D02*
X130367982Y-38166944D01*
X130367982Y-38166944D02*
X130834649Y-38700278D01*
X130834649Y-38700278D02*
X130634649Y-38700278D01*
X130634649Y-38700278D02*
X130501315Y-38766944D01*
X130501315Y-38766944D02*
X130434649Y-38833611D01*
X130434649Y-38833611D02*
X130367982Y-38966944D01*
X130367982Y-38966944D02*
X130367982Y-39300278D01*
X130367982Y-39300278D02*
X130434649Y-39433611D01*
X130434649Y-39433611D02*
X130501315Y-39500278D01*
X130501315Y-39500278D02*
X130634649Y-39566944D01*
X130634649Y-39566944D02*
X131034649Y-39566944D01*
X131034649Y-39566944D02*
X131167982Y-39500278D01*
X131167982Y-39500278D02*
X131234649Y-39433611D01*
X129767982Y-39433611D02*
X129701316Y-39500278D01*
X129701316Y-39500278D02*
X129767982Y-39566944D01*
X129767982Y-39566944D02*
X129834649Y-39500278D01*
X129834649Y-39500278D02*
X129767982Y-39433611D01*
X129767982Y-39433611D02*
X129767982Y-39566944D01*
X129767982Y-38700278D02*
X129701316Y-38766944D01*
X129701316Y-38766944D02*
X129767982Y-38833611D01*
X129767982Y-38833611D02*
X129834649Y-38766944D01*
X129834649Y-38766944D02*
X129767982Y-38700278D01*
X129767982Y-38700278D02*
X129767982Y-38833611D01*
X128034648Y-39566944D02*
X128034648Y-38166944D01*
X128034648Y-38166944D02*
X127701315Y-38166944D01*
X127701315Y-38166944D02*
X127501315Y-38233611D01*
X127501315Y-38233611D02*
X127367982Y-38366944D01*
X127367982Y-38366944D02*
X127301315Y-38500278D01*
X127301315Y-38500278D02*
X127234648Y-38766944D01*
X127234648Y-38766944D02*
X127234648Y-38966944D01*
X127234648Y-38966944D02*
X127301315Y-39233611D01*
X127301315Y-39233611D02*
X127367982Y-39366944D01*
X127367982Y-39366944D02*
X127501315Y-39500278D01*
X127501315Y-39500278D02*
X127701315Y-39566944D01*
X127701315Y-39566944D02*
X128034648Y-39566944D01*
X126701315Y-38300278D02*
X126634648Y-38233611D01*
X126634648Y-38233611D02*
X126501315Y-38166944D01*
X126501315Y-38166944D02*
X126167982Y-38166944D01*
X126167982Y-38166944D02*
X126034648Y-38233611D01*
X126034648Y-38233611D02*
X125967982Y-38300278D01*
X125967982Y-38300278D02*
X125901315Y-38433611D01*
X125901315Y-38433611D02*
X125901315Y-38566944D01*
X125901315Y-38566944D02*
X125967982Y-38766944D01*
X125967982Y-38766944D02*
X126767982Y-39566944D01*
X126767982Y-39566944D02*
X125901315Y-39566944D01*
X123834648Y-40100278D02*
X123901315Y-40033611D01*
X123901315Y-40033611D02*
X124034648Y-39833611D01*
X124034648Y-39833611D02*
X124101315Y-39700278D01*
X124101315Y-39700278D02*
X124167982Y-39500278D01*
X124167982Y-39500278D02*
X124234648Y-39166944D01*
X124234648Y-39166944D02*
X124234648Y-38900278D01*
X124234648Y-38900278D02*
X124167982Y-38566944D01*
X124167982Y-38566944D02*
X124101315Y-38366944D01*
X124101315Y-38366944D02*
X124034648Y-38233611D01*
X124034648Y-38233611D02*
X123901315Y-38033611D01*
X123901315Y-38033611D02*
X123834648Y-37966944D01*
X122567982Y-38233611D02*
X122701315Y-38166944D01*
X122701315Y-38166944D02*
X122901315Y-38166944D01*
X122901315Y-38166944D02*
X123101315Y-38233611D01*
X123101315Y-38233611D02*
X123234649Y-38366944D01*
X123234649Y-38366944D02*
X123301315Y-38500278D01*
X123301315Y-38500278D02*
X123367982Y-38766944D01*
X123367982Y-38766944D02*
X123367982Y-38966944D01*
X123367982Y-38966944D02*
X123301315Y-39233611D01*
X123301315Y-39233611D02*
X123234649Y-39366944D01*
X123234649Y-39366944D02*
X123101315Y-39500278D01*
X123101315Y-39500278D02*
X122901315Y-39566944D01*
X122901315Y-39566944D02*
X122767982Y-39566944D01*
X122767982Y-39566944D02*
X122567982Y-39500278D01*
X122567982Y-39500278D02*
X122501315Y-39433611D01*
X122501315Y-39433611D02*
X122501315Y-38966944D01*
X122501315Y-38966944D02*
X122767982Y-38966944D01*
X121901315Y-39566944D02*
X121901315Y-38166944D01*
X121901315Y-38166944D02*
X121367982Y-38166944D01*
X121367982Y-38166944D02*
X121234649Y-38233611D01*
X121234649Y-38233611D02*
X121167982Y-38300278D01*
X121167982Y-38300278D02*
X121101315Y-38433611D01*
X121101315Y-38433611D02*
X121101315Y-38633611D01*
X121101315Y-38633611D02*
X121167982Y-38766944D01*
X121167982Y-38766944D02*
X121234649Y-38833611D01*
X121234649Y-38833611D02*
X121367982Y-38900278D01*
X121367982Y-38900278D02*
X121901315Y-38900278D01*
X120567982Y-38300278D02*
X120501315Y-38233611D01*
X120501315Y-38233611D02*
X120367982Y-38166944D01*
X120367982Y-38166944D02*
X120034649Y-38166944D01*
X120034649Y-38166944D02*
X119901315Y-38233611D01*
X119901315Y-38233611D02*
X119834649Y-38300278D01*
X119834649Y-38300278D02*
X119767982Y-38433611D01*
X119767982Y-38433611D02*
X119767982Y-38566944D01*
X119767982Y-38566944D02*
X119834649Y-38766944D01*
X119834649Y-38766944D02*
X120634649Y-39566944D01*
X120634649Y-39566944D02*
X119767982Y-39566944D01*
X118967982Y-38766944D02*
X119101316Y-38700278D01*
X119101316Y-38700278D02*
X119167982Y-38633611D01*
X119167982Y-38633611D02*
X119234649Y-38500278D01*
X119234649Y-38500278D02*
X119234649Y-38433611D01*
X119234649Y-38433611D02*
X119167982Y-38300278D01*
X119167982Y-38300278D02*
X119101316Y-38233611D01*
X119101316Y-38233611D02*
X118967982Y-38166944D01*
X118967982Y-38166944D02*
X118701316Y-38166944D01*
X118701316Y-38166944D02*
X118567982Y-38233611D01*
X118567982Y-38233611D02*
X118501316Y-38300278D01*
X118501316Y-38300278D02*
X118434649Y-38433611D01*
X118434649Y-38433611D02*
X118434649Y-38500278D01*
X118434649Y-38500278D02*
X118501316Y-38633611D01*
X118501316Y-38633611D02*
X118567982Y-38700278D01*
X118567982Y-38700278D02*
X118701316Y-38766944D01*
X118701316Y-38766944D02*
X118967982Y-38766944D01*
X118967982Y-38766944D02*
X119101316Y-38833611D01*
X119101316Y-38833611D02*
X119167982Y-38900278D01*
X119167982Y-38900278D02*
X119234649Y-39033611D01*
X119234649Y-39033611D02*
X119234649Y-39300278D01*
X119234649Y-39300278D02*
X119167982Y-39433611D01*
X119167982Y-39433611D02*
X119101316Y-39500278D01*
X119101316Y-39500278D02*
X118967982Y-39566944D01*
X118967982Y-39566944D02*
X118701316Y-39566944D01*
X118701316Y-39566944D02*
X118567982Y-39500278D01*
X118567982Y-39500278D02*
X118501316Y-39433611D01*
X118501316Y-39433611D02*
X118434649Y-39300278D01*
X118434649Y-39300278D02*
X118434649Y-39033611D01*
X118434649Y-39033611D02*
X118501316Y-38900278D01*
X118501316Y-38900278D02*
X118567982Y-38833611D01*
X118567982Y-38833611D02*
X118701316Y-38766944D01*
X117967983Y-40100278D02*
X117901316Y-40033611D01*
X117901316Y-40033611D02*
X117767983Y-39833611D01*
X117767983Y-39833611D02*
X117701316Y-39700278D01*
X117701316Y-39700278D02*
X117634649Y-39500278D01*
X117634649Y-39500278D02*
X117567983Y-39166944D01*
X117567983Y-39166944D02*
X117567983Y-38900278D01*
X117567983Y-38900278D02*
X117634649Y-38566944D01*
X117634649Y-38566944D02*
X117701316Y-38366944D01*
X117701316Y-38366944D02*
X117767983Y-38233611D01*
X117767983Y-38233611D02*
X117901316Y-38033611D01*
X117901316Y-38033611D02*
X117967983Y-37966944D01*
X134767982Y-41687533D02*
X134834649Y-41754200D01*
X134834649Y-41754200D02*
X135034649Y-41820866D01*
X135034649Y-41820866D02*
X135167982Y-41820866D01*
X135167982Y-41820866D02*
X135367982Y-41754200D01*
X135367982Y-41754200D02*
X135501316Y-41620866D01*
X135501316Y-41620866D02*
X135567982Y-41487533D01*
X135567982Y-41487533D02*
X135634649Y-41220866D01*
X135634649Y-41220866D02*
X135634649Y-41020866D01*
X135634649Y-41020866D02*
X135567982Y-40754200D01*
X135567982Y-40754200D02*
X135501316Y-40620866D01*
X135501316Y-40620866D02*
X135367982Y-40487533D01*
X135367982Y-40487533D02*
X135167982Y-40420866D01*
X135167982Y-40420866D02*
X135034649Y-40420866D01*
X135034649Y-40420866D02*
X134834649Y-40487533D01*
X134834649Y-40487533D02*
X134767982Y-40554200D01*
X133967982Y-41820866D02*
X134101316Y-41754200D01*
X134101316Y-41754200D02*
X134167982Y-41687533D01*
X134167982Y-41687533D02*
X134234649Y-41554200D01*
X134234649Y-41554200D02*
X134234649Y-41154200D01*
X134234649Y-41154200D02*
X134167982Y-41020866D01*
X134167982Y-41020866D02*
X134101316Y-40954200D01*
X134101316Y-40954200D02*
X133967982Y-40887533D01*
X133967982Y-40887533D02*
X133767982Y-40887533D01*
X133767982Y-40887533D02*
X133634649Y-40954200D01*
X133634649Y-40954200D02*
X133567982Y-41020866D01*
X133567982Y-41020866D02*
X133501316Y-41154200D01*
X133501316Y-41154200D02*
X133501316Y-41554200D01*
X133501316Y-41554200D02*
X133567982Y-41687533D01*
X133567982Y-41687533D02*
X133634649Y-41754200D01*
X133634649Y-41754200D02*
X133767982Y-41820866D01*
X133767982Y-41820866D02*
X133967982Y-41820866D01*
X132701315Y-41820866D02*
X132834649Y-41754200D01*
X132834649Y-41754200D02*
X132901315Y-41620866D01*
X132901315Y-41620866D02*
X132901315Y-40420866D01*
X130501315Y-40887533D02*
X130501315Y-41820866D01*
X130834649Y-40354200D02*
X131167982Y-41354200D01*
X131167982Y-41354200D02*
X130301315Y-41354200D01*
X129767982Y-41687533D02*
X129701316Y-41754200D01*
X129701316Y-41754200D02*
X129767982Y-41820866D01*
X129767982Y-41820866D02*
X129834649Y-41754200D01*
X129834649Y-41754200D02*
X129767982Y-41687533D01*
X129767982Y-41687533D02*
X129767982Y-41820866D01*
X129767982Y-40954200D02*
X129701316Y-41020866D01*
X129701316Y-41020866D02*
X129767982Y-41087533D01*
X129767982Y-41087533D02*
X129834649Y-41020866D01*
X129834649Y-41020866D02*
X129767982Y-40954200D01*
X129767982Y-40954200D02*
X129767982Y-41087533D01*
X128034648Y-41820866D02*
X128034648Y-40420866D01*
X128034648Y-40420866D02*
X127701315Y-40420866D01*
X127701315Y-40420866D02*
X127501315Y-40487533D01*
X127501315Y-40487533D02*
X127367982Y-40620866D01*
X127367982Y-40620866D02*
X127301315Y-40754200D01*
X127301315Y-40754200D02*
X127234648Y-41020866D01*
X127234648Y-41020866D02*
X127234648Y-41220866D01*
X127234648Y-41220866D02*
X127301315Y-41487533D01*
X127301315Y-41487533D02*
X127367982Y-41620866D01*
X127367982Y-41620866D02*
X127501315Y-41754200D01*
X127501315Y-41754200D02*
X127701315Y-41820866D01*
X127701315Y-41820866D02*
X128034648Y-41820866D01*
X126767982Y-40420866D02*
X125901315Y-40420866D01*
X125901315Y-40420866D02*
X126367982Y-40954200D01*
X126367982Y-40954200D02*
X126167982Y-40954200D01*
X126167982Y-40954200D02*
X126034648Y-41020866D01*
X126034648Y-41020866D02*
X125967982Y-41087533D01*
X125967982Y-41087533D02*
X125901315Y-41220866D01*
X125901315Y-41220866D02*
X125901315Y-41554200D01*
X125901315Y-41554200D02*
X125967982Y-41687533D01*
X125967982Y-41687533D02*
X126034648Y-41754200D01*
X126034648Y-41754200D02*
X126167982Y-41820866D01*
X126167982Y-41820866D02*
X126567982Y-41820866D01*
X126567982Y-41820866D02*
X126701315Y-41754200D01*
X126701315Y-41754200D02*
X126767982Y-41687533D01*
X123834648Y-42354200D02*
X123901315Y-42287533D01*
X123901315Y-42287533D02*
X124034648Y-42087533D01*
X124034648Y-42087533D02*
X124101315Y-41954200D01*
X124101315Y-41954200D02*
X124167982Y-41754200D01*
X124167982Y-41754200D02*
X124234648Y-41420866D01*
X124234648Y-41420866D02*
X124234648Y-41154200D01*
X124234648Y-41154200D02*
X124167982Y-40820866D01*
X124167982Y-40820866D02*
X124101315Y-40620866D01*
X124101315Y-40620866D02*
X124034648Y-40487533D01*
X124034648Y-40487533D02*
X123901315Y-40287533D01*
X123901315Y-40287533D02*
X123834648Y-40220866D01*
X122567982Y-40487533D02*
X122701315Y-40420866D01*
X122701315Y-40420866D02*
X122901315Y-40420866D01*
X122901315Y-40420866D02*
X123101315Y-40487533D01*
X123101315Y-40487533D02*
X123234649Y-40620866D01*
X123234649Y-40620866D02*
X123301315Y-40754200D01*
X123301315Y-40754200D02*
X123367982Y-41020866D01*
X123367982Y-41020866D02*
X123367982Y-41220866D01*
X123367982Y-41220866D02*
X123301315Y-41487533D01*
X123301315Y-41487533D02*
X123234649Y-41620866D01*
X123234649Y-41620866D02*
X123101315Y-41754200D01*
X123101315Y-41754200D02*
X122901315Y-41820866D01*
X122901315Y-41820866D02*
X122767982Y-41820866D01*
X122767982Y-41820866D02*
X122567982Y-41754200D01*
X122567982Y-41754200D02*
X122501315Y-41687533D01*
X122501315Y-41687533D02*
X122501315Y-41220866D01*
X122501315Y-41220866D02*
X122767982Y-41220866D01*
X121901315Y-41820866D02*
X121901315Y-40420866D01*
X121901315Y-40420866D02*
X121367982Y-40420866D01*
X121367982Y-40420866D02*
X121234649Y-40487533D01*
X121234649Y-40487533D02*
X121167982Y-40554200D01*
X121167982Y-40554200D02*
X121101315Y-40687533D01*
X121101315Y-40687533D02*
X121101315Y-40887533D01*
X121101315Y-40887533D02*
X121167982Y-41020866D01*
X121167982Y-41020866D02*
X121234649Y-41087533D01*
X121234649Y-41087533D02*
X121367982Y-41154200D01*
X121367982Y-41154200D02*
X121901315Y-41154200D01*
X120567982Y-40554200D02*
X120501315Y-40487533D01*
X120501315Y-40487533D02*
X120367982Y-40420866D01*
X120367982Y-40420866D02*
X120034649Y-40420866D01*
X120034649Y-40420866D02*
X119901315Y-40487533D01*
X119901315Y-40487533D02*
X119834649Y-40554200D01*
X119834649Y-40554200D02*
X119767982Y-40687533D01*
X119767982Y-40687533D02*
X119767982Y-40820866D01*
X119767982Y-40820866D02*
X119834649Y-41020866D01*
X119834649Y-41020866D02*
X120634649Y-41820866D01*
X120634649Y-41820866D02*
X119767982Y-41820866D01*
X119101316Y-41820866D02*
X118834649Y-41820866D01*
X118834649Y-41820866D02*
X118701316Y-41754200D01*
X118701316Y-41754200D02*
X118634649Y-41687533D01*
X118634649Y-41687533D02*
X118501316Y-41487533D01*
X118501316Y-41487533D02*
X118434649Y-41220866D01*
X118434649Y-41220866D02*
X118434649Y-40687533D01*
X118434649Y-40687533D02*
X118501316Y-40554200D01*
X118501316Y-40554200D02*
X118567982Y-40487533D01*
X118567982Y-40487533D02*
X118701316Y-40420866D01*
X118701316Y-40420866D02*
X118967982Y-40420866D01*
X118967982Y-40420866D02*
X119101316Y-40487533D01*
X119101316Y-40487533D02*
X119167982Y-40554200D01*
X119167982Y-40554200D02*
X119234649Y-40687533D01*
X119234649Y-40687533D02*
X119234649Y-41020866D01*
X119234649Y-41020866D02*
X119167982Y-41154200D01*
X119167982Y-41154200D02*
X119101316Y-41220866D01*
X119101316Y-41220866D02*
X118967982Y-41287533D01*
X118967982Y-41287533D02*
X118701316Y-41287533D01*
X118701316Y-41287533D02*
X118567982Y-41220866D01*
X118567982Y-41220866D02*
X118501316Y-41154200D01*
X118501316Y-41154200D02*
X118434649Y-41020866D01*
X117967983Y-42354200D02*
X117901316Y-42287533D01*
X117901316Y-42287533D02*
X117767983Y-42087533D01*
X117767983Y-42087533D02*
X117701316Y-41954200D01*
X117701316Y-41954200D02*
X117634649Y-41754200D01*
X117634649Y-41754200D02*
X117567983Y-41420866D01*
X117567983Y-41420866D02*
X117567983Y-41154200D01*
X117567983Y-41154200D02*
X117634649Y-40820866D01*
X117634649Y-40820866D02*
X117701316Y-40620866D01*
X117701316Y-40620866D02*
X117767983Y-40487533D01*
X117767983Y-40487533D02*
X117901316Y-40287533D01*
X117901316Y-40287533D02*
X117967983Y-40220866D01*
X95869819Y-52836779D02*
X94869819Y-52836779D01*
X94869819Y-52836779D02*
X94869819Y-53074874D01*
X94869819Y-53074874D02*
X94917438Y-53217731D01*
X94917438Y-53217731D02*
X95012676Y-53312969D01*
X95012676Y-53312969D02*
X95107914Y-53360588D01*
X95107914Y-53360588D02*
X95298390Y-53408207D01*
X95298390Y-53408207D02*
X95441247Y-53408207D01*
X95441247Y-53408207D02*
X95631723Y-53360588D01*
X95631723Y-53360588D02*
X95726961Y-53312969D01*
X95726961Y-53312969D02*
X95822200Y-53217731D01*
X95822200Y-53217731D02*
X95869819Y-53074874D01*
X95869819Y-53074874D02*
X95869819Y-52836779D01*
X95203152Y-54265350D02*
X95869819Y-54265350D01*
X94822200Y-54027255D02*
X95536485Y-53789160D01*
X95536485Y-53789160D02*
X95536485Y-54408207D01*
X93369819Y-52836779D02*
X92369819Y-52836779D01*
X92369819Y-52836779D02*
X92369819Y-53074874D01*
X92369819Y-53074874D02*
X92417438Y-53217731D01*
X92417438Y-53217731D02*
X92512676Y-53312969D01*
X92512676Y-53312969D02*
X92607914Y-53360588D01*
X92607914Y-53360588D02*
X92798390Y-53408207D01*
X92798390Y-53408207D02*
X92941247Y-53408207D01*
X92941247Y-53408207D02*
X93131723Y-53360588D01*
X93131723Y-53360588D02*
X93226961Y-53312969D01*
X93226961Y-53312969D02*
X93322200Y-53217731D01*
X93322200Y-53217731D02*
X93369819Y-53074874D01*
X93369819Y-53074874D02*
X93369819Y-52836779D01*
X92369819Y-53741541D02*
X92369819Y-54360588D01*
X92369819Y-54360588D02*
X92750771Y-54027255D01*
X92750771Y-54027255D02*
X92750771Y-54170112D01*
X92750771Y-54170112D02*
X92798390Y-54265350D01*
X92798390Y-54265350D02*
X92846009Y-54312969D01*
X92846009Y-54312969D02*
X92941247Y-54360588D01*
X92941247Y-54360588D02*
X93179342Y-54360588D01*
X93179342Y-54360588D02*
X93274580Y-54312969D01*
X93274580Y-54312969D02*
X93322200Y-54265350D01*
X93322200Y-54265350D02*
X93369819Y-54170112D01*
X93369819Y-54170112D02*
X93369819Y-53884398D01*
X93369819Y-53884398D02*
X93322200Y-53789160D01*
X93322200Y-53789160D02*
X93274580Y-53741541D01*
X100869819Y-52836779D02*
X99869819Y-52836779D01*
X99869819Y-52836779D02*
X99869819Y-53074874D01*
X99869819Y-53074874D02*
X99917438Y-53217731D01*
X99917438Y-53217731D02*
X100012676Y-53312969D01*
X100012676Y-53312969D02*
X100107914Y-53360588D01*
X100107914Y-53360588D02*
X100298390Y-53408207D01*
X100298390Y-53408207D02*
X100441247Y-53408207D01*
X100441247Y-53408207D02*
X100631723Y-53360588D01*
X100631723Y-53360588D02*
X100726961Y-53312969D01*
X100726961Y-53312969D02*
X100822200Y-53217731D01*
X100822200Y-53217731D02*
X100869819Y-53074874D01*
X100869819Y-53074874D02*
X100869819Y-52836779D01*
X99869819Y-54265350D02*
X99869819Y-54074874D01*
X99869819Y-54074874D02*
X99917438Y-53979636D01*
X99917438Y-53979636D02*
X99965057Y-53932017D01*
X99965057Y-53932017D02*
X100107914Y-53836779D01*
X100107914Y-53836779D02*
X100298390Y-53789160D01*
X100298390Y-53789160D02*
X100679342Y-53789160D01*
X100679342Y-53789160D02*
X100774580Y-53836779D01*
X100774580Y-53836779D02*
X100822200Y-53884398D01*
X100822200Y-53884398D02*
X100869819Y-53979636D01*
X100869819Y-53979636D02*
X100869819Y-54170112D01*
X100869819Y-54170112D02*
X100822200Y-54265350D01*
X100822200Y-54265350D02*
X100774580Y-54312969D01*
X100774580Y-54312969D02*
X100679342Y-54360588D01*
X100679342Y-54360588D02*
X100441247Y-54360588D01*
X100441247Y-54360588D02*
X100346009Y-54312969D01*
X100346009Y-54312969D02*
X100298390Y-54265350D01*
X100298390Y-54265350D02*
X100250771Y-54170112D01*
X100250771Y-54170112D02*
X100250771Y-53979636D01*
X100250771Y-53979636D02*
X100298390Y-53884398D01*
X100298390Y-53884398D02*
X100346009Y-53836779D01*
X100346009Y-53836779D02*
X100441247Y-53789160D01*
X154267982Y-36466944D02*
X154734649Y-35800278D01*
X155067982Y-36466944D02*
X155067982Y-35066944D01*
X155067982Y-35066944D02*
X154534649Y-35066944D01*
X154534649Y-35066944D02*
X154401316Y-35133611D01*
X154401316Y-35133611D02*
X154334649Y-35200278D01*
X154334649Y-35200278D02*
X154267982Y-35333611D01*
X154267982Y-35333611D02*
X154267982Y-35533611D01*
X154267982Y-35533611D02*
X154334649Y-35666944D01*
X154334649Y-35666944D02*
X154401316Y-35733611D01*
X154401316Y-35733611D02*
X154534649Y-35800278D01*
X154534649Y-35800278D02*
X155067982Y-35800278D01*
X153467982Y-36466944D02*
X153601316Y-36400278D01*
X153601316Y-36400278D02*
X153667982Y-36333611D01*
X153667982Y-36333611D02*
X153734649Y-36200278D01*
X153734649Y-36200278D02*
X153734649Y-35800278D01*
X153734649Y-35800278D02*
X153667982Y-35666944D01*
X153667982Y-35666944D02*
X153601316Y-35600278D01*
X153601316Y-35600278D02*
X153467982Y-35533611D01*
X153467982Y-35533611D02*
X153267982Y-35533611D01*
X153267982Y-35533611D02*
X153134649Y-35600278D01*
X153134649Y-35600278D02*
X153067982Y-35666944D01*
X153067982Y-35666944D02*
X153001316Y-35800278D01*
X153001316Y-35800278D02*
X153001316Y-36200278D01*
X153001316Y-36200278D02*
X153067982Y-36333611D01*
X153067982Y-36333611D02*
X153134649Y-36400278D01*
X153134649Y-36400278D02*
X153267982Y-36466944D01*
X153267982Y-36466944D02*
X153467982Y-36466944D01*
X152601315Y-35533611D02*
X152067982Y-35533611D01*
X152401315Y-35066944D02*
X152401315Y-36266944D01*
X152401315Y-36266944D02*
X152334649Y-36400278D01*
X152334649Y-36400278D02*
X152201315Y-36466944D01*
X152201315Y-36466944D02*
X152067982Y-36466944D01*
X150601315Y-36066944D02*
X149934648Y-36066944D01*
X150734648Y-36466944D02*
X150267982Y-35066944D01*
X150267982Y-35066944D02*
X149801315Y-36466944D01*
X149334648Y-36333611D02*
X149267982Y-36400278D01*
X149267982Y-36400278D02*
X149334648Y-36466944D01*
X149334648Y-36466944D02*
X149401315Y-36400278D01*
X149401315Y-36400278D02*
X149334648Y-36333611D01*
X149334648Y-36333611D02*
X149334648Y-36466944D01*
X149334648Y-35600278D02*
X149267982Y-35666944D01*
X149267982Y-35666944D02*
X149334648Y-35733611D01*
X149334648Y-35733611D02*
X149401315Y-35666944D01*
X149401315Y-35666944D02*
X149334648Y-35600278D01*
X149334648Y-35600278D02*
X149334648Y-35733611D01*
X147601314Y-36466944D02*
X147601314Y-35066944D01*
X147601314Y-35066944D02*
X147267981Y-35066944D01*
X147267981Y-35066944D02*
X147067981Y-35133611D01*
X147067981Y-35133611D02*
X146934648Y-35266944D01*
X146934648Y-35266944D02*
X146867981Y-35400278D01*
X146867981Y-35400278D02*
X146801314Y-35666944D01*
X146801314Y-35666944D02*
X146801314Y-35866944D01*
X146801314Y-35866944D02*
X146867981Y-36133611D01*
X146867981Y-36133611D02*
X146934648Y-36266944D01*
X146934648Y-36266944D02*
X147067981Y-36400278D01*
X147067981Y-36400278D02*
X147267981Y-36466944D01*
X147267981Y-36466944D02*
X147601314Y-36466944D01*
X146334648Y-35066944D02*
X145401314Y-35066944D01*
X145401314Y-35066944D02*
X146001314Y-36466944D01*
X143401314Y-37000278D02*
X143467981Y-36933611D01*
X143467981Y-36933611D02*
X143601314Y-36733611D01*
X143601314Y-36733611D02*
X143667981Y-36600278D01*
X143667981Y-36600278D02*
X143734648Y-36400278D01*
X143734648Y-36400278D02*
X143801314Y-36066944D01*
X143801314Y-36066944D02*
X143801314Y-35800278D01*
X143801314Y-35800278D02*
X143734648Y-35466944D01*
X143734648Y-35466944D02*
X143667981Y-35266944D01*
X143667981Y-35266944D02*
X143601314Y-35133611D01*
X143601314Y-35133611D02*
X143467981Y-34933611D01*
X143467981Y-34933611D02*
X143401314Y-34866944D01*
X142134648Y-35133611D02*
X142267981Y-35066944D01*
X142267981Y-35066944D02*
X142467981Y-35066944D01*
X142467981Y-35066944D02*
X142667981Y-35133611D01*
X142667981Y-35133611D02*
X142801315Y-35266944D01*
X142801315Y-35266944D02*
X142867981Y-35400278D01*
X142867981Y-35400278D02*
X142934648Y-35666944D01*
X142934648Y-35666944D02*
X142934648Y-35866944D01*
X142934648Y-35866944D02*
X142867981Y-36133611D01*
X142867981Y-36133611D02*
X142801315Y-36266944D01*
X142801315Y-36266944D02*
X142667981Y-36400278D01*
X142667981Y-36400278D02*
X142467981Y-36466944D01*
X142467981Y-36466944D02*
X142334648Y-36466944D01*
X142334648Y-36466944D02*
X142134648Y-36400278D01*
X142134648Y-36400278D02*
X142067981Y-36333611D01*
X142067981Y-36333611D02*
X142067981Y-35866944D01*
X142067981Y-35866944D02*
X142334648Y-35866944D01*
X141467981Y-36466944D02*
X141467981Y-35066944D01*
X141467981Y-35066944D02*
X140934648Y-35066944D01*
X140934648Y-35066944D02*
X140801315Y-35133611D01*
X140801315Y-35133611D02*
X140734648Y-35200278D01*
X140734648Y-35200278D02*
X140667981Y-35333611D01*
X140667981Y-35333611D02*
X140667981Y-35533611D01*
X140667981Y-35533611D02*
X140734648Y-35666944D01*
X140734648Y-35666944D02*
X140801315Y-35733611D01*
X140801315Y-35733611D02*
X140934648Y-35800278D01*
X140934648Y-35800278D02*
X141467981Y-35800278D01*
X139334648Y-36466944D02*
X140134648Y-36466944D01*
X139734648Y-36466944D02*
X139734648Y-35066944D01*
X139734648Y-35066944D02*
X139867981Y-35266944D01*
X139867981Y-35266944D02*
X140001315Y-35400278D01*
X140001315Y-35400278D02*
X140134648Y-35466944D01*
X138867982Y-37000278D02*
X138801315Y-36933611D01*
X138801315Y-36933611D02*
X138667982Y-36733611D01*
X138667982Y-36733611D02*
X138601315Y-36600278D01*
X138601315Y-36600278D02*
X138534648Y-36400278D01*
X138534648Y-36400278D02*
X138467982Y-36066944D01*
X138467982Y-36066944D02*
X138467982Y-35800278D01*
X138467982Y-35800278D02*
X138534648Y-35466944D01*
X138534648Y-35466944D02*
X138601315Y-35266944D01*
X138601315Y-35266944D02*
X138667982Y-35133611D01*
X138667982Y-35133611D02*
X138801315Y-34933611D01*
X138801315Y-34933611D02*
X138867982Y-34866944D01*
X154267982Y-38720866D02*
X154734649Y-38054200D01*
X155067982Y-38720866D02*
X155067982Y-37320866D01*
X155067982Y-37320866D02*
X154534649Y-37320866D01*
X154534649Y-37320866D02*
X154401316Y-37387533D01*
X154401316Y-37387533D02*
X154334649Y-37454200D01*
X154334649Y-37454200D02*
X154267982Y-37587533D01*
X154267982Y-37587533D02*
X154267982Y-37787533D01*
X154267982Y-37787533D02*
X154334649Y-37920866D01*
X154334649Y-37920866D02*
X154401316Y-37987533D01*
X154401316Y-37987533D02*
X154534649Y-38054200D01*
X154534649Y-38054200D02*
X155067982Y-38054200D01*
X153467982Y-38720866D02*
X153601316Y-38654200D01*
X153601316Y-38654200D02*
X153667982Y-38587533D01*
X153667982Y-38587533D02*
X153734649Y-38454200D01*
X153734649Y-38454200D02*
X153734649Y-38054200D01*
X153734649Y-38054200D02*
X153667982Y-37920866D01*
X153667982Y-37920866D02*
X153601316Y-37854200D01*
X153601316Y-37854200D02*
X153467982Y-37787533D01*
X153467982Y-37787533D02*
X153267982Y-37787533D01*
X153267982Y-37787533D02*
X153134649Y-37854200D01*
X153134649Y-37854200D02*
X153067982Y-37920866D01*
X153067982Y-37920866D02*
X153001316Y-38054200D01*
X153001316Y-38054200D02*
X153001316Y-38454200D01*
X153001316Y-38454200D02*
X153067982Y-38587533D01*
X153067982Y-38587533D02*
X153134649Y-38654200D01*
X153134649Y-38654200D02*
X153267982Y-38720866D01*
X153267982Y-38720866D02*
X153467982Y-38720866D01*
X152601315Y-37787533D02*
X152067982Y-37787533D01*
X152401315Y-37320866D02*
X152401315Y-38520866D01*
X152401315Y-38520866D02*
X152334649Y-38654200D01*
X152334649Y-38654200D02*
X152201315Y-38720866D01*
X152201315Y-38720866D02*
X152067982Y-38720866D01*
X150067982Y-37987533D02*
X149867982Y-38054200D01*
X149867982Y-38054200D02*
X149801315Y-38120866D01*
X149801315Y-38120866D02*
X149734648Y-38254200D01*
X149734648Y-38254200D02*
X149734648Y-38454200D01*
X149734648Y-38454200D02*
X149801315Y-38587533D01*
X149801315Y-38587533D02*
X149867982Y-38654200D01*
X149867982Y-38654200D02*
X150001315Y-38720866D01*
X150001315Y-38720866D02*
X150534648Y-38720866D01*
X150534648Y-38720866D02*
X150534648Y-37320866D01*
X150534648Y-37320866D02*
X150067982Y-37320866D01*
X150067982Y-37320866D02*
X149934648Y-37387533D01*
X149934648Y-37387533D02*
X149867982Y-37454200D01*
X149867982Y-37454200D02*
X149801315Y-37587533D01*
X149801315Y-37587533D02*
X149801315Y-37720866D01*
X149801315Y-37720866D02*
X149867982Y-37854200D01*
X149867982Y-37854200D02*
X149934648Y-37920866D01*
X149934648Y-37920866D02*
X150067982Y-37987533D01*
X150067982Y-37987533D02*
X150534648Y-37987533D01*
X149134648Y-38587533D02*
X149067982Y-38654200D01*
X149067982Y-38654200D02*
X149134648Y-38720866D01*
X149134648Y-38720866D02*
X149201315Y-38654200D01*
X149201315Y-38654200D02*
X149134648Y-38587533D01*
X149134648Y-38587533D02*
X149134648Y-38720866D01*
X149134648Y-37854200D02*
X149067982Y-37920866D01*
X149067982Y-37920866D02*
X149134648Y-37987533D01*
X149134648Y-37987533D02*
X149201315Y-37920866D01*
X149201315Y-37920866D02*
X149134648Y-37854200D01*
X149134648Y-37854200D02*
X149134648Y-37987533D01*
X147401314Y-38720866D02*
X147401314Y-37320866D01*
X147401314Y-37320866D02*
X147067981Y-37320866D01*
X147067981Y-37320866D02*
X146867981Y-37387533D01*
X146867981Y-37387533D02*
X146734648Y-37520866D01*
X146734648Y-37520866D02*
X146667981Y-37654200D01*
X146667981Y-37654200D02*
X146601314Y-37920866D01*
X146601314Y-37920866D02*
X146601314Y-38120866D01*
X146601314Y-38120866D02*
X146667981Y-38387533D01*
X146667981Y-38387533D02*
X146734648Y-38520866D01*
X146734648Y-38520866D02*
X146867981Y-38654200D01*
X146867981Y-38654200D02*
X147067981Y-38720866D01*
X147067981Y-38720866D02*
X147401314Y-38720866D01*
X145801314Y-37920866D02*
X145934648Y-37854200D01*
X145934648Y-37854200D02*
X146001314Y-37787533D01*
X146001314Y-37787533D02*
X146067981Y-37654200D01*
X146067981Y-37654200D02*
X146067981Y-37587533D01*
X146067981Y-37587533D02*
X146001314Y-37454200D01*
X146001314Y-37454200D02*
X145934648Y-37387533D01*
X145934648Y-37387533D02*
X145801314Y-37320866D01*
X145801314Y-37320866D02*
X145534648Y-37320866D01*
X145534648Y-37320866D02*
X145401314Y-37387533D01*
X145401314Y-37387533D02*
X145334648Y-37454200D01*
X145334648Y-37454200D02*
X145267981Y-37587533D01*
X145267981Y-37587533D02*
X145267981Y-37654200D01*
X145267981Y-37654200D02*
X145334648Y-37787533D01*
X145334648Y-37787533D02*
X145401314Y-37854200D01*
X145401314Y-37854200D02*
X145534648Y-37920866D01*
X145534648Y-37920866D02*
X145801314Y-37920866D01*
X145801314Y-37920866D02*
X145934648Y-37987533D01*
X145934648Y-37987533D02*
X146001314Y-38054200D01*
X146001314Y-38054200D02*
X146067981Y-38187533D01*
X146067981Y-38187533D02*
X146067981Y-38454200D01*
X146067981Y-38454200D02*
X146001314Y-38587533D01*
X146001314Y-38587533D02*
X145934648Y-38654200D01*
X145934648Y-38654200D02*
X145801314Y-38720866D01*
X145801314Y-38720866D02*
X145534648Y-38720866D01*
X145534648Y-38720866D02*
X145401314Y-38654200D01*
X145401314Y-38654200D02*
X145334648Y-38587533D01*
X145334648Y-38587533D02*
X145267981Y-38454200D01*
X145267981Y-38454200D02*
X145267981Y-38187533D01*
X145267981Y-38187533D02*
X145334648Y-38054200D01*
X145334648Y-38054200D02*
X145401314Y-37987533D01*
X145401314Y-37987533D02*
X145534648Y-37920866D01*
X143201314Y-39254200D02*
X143267981Y-39187533D01*
X143267981Y-39187533D02*
X143401314Y-38987533D01*
X143401314Y-38987533D02*
X143467981Y-38854200D01*
X143467981Y-38854200D02*
X143534648Y-38654200D01*
X143534648Y-38654200D02*
X143601314Y-38320866D01*
X143601314Y-38320866D02*
X143601314Y-38054200D01*
X143601314Y-38054200D02*
X143534648Y-37720866D01*
X143534648Y-37720866D02*
X143467981Y-37520866D01*
X143467981Y-37520866D02*
X143401314Y-37387533D01*
X143401314Y-37387533D02*
X143267981Y-37187533D01*
X143267981Y-37187533D02*
X143201314Y-37120866D01*
X141934648Y-37387533D02*
X142067981Y-37320866D01*
X142067981Y-37320866D02*
X142267981Y-37320866D01*
X142267981Y-37320866D02*
X142467981Y-37387533D01*
X142467981Y-37387533D02*
X142601315Y-37520866D01*
X142601315Y-37520866D02*
X142667981Y-37654200D01*
X142667981Y-37654200D02*
X142734648Y-37920866D01*
X142734648Y-37920866D02*
X142734648Y-38120866D01*
X142734648Y-38120866D02*
X142667981Y-38387533D01*
X142667981Y-38387533D02*
X142601315Y-38520866D01*
X142601315Y-38520866D02*
X142467981Y-38654200D01*
X142467981Y-38654200D02*
X142267981Y-38720866D01*
X142267981Y-38720866D02*
X142134648Y-38720866D01*
X142134648Y-38720866D02*
X141934648Y-38654200D01*
X141934648Y-38654200D02*
X141867981Y-38587533D01*
X141867981Y-38587533D02*
X141867981Y-38120866D01*
X141867981Y-38120866D02*
X142134648Y-38120866D01*
X141267981Y-38720866D02*
X141267981Y-37320866D01*
X141267981Y-37320866D02*
X140734648Y-37320866D01*
X140734648Y-37320866D02*
X140601315Y-37387533D01*
X140601315Y-37387533D02*
X140534648Y-37454200D01*
X140534648Y-37454200D02*
X140467981Y-37587533D01*
X140467981Y-37587533D02*
X140467981Y-37787533D01*
X140467981Y-37787533D02*
X140534648Y-37920866D01*
X140534648Y-37920866D02*
X140601315Y-37987533D01*
X140601315Y-37987533D02*
X140734648Y-38054200D01*
X140734648Y-38054200D02*
X141267981Y-38054200D01*
X139934648Y-37454200D02*
X139867981Y-37387533D01*
X139867981Y-37387533D02*
X139734648Y-37320866D01*
X139734648Y-37320866D02*
X139401315Y-37320866D01*
X139401315Y-37320866D02*
X139267981Y-37387533D01*
X139267981Y-37387533D02*
X139201315Y-37454200D01*
X139201315Y-37454200D02*
X139134648Y-37587533D01*
X139134648Y-37587533D02*
X139134648Y-37720866D01*
X139134648Y-37720866D02*
X139201315Y-37920866D01*
X139201315Y-37920866D02*
X140001315Y-38720866D01*
X140001315Y-38720866D02*
X139134648Y-38720866D01*
X138667982Y-39254200D02*
X138601315Y-39187533D01*
X138601315Y-39187533D02*
X138467982Y-38987533D01*
X138467982Y-38987533D02*
X138401315Y-38854200D01*
X138401315Y-38854200D02*
X138334648Y-38654200D01*
X138334648Y-38654200D02*
X138267982Y-38320866D01*
X138267982Y-38320866D02*
X138267982Y-38054200D01*
X138267982Y-38054200D02*
X138334648Y-37720866D01*
X138334648Y-37720866D02*
X138401315Y-37520866D01*
X138401315Y-37520866D02*
X138467982Y-37387533D01*
X138467982Y-37387533D02*
X138601315Y-37187533D01*
X138601315Y-37187533D02*
X138667982Y-37120866D01*
X98369819Y-33836779D02*
X97369819Y-33836779D01*
X97369819Y-33836779D02*
X97369819Y-34074874D01*
X97369819Y-34074874D02*
X97417438Y-34217731D01*
X97417438Y-34217731D02*
X97512676Y-34312969D01*
X97512676Y-34312969D02*
X97607914Y-34360588D01*
X97607914Y-34360588D02*
X97798390Y-34408207D01*
X97798390Y-34408207D02*
X97941247Y-34408207D01*
X97941247Y-34408207D02*
X98131723Y-34360588D01*
X98131723Y-34360588D02*
X98226961Y-34312969D01*
X98226961Y-34312969D02*
X98322200Y-34217731D01*
X98322200Y-34217731D02*
X98369819Y-34074874D01*
X98369819Y-34074874D02*
X98369819Y-33836779D01*
X97798390Y-34979636D02*
X97750771Y-34884398D01*
X97750771Y-34884398D02*
X97703152Y-34836779D01*
X97703152Y-34836779D02*
X97607914Y-34789160D01*
X97607914Y-34789160D02*
X97560295Y-34789160D01*
X97560295Y-34789160D02*
X97465057Y-34836779D01*
X97465057Y-34836779D02*
X97417438Y-34884398D01*
X97417438Y-34884398D02*
X97369819Y-34979636D01*
X97369819Y-34979636D02*
X97369819Y-35170112D01*
X97369819Y-35170112D02*
X97417438Y-35265350D01*
X97417438Y-35265350D02*
X97465057Y-35312969D01*
X97465057Y-35312969D02*
X97560295Y-35360588D01*
X97560295Y-35360588D02*
X97607914Y-35360588D01*
X97607914Y-35360588D02*
X97703152Y-35312969D01*
X97703152Y-35312969D02*
X97750771Y-35265350D01*
X97750771Y-35265350D02*
X97798390Y-35170112D01*
X97798390Y-35170112D02*
X97798390Y-34979636D01*
X97798390Y-34979636D02*
X97846009Y-34884398D01*
X97846009Y-34884398D02*
X97893628Y-34836779D01*
X97893628Y-34836779D02*
X97988866Y-34789160D01*
X97988866Y-34789160D02*
X98179342Y-34789160D01*
X98179342Y-34789160D02*
X98274580Y-34836779D01*
X98274580Y-34836779D02*
X98322200Y-34884398D01*
X98322200Y-34884398D02*
X98369819Y-34979636D01*
X98369819Y-34979636D02*
X98369819Y-35170112D01*
X98369819Y-35170112D02*
X98322200Y-35265350D01*
X98322200Y-35265350D02*
X98274580Y-35312969D01*
X98274580Y-35312969D02*
X98179342Y-35360588D01*
X98179342Y-35360588D02*
X97988866Y-35360588D01*
X97988866Y-35360588D02*
X97893628Y-35312969D01*
X97893628Y-35312969D02*
X97846009Y-35265350D01*
X97846009Y-35265350D02*
X97798390Y-35170112D01*
X89869819Y-33241541D02*
X89869819Y-33860588D01*
X89869819Y-33860588D02*
X90250771Y-33527255D01*
X90250771Y-33527255D02*
X90250771Y-33670112D01*
X90250771Y-33670112D02*
X90298390Y-33765350D01*
X90298390Y-33765350D02*
X90346009Y-33812969D01*
X90346009Y-33812969D02*
X90441247Y-33860588D01*
X90441247Y-33860588D02*
X90679342Y-33860588D01*
X90679342Y-33860588D02*
X90774580Y-33812969D01*
X90774580Y-33812969D02*
X90822200Y-33765350D01*
X90822200Y-33765350D02*
X90869819Y-33670112D01*
X90869819Y-33670112D02*
X90869819Y-33384398D01*
X90869819Y-33384398D02*
X90822200Y-33289160D01*
X90822200Y-33289160D02*
X90774580Y-33241541D01*
X89869819Y-34146303D02*
X90869819Y-34479636D01*
X90869819Y-34479636D02*
X89869819Y-34812969D01*
X89869819Y-35051065D02*
X89869819Y-35670112D01*
X89869819Y-35670112D02*
X90250771Y-35336779D01*
X90250771Y-35336779D02*
X90250771Y-35479636D01*
X90250771Y-35479636D02*
X90298390Y-35574874D01*
X90298390Y-35574874D02*
X90346009Y-35622493D01*
X90346009Y-35622493D02*
X90441247Y-35670112D01*
X90441247Y-35670112D02*
X90679342Y-35670112D01*
X90679342Y-35670112D02*
X90774580Y-35622493D01*
X90774580Y-35622493D02*
X90822200Y-35574874D01*
X90822200Y-35574874D02*
X90869819Y-35479636D01*
X90869819Y-35479636D02*
X90869819Y-35193922D01*
X90869819Y-35193922D02*
X90822200Y-35098684D01*
X90822200Y-35098684D02*
X90774580Y-35051065D01*
D11*
%TO.C,D10*%
X136100000Y-103940000D02*
X136900000Y-103940000D01*
X136500000Y-103940000D02*
X136500000Y-103440000D01*
X136500000Y-104540000D02*
X135950000Y-104540000D01*
X136500000Y-104540000D02*
X136100000Y-103940000D01*
X136500000Y-104540000D02*
X137050000Y-104540000D01*
X136500000Y-104940000D02*
X136500000Y-104540000D01*
X136900000Y-103940000D02*
X136500000Y-104540000D01*
%TO.C,D13*%
X155100000Y-122940000D02*
X155900000Y-122940000D01*
X155500000Y-122940000D02*
X155500000Y-122440000D01*
X155500000Y-123540000D02*
X154950000Y-123540000D01*
X155500000Y-123540000D02*
X155100000Y-122940000D01*
X155500000Y-123540000D02*
X156050000Y-123540000D01*
X155500000Y-123940000D02*
X155500000Y-123540000D01*
X155900000Y-122940000D02*
X155500000Y-123540000D01*
%TO.C,D2*%
X98100000Y-103940000D02*
X98900000Y-103940000D01*
X98500000Y-103940000D02*
X98500000Y-103440000D01*
X98500000Y-104540000D02*
X97950000Y-104540000D01*
X98500000Y-104540000D02*
X98100000Y-103940000D01*
X98500000Y-104540000D02*
X99050000Y-104540000D01*
X98500000Y-104940000D02*
X98500000Y-104540000D01*
X98900000Y-103940000D02*
X98500000Y-104540000D01*
%TO.C,D9*%
X136100000Y-122940000D02*
X136900000Y-122940000D01*
X136500000Y-122940000D02*
X136500000Y-122440000D01*
X136500000Y-123540000D02*
X135950000Y-123540000D01*
X136500000Y-123540000D02*
X136100000Y-122940000D01*
X136500000Y-123540000D02*
X137050000Y-123540000D01*
X136500000Y-123940000D02*
X136500000Y-123540000D01*
X136900000Y-122940000D02*
X136500000Y-123540000D01*
%TO.C,D4*%
X98100000Y-65940000D02*
X98900000Y-65940000D01*
X98500000Y-65940000D02*
X98500000Y-65440000D01*
X98500000Y-66540000D02*
X97950000Y-66540000D01*
X98500000Y-66540000D02*
X98100000Y-65940000D01*
X98500000Y-66540000D02*
X99050000Y-66540000D01*
X98500000Y-66940000D02*
X98500000Y-66540000D01*
X98900000Y-65940000D02*
X98500000Y-66540000D01*
%TO.C,D14*%
X155100000Y-103940000D02*
X155900000Y-103940000D01*
X155500000Y-103940000D02*
X155500000Y-103440000D01*
X155500000Y-104540000D02*
X154950000Y-104540000D01*
X155500000Y-104540000D02*
X155100000Y-103940000D01*
X155500000Y-104540000D02*
X156050000Y-104540000D01*
X155500000Y-104940000D02*
X155500000Y-104540000D01*
X155900000Y-103940000D02*
X155500000Y-104540000D01*
%TO.C,D15*%
X155100000Y-84940000D02*
X155900000Y-84940000D01*
X155500000Y-84940000D02*
X155500000Y-84440000D01*
X155500000Y-85540000D02*
X154950000Y-85540000D01*
X155500000Y-85540000D02*
X155100000Y-84940000D01*
X155500000Y-85540000D02*
X156050000Y-85540000D01*
X155500000Y-85940000D02*
X155500000Y-85540000D01*
X155900000Y-84940000D02*
X155500000Y-85540000D01*
%TO.C,D6*%
X117100000Y-103940000D02*
X117900000Y-103940000D01*
X117500000Y-103940000D02*
X117500000Y-103440000D01*
X117500000Y-104540000D02*
X116950000Y-104540000D01*
X117500000Y-104540000D02*
X117100000Y-103940000D01*
X117500000Y-104540000D02*
X118050000Y-104540000D01*
X117500000Y-104940000D02*
X117500000Y-104540000D01*
X117900000Y-103940000D02*
X117500000Y-104540000D01*
%TO.C,D3*%
X98100000Y-84940000D02*
X98900000Y-84940000D01*
X98500000Y-84940000D02*
X98500000Y-84440000D01*
X98500000Y-85540000D02*
X97950000Y-85540000D01*
X98500000Y-85540000D02*
X98100000Y-84940000D01*
X98500000Y-85540000D02*
X99050000Y-85540000D01*
X98500000Y-85940000D02*
X98500000Y-85540000D01*
X98900000Y-84940000D02*
X98500000Y-85540000D01*
%TO.C,D8*%
X117100000Y-65940000D02*
X117900000Y-65940000D01*
X117500000Y-65940000D02*
X117500000Y-65440000D01*
X117500000Y-66540000D02*
X116950000Y-66540000D01*
X117500000Y-66540000D02*
X117100000Y-65940000D01*
X117500000Y-66540000D02*
X118050000Y-66540000D01*
X117500000Y-66940000D02*
X117500000Y-66540000D01*
X117900000Y-65940000D02*
X117500000Y-66540000D01*
%TO.C,D11*%
X136100000Y-84940000D02*
X136900000Y-84940000D01*
X136500000Y-84940000D02*
X136500000Y-84440000D01*
X136500000Y-85540000D02*
X135950000Y-85540000D01*
X136500000Y-85540000D02*
X136100000Y-84940000D01*
X136500000Y-85540000D02*
X137050000Y-85540000D01*
X136500000Y-85940000D02*
X136500000Y-85540000D01*
X136900000Y-84940000D02*
X136500000Y-85540000D01*
%TO.C,D12*%
X136100000Y-65940000D02*
X136900000Y-65940000D01*
X136500000Y-65940000D02*
X136500000Y-65440000D01*
X136500000Y-66540000D02*
X135950000Y-66540000D01*
X136500000Y-66540000D02*
X136100000Y-65940000D01*
X136500000Y-66540000D02*
X137050000Y-66540000D01*
X136500000Y-66940000D02*
X136500000Y-66540000D01*
X136900000Y-65940000D02*
X136500000Y-66540000D01*
%TO.C,D5*%
X117100000Y-122940000D02*
X117900000Y-122940000D01*
X117500000Y-122940000D02*
X117500000Y-122440000D01*
X117500000Y-123540000D02*
X116950000Y-123540000D01*
X117500000Y-123540000D02*
X117100000Y-122940000D01*
X117500000Y-123540000D02*
X118050000Y-123540000D01*
X117500000Y-123940000D02*
X117500000Y-123540000D01*
X117900000Y-122940000D02*
X117500000Y-123540000D01*
%TO.C,D7*%
X117100000Y-84940000D02*
X117900000Y-84940000D01*
X117500000Y-84940000D02*
X117500000Y-84440000D01*
X117500000Y-85540000D02*
X116950000Y-85540000D01*
X117500000Y-85540000D02*
X117100000Y-84940000D01*
X117500000Y-85540000D02*
X118050000Y-85540000D01*
X117500000Y-85940000D02*
X117500000Y-85540000D01*
X117900000Y-84940000D02*
X117500000Y-85540000D01*
%TO.C,D16*%
X155100000Y-65940000D02*
X155900000Y-65940000D01*
X155500000Y-65940000D02*
X155500000Y-65440000D01*
X155500000Y-66540000D02*
X154950000Y-66540000D01*
X155500000Y-66540000D02*
X155100000Y-65940000D01*
X155500000Y-66540000D02*
X156050000Y-66540000D01*
X155500000Y-66940000D02*
X155500000Y-66540000D01*
X155900000Y-65940000D02*
X155500000Y-66540000D01*
%TO.C,D17*%
X155100000Y-46940000D02*
X155900000Y-46940000D01*
X155500000Y-46940000D02*
X155500000Y-46440000D01*
X155500000Y-47540000D02*
X154950000Y-47540000D01*
X155500000Y-47540000D02*
X155100000Y-46940000D01*
X155500000Y-47540000D02*
X156050000Y-47540000D01*
X155500000Y-47940000D02*
X155500000Y-47540000D01*
X155900000Y-46940000D02*
X155500000Y-47540000D01*
%TO.C,D1*%
X98100000Y-122940000D02*
X98900000Y-122940000D01*
X98500000Y-122940000D02*
X98500000Y-122440000D01*
X98500000Y-123540000D02*
X97950000Y-123540000D01*
X98500000Y-123540000D02*
X98100000Y-122940000D01*
X98500000Y-123540000D02*
X99050000Y-123540000D01*
X98500000Y-123940000D02*
X98500000Y-123540000D01*
X98900000Y-122940000D02*
X98500000Y-123540000D01*
D12*
%TO.C,REF\u002A\u002A*%
X115300000Y-36300000D02*
X116700000Y-36300000D01*
X115300000Y-37700000D02*
X115300000Y-36300000D01*
X116700000Y-36300000D02*
X116700000Y-37700000D01*
X116700000Y-37700000D02*
X115300000Y-37700000D01*
X115300000Y-38300000D02*
X116700000Y-38300000D01*
X115300000Y-39700000D02*
X115300000Y-38300000D01*
X116700000Y-38300000D02*
X116700000Y-39700000D01*
X116700000Y-39700000D02*
X115300000Y-39700000D01*
X114800000Y-46800000D02*
X116200000Y-46800000D01*
X114800000Y-48200000D02*
X114800000Y-46800000D01*
X116200000Y-46800000D02*
X116200000Y-48200000D01*
X116200000Y-48200000D02*
X114800000Y-48200000D01*
X115300000Y-34300000D02*
X116700000Y-34300000D01*
X115300000Y-35700000D02*
X115300000Y-34300000D01*
X116700000Y-34300000D02*
X116700000Y-35700000D01*
X116700000Y-35700000D02*
X115300000Y-35700000D01*
X114800000Y-54800000D02*
X116200000Y-54800000D01*
X114800000Y-56200000D02*
X114800000Y-54800000D01*
X116200000Y-54800000D02*
X116200000Y-56200000D01*
X116200000Y-56200000D02*
X114800000Y-56200000D01*
X114800000Y-52800000D02*
X116200000Y-52800000D01*
X114800000Y-54200000D02*
X114800000Y-52800000D01*
X116200000Y-52800000D02*
X116200000Y-54200000D01*
X116200000Y-54200000D02*
X114800000Y-54200000D01*
X115300000Y-40300000D02*
X116700000Y-40300000D01*
X115300000Y-41700000D02*
X115300000Y-40300000D01*
X116700000Y-40300000D02*
X116700000Y-41700000D01*
X116700000Y-41700000D02*
X115300000Y-41700000D01*
X114800000Y-50800000D02*
X116200000Y-50800000D01*
X114800000Y-52200000D02*
X114800000Y-50800000D01*
X116200000Y-50800000D02*
X116200000Y-52200000D01*
X116200000Y-52200000D02*
X114800000Y-52200000D01*
X114800000Y-48800000D02*
X116200000Y-48800000D01*
X114800000Y-50200000D02*
X114800000Y-48800000D01*
X116200000Y-48800000D02*
X116200000Y-50200000D01*
X116200000Y-50200000D02*
X114800000Y-50200000D01*
%TD*%
M02*
