%TF.GenerationSoftware,KiCad,Pcbnew,8.0.5*%
%TF.CreationDate,2024-10-25T18:54:29-04:00*%
%TF.ProjectId,macropad,6d616372-6f70-4616-942e-6b696361645f,v1.0.0*%
%TF.SameCoordinates,Original*%
%TF.FileFunction,Drillmap*%
%TF.FilePolarity,Positive*%
%FSLAX45Y45*%
G04 Gerber Fmt 4.5, Leading zero omitted, Abs format (unit mm)*
G04 Created by KiCad (PCBNEW 8.0.5) date 2024-10-25 18:54:29*
%MOMM*%
%LPD*%
G01*
G04 APERTURE LIST*
%ADD10C,0.050000*%
%ADD11C,0.100000*%
%ADD12C,0.200000*%
%ADD13C,0.149860*%
%ADD14C,0.150000*%
G04 APERTURE END LIST*
D10*
X8252421Y-13197579D02*
X15499579Y-13197579D01*
X8243000Y-3300000D02*
X15496579Y-3296421D01*
X8051244Y-3500000D02*
G75*
G02*
X8243000Y-3300001I200176J0D01*
G01*
X8051244Y-3500000D02*
X8052421Y-12997579D01*
X15699579Y-12997579D02*
G75*
G02*
X15499579Y-13197579I-199999J-1D01*
G01*
X8252421Y-13197579D02*
G75*
G02*
X8052421Y-12997579I-1J199999D01*
G01*
X15496579Y-3296421D02*
G75*
G02*
X15696579Y-3496421I1J-199999D01*
G01*
X15696579Y-3496421D02*
X15699579Y-12997579D01*
D11*
X8417800Y-4317000D02*
X8467800Y-4317000D01*
X8417800Y-4521000D02*
X8417800Y-4317000D01*
X8467800Y-4267000D02*
X8671800Y-4267000D01*
X8467800Y-4317000D02*
X8467800Y-4267000D01*
X8467800Y-4521000D02*
X8417800Y-4521000D01*
X8467800Y-4571000D02*
X8467800Y-4521000D01*
X8671800Y-4267000D02*
X8671800Y-4317000D01*
X8671800Y-4317000D02*
X8721800Y-4317000D01*
X8671800Y-4521000D02*
X8671800Y-4571000D01*
X8671800Y-4571000D02*
X8467800Y-4571000D01*
X8721800Y-4317000D02*
X8721800Y-4521000D01*
X8721800Y-4521000D02*
X8671800Y-4521000D01*
X9052800Y-4622200D02*
X9293300Y-4622200D01*
X9052800Y-4838500D02*
X9052800Y-4622200D01*
X9102800Y-4838500D02*
X9052800Y-4838500D01*
X9102800Y-4888500D02*
X9102800Y-4838500D01*
X9243300Y-4838500D02*
X9243300Y-4888500D01*
X9243300Y-4888500D02*
X9102800Y-4888500D01*
X9293300Y-4622200D02*
X9293300Y-4838500D01*
X9293300Y-4838500D02*
X9243300Y-4838500D01*
D12*
D11*
X9350000Y-4530000D02*
X9390000Y-4570000D01*
X9390000Y-4530000D02*
X9350000Y-4570000D01*
X9470000Y-4380000D02*
X9510000Y-4420000D01*
X9510000Y-4380000D02*
X9470000Y-4420000D01*
X10440000Y-4620000D02*
X10480000Y-4660000D01*
X10480000Y-4620000D02*
X10440000Y-4660000D01*
X11085000Y-4615000D02*
X11125000Y-4655000D01*
X11125000Y-4615000D02*
X11085000Y-4655000D01*
X11260000Y-4510000D02*
X11300000Y-4550000D01*
X11300000Y-4510000D02*
X11260000Y-4550000D01*
X11380000Y-4730000D02*
X11420000Y-4770000D01*
X11420000Y-4730000D02*
X11380000Y-4770000D01*
X11380000Y-4930000D02*
X11420000Y-4970000D01*
X11420000Y-4930000D02*
X11380000Y-4970000D01*
X11390000Y-5120000D02*
X11430000Y-5160000D01*
X11430000Y-5120000D02*
X11390000Y-5160000D01*
X11930000Y-5830000D02*
X11970000Y-5870000D01*
X11970000Y-5830000D02*
X11930000Y-5870000D01*
X9899530Y-6238000D02*
G75*
G02*
X9800470Y-6238000I-49530J0D01*
G01*
X9800470Y-6238000D02*
G75*
G02*
X9899530Y-6238000I49530J0D01*
G01*
X9899530Y-7000000D02*
G75*
G02*
X9800470Y-7000000I-49530J0D01*
G01*
X9800470Y-7000000D02*
G75*
G02*
X9899530Y-7000000I49530J0D01*
G01*
X9899530Y-8138000D02*
G75*
G02*
X9800470Y-8138000I-49530J0D01*
G01*
X9800470Y-8138000D02*
G75*
G02*
X9899530Y-8138000I49530J0D01*
G01*
X9899530Y-8900000D02*
G75*
G02*
X9800470Y-8900000I-49530J0D01*
G01*
X9800470Y-8900000D02*
G75*
G02*
X9899530Y-8900000I49530J0D01*
G01*
X9899530Y-10038000D02*
G75*
G02*
X9800470Y-10038000I-49530J0D01*
G01*
X9800470Y-10038000D02*
G75*
G02*
X9899530Y-10038000I49530J0D01*
G01*
X9899530Y-10800000D02*
G75*
G02*
X9800470Y-10800000I-49530J0D01*
G01*
X9800470Y-10800000D02*
G75*
G02*
X9899530Y-10800000I49530J0D01*
G01*
X9899530Y-11938000D02*
G75*
G02*
X9800470Y-11938000I-49530J0D01*
G01*
X9800470Y-11938000D02*
G75*
G02*
X9899530Y-11938000I49530J0D01*
G01*
X9899530Y-12700000D02*
G75*
G02*
X9800470Y-12700000I-49530J0D01*
G01*
X9800470Y-12700000D02*
G75*
G02*
X9899530Y-12700000I49530J0D01*
G01*
X11799530Y-6238000D02*
G75*
G02*
X11700470Y-6238000I-49530J0D01*
G01*
X11700470Y-6238000D02*
G75*
G02*
X11799530Y-6238000I49530J0D01*
G01*
X11799530Y-7000000D02*
G75*
G02*
X11700470Y-7000000I-49530J0D01*
G01*
X11700470Y-7000000D02*
G75*
G02*
X11799530Y-7000000I49530J0D01*
G01*
X11799530Y-8138000D02*
G75*
G02*
X11700470Y-8138000I-49530J0D01*
G01*
X11700470Y-8138000D02*
G75*
G02*
X11799530Y-8138000I49530J0D01*
G01*
X11799530Y-8900000D02*
G75*
G02*
X11700470Y-8900000I-49530J0D01*
G01*
X11700470Y-8900000D02*
G75*
G02*
X11799530Y-8900000I49530J0D01*
G01*
X11799530Y-10038000D02*
G75*
G02*
X11700470Y-10038000I-49530J0D01*
G01*
X11700470Y-10038000D02*
G75*
G02*
X11799530Y-10038000I49530J0D01*
G01*
X11799530Y-10800000D02*
G75*
G02*
X11700470Y-10800000I-49530J0D01*
G01*
X11700470Y-10800000D02*
G75*
G02*
X11799530Y-10800000I49530J0D01*
G01*
X11799530Y-11938000D02*
G75*
G02*
X11700470Y-11938000I-49530J0D01*
G01*
X11700470Y-11938000D02*
G75*
G02*
X11799530Y-11938000I49530J0D01*
G01*
X11799530Y-12700000D02*
G75*
G02*
X11700470Y-12700000I-49530J0D01*
G01*
X11700470Y-12700000D02*
G75*
G02*
X11799530Y-12700000I49530J0D01*
G01*
X13699530Y-6238000D02*
G75*
G02*
X13600470Y-6238000I-49530J0D01*
G01*
X13600470Y-6238000D02*
G75*
G02*
X13699530Y-6238000I49530J0D01*
G01*
X13699530Y-7000000D02*
G75*
G02*
X13600470Y-7000000I-49530J0D01*
G01*
X13600470Y-7000000D02*
G75*
G02*
X13699530Y-7000000I49530J0D01*
G01*
X13699530Y-8138000D02*
G75*
G02*
X13600470Y-8138000I-49530J0D01*
G01*
X13600470Y-8138000D02*
G75*
G02*
X13699530Y-8138000I49530J0D01*
G01*
X13699530Y-8900000D02*
G75*
G02*
X13600470Y-8900000I-49530J0D01*
G01*
X13600470Y-8900000D02*
G75*
G02*
X13699530Y-8900000I49530J0D01*
G01*
X13699530Y-10038000D02*
G75*
G02*
X13600470Y-10038000I-49530J0D01*
G01*
X13600470Y-10038000D02*
G75*
G02*
X13699530Y-10038000I49530J0D01*
G01*
X13699530Y-10800000D02*
G75*
G02*
X13600470Y-10800000I-49530J0D01*
G01*
X13600470Y-10800000D02*
G75*
G02*
X13699530Y-10800000I49530J0D01*
G01*
X13699530Y-11938000D02*
G75*
G02*
X13600470Y-11938000I-49530J0D01*
G01*
X13600470Y-11938000D02*
G75*
G02*
X13699530Y-11938000I49530J0D01*
G01*
X13699530Y-12700000D02*
G75*
G02*
X13600470Y-12700000I-49530J0D01*
G01*
X13600470Y-12700000D02*
G75*
G02*
X13699530Y-12700000I49530J0D01*
G01*
X15599530Y-4338000D02*
G75*
G02*
X15500470Y-4338000I-49530J0D01*
G01*
X15500470Y-4338000D02*
G75*
G02*
X15599530Y-4338000I49530J0D01*
G01*
X15599530Y-5100000D02*
G75*
G02*
X15500470Y-5100000I-49530J0D01*
G01*
X15500470Y-5100000D02*
G75*
G02*
X15599530Y-5100000I49530J0D01*
G01*
X15599530Y-6238000D02*
G75*
G02*
X15500470Y-6238000I-49530J0D01*
G01*
X15500470Y-6238000D02*
G75*
G02*
X15599530Y-6238000I49530J0D01*
G01*
X15599530Y-7000000D02*
G75*
G02*
X15500470Y-7000000I-49530J0D01*
G01*
X15500470Y-7000000D02*
G75*
G02*
X15599530Y-7000000I49530J0D01*
G01*
X15599530Y-8138000D02*
G75*
G02*
X15500470Y-8138000I-49530J0D01*
G01*
X15500470Y-8138000D02*
G75*
G02*
X15599530Y-8138000I49530J0D01*
G01*
X15599530Y-8900000D02*
G75*
G02*
X15500470Y-8900000I-49530J0D01*
G01*
X15500470Y-8900000D02*
G75*
G02*
X15599530Y-8900000I49530J0D01*
G01*
X15599530Y-10038000D02*
G75*
G02*
X15500470Y-10038000I-49530J0D01*
G01*
X15500470Y-10038000D02*
G75*
G02*
X15599530Y-10038000I49530J0D01*
G01*
X15599530Y-10800000D02*
G75*
G02*
X15500470Y-10800000I-49530J0D01*
G01*
X15500470Y-10800000D02*
G75*
G02*
X15599530Y-10800000I49530J0D01*
G01*
X15599530Y-11938000D02*
G75*
G02*
X15500470Y-11938000I-49530J0D01*
G01*
X15500470Y-11938000D02*
G75*
G02*
X15599530Y-11938000I49530J0D01*
G01*
X15599530Y-12700000D02*
G75*
G02*
X15500470Y-12700000I-49530J0D01*
G01*
X15500470Y-12700000D02*
G75*
G02*
X15599530Y-12700000I49530J0D01*
G01*
X8538000Y-3607000D02*
X8538000Y-3707000D01*
X8488000Y-3657000D02*
X8588000Y-3657000D01*
X8538000Y-5131000D02*
X8538000Y-5231000D01*
X8488000Y-5181000D02*
X8588000Y-5181000D01*
X8696700Y-4242000D02*
X8696700Y-4342000D01*
X8646700Y-4292000D02*
X8746700Y-4292000D01*
X8696700Y-4496000D02*
X8696700Y-4596000D01*
X8646700Y-4546000D02*
X8746700Y-4546000D01*
X8792000Y-3607000D02*
X8792000Y-3707000D01*
X8742000Y-3657000D02*
X8842000Y-3657000D01*
X8792000Y-5131000D02*
X8792000Y-5231000D01*
X8742000Y-5181000D02*
X8842000Y-5181000D01*
X9046000Y-3607000D02*
X9046000Y-3707000D01*
X8996000Y-3657000D02*
X9096000Y-3657000D01*
X9046000Y-5131000D02*
X9046000Y-5231000D01*
X8996000Y-5181000D02*
X9096000Y-5181000D01*
X9268300Y-4813500D02*
X9268300Y-4913500D01*
X9218300Y-4863500D02*
X9318300Y-4863500D01*
X9300000Y-3607000D02*
X9300000Y-3707000D01*
X9250000Y-3657000D02*
X9350000Y-3657000D01*
X9300000Y-5131000D02*
X9300000Y-5231000D01*
X9250000Y-5181000D02*
X9350000Y-5181000D01*
X9554000Y-3607000D02*
X9554000Y-3707000D01*
X9504000Y-3657000D02*
X9604000Y-3657000D01*
X9554000Y-5131000D02*
X9554000Y-5231000D01*
X9504000Y-5181000D02*
X9604000Y-5181000D01*
X9808000Y-3607000D02*
X9808000Y-3707000D01*
X9758000Y-3657000D02*
X9858000Y-3657000D01*
X9808000Y-5131000D02*
X9808000Y-5231000D01*
X9758000Y-5181000D02*
X9858000Y-5181000D01*
X10062000Y-3607000D02*
X10062000Y-3707000D01*
X10012000Y-3657000D02*
X10112000Y-3657000D01*
X10062000Y-5131000D02*
X10062000Y-5231000D01*
X10012000Y-5181000D02*
X10112000Y-5181000D01*
X13838000Y-4415000D02*
X13838000Y-4515000D01*
X13788000Y-4465000D02*
X13888000Y-4465000D01*
X13838000Y-4665000D02*
X13838000Y-4765000D01*
X13788000Y-4715000D02*
X13888000Y-4715000D01*
X13838000Y-4915000D02*
X13838000Y-5015000D01*
X13788000Y-4965000D02*
X13888000Y-4965000D01*
X15288000Y-4415000D02*
X15288000Y-4515000D01*
X15238000Y-4465000D02*
X15338000Y-4465000D01*
X15288000Y-4915000D02*
X15288000Y-5015000D01*
X15238000Y-4965000D02*
X15338000Y-4965000D01*
D13*
X8571984Y-6417984D02*
X8571984Y-6312016D01*
X8466016Y-6312016D01*
X8466016Y-6417984D01*
X8571984Y-6417984D01*
X8571984Y-8317984D02*
X8571984Y-8212016D01*
X8466016Y-8212016D01*
X8466016Y-8317984D01*
X8571984Y-8317984D01*
X8571984Y-10217984D02*
X8571984Y-10112016D01*
X8466016Y-10112016D01*
X8466016Y-10217984D01*
X8571984Y-10217984D01*
X8571984Y-12117984D02*
X8571984Y-12012016D01*
X8466016Y-12012016D01*
X8466016Y-12117984D01*
X8571984Y-12117984D01*
X9206984Y-6163984D02*
X9206984Y-6058016D01*
X9101016Y-6058016D01*
X9101016Y-6163984D01*
X9206984Y-6163984D01*
X9206984Y-8063984D02*
X9206984Y-7958016D01*
X9101016Y-7958016D01*
X9101016Y-8063984D01*
X9206984Y-8063984D01*
X9206984Y-9963984D02*
X9206984Y-9858016D01*
X9101016Y-9858016D01*
X9101016Y-9963984D01*
X9206984Y-9963984D01*
X9206984Y-11863984D02*
X9206984Y-11758016D01*
X9101016Y-11758016D01*
X9101016Y-11863984D01*
X9206984Y-11863984D01*
X10471984Y-6417984D02*
X10471984Y-6312016D01*
X10366016Y-6312016D01*
X10366016Y-6417984D01*
X10471984Y-6417984D01*
X10471984Y-8317984D02*
X10471984Y-8212016D01*
X10366016Y-8212016D01*
X10366016Y-8317984D01*
X10471984Y-8317984D01*
X10471984Y-10217984D02*
X10471984Y-10112016D01*
X10366016Y-10112016D01*
X10366016Y-10217984D01*
X10471984Y-10217984D01*
X10471984Y-12117984D02*
X10471984Y-12012016D01*
X10366016Y-12012016D01*
X10366016Y-12117984D01*
X10471984Y-12117984D01*
X11106984Y-6163984D02*
X11106984Y-6058016D01*
X11001016Y-6058016D01*
X11001016Y-6163984D01*
X11106984Y-6163984D01*
X11106984Y-8063984D02*
X11106984Y-7958016D01*
X11001016Y-7958016D01*
X11001016Y-8063984D01*
X11106984Y-8063984D01*
X11106984Y-9963984D02*
X11106984Y-9858016D01*
X11001016Y-9858016D01*
X11001016Y-9963984D01*
X11106984Y-9963984D01*
X11106984Y-11863984D02*
X11106984Y-11758016D01*
X11001016Y-11758016D01*
X11001016Y-11863984D01*
X11106984Y-11863984D01*
X12371984Y-6417984D02*
X12371984Y-6312016D01*
X12266016Y-6312016D01*
X12266016Y-6417984D01*
X12371984Y-6417984D01*
X12371984Y-8317984D02*
X12371984Y-8212016D01*
X12266016Y-8212016D01*
X12266016Y-8317984D01*
X12371984Y-8317984D01*
X12371984Y-10217984D02*
X12371984Y-10112016D01*
X12266016Y-10112016D01*
X12266016Y-10217984D01*
X12371984Y-10217984D01*
X12371984Y-12117984D02*
X12371984Y-12012016D01*
X12266016Y-12012016D01*
X12266016Y-12117984D01*
X12371984Y-12117984D01*
X13006984Y-6163984D02*
X13006984Y-6058016D01*
X12901016Y-6058016D01*
X12901016Y-6163984D01*
X13006984Y-6163984D01*
X13006984Y-8063984D02*
X13006984Y-7958016D01*
X12901016Y-7958016D01*
X12901016Y-8063984D01*
X13006984Y-8063984D01*
X13006984Y-9963984D02*
X13006984Y-9858016D01*
X12901016Y-9858016D01*
X12901016Y-9963984D01*
X13006984Y-9963984D01*
X13006984Y-11863984D02*
X13006984Y-11758016D01*
X12901016Y-11758016D01*
X12901016Y-11863984D01*
X13006984Y-11863984D01*
X14271984Y-6417984D02*
X14271984Y-6312016D01*
X14166016Y-6312016D01*
X14166016Y-6417984D01*
X14271984Y-6417984D01*
X14271984Y-8317984D02*
X14271984Y-8212016D01*
X14166016Y-8212016D01*
X14166016Y-8317984D01*
X14271984Y-8317984D01*
X14271984Y-10217984D02*
X14271984Y-10112016D01*
X14166016Y-10112016D01*
X14166016Y-10217984D01*
X14271984Y-10217984D01*
X14271984Y-12117984D02*
X14271984Y-12012016D01*
X14166016Y-12012016D01*
X14166016Y-12117984D01*
X14271984Y-12117984D01*
X14906984Y-6163984D02*
X14906984Y-6058016D01*
X14801016Y-6058016D01*
X14801016Y-6163984D01*
X14906984Y-6163984D01*
X14906984Y-8063984D02*
X14906984Y-7958016D01*
X14801016Y-7958016D01*
X14801016Y-8063984D01*
X14906984Y-8063984D01*
X14906984Y-9963984D02*
X14906984Y-9858016D01*
X14801016Y-9858016D01*
X14801016Y-9963984D01*
X14906984Y-9963984D01*
X14906984Y-11863984D02*
X14906984Y-11758016D01*
X14801016Y-11758016D01*
X14801016Y-11863984D01*
X14906984Y-11863984D01*
D14*
X14588000Y-4230000D02*
X14663000Y-4155000D01*
X14588000Y-4080000D01*
X14513000Y-4155000D01*
X14588000Y-4230000D01*
D11*
X14523000Y-4230000D02*
X14653000Y-4230000D01*
X14653000Y-4080000D02*
G75*
G02*
X14653000Y-4230000I0J-75000D01*
G01*
X14653000Y-4080000D02*
X14523000Y-4080000D01*
X14523000Y-4080000D02*
G75*
G03*
X14523000Y-4230000I0J-75000D01*
G01*
D14*
X14588000Y-5350000D02*
X14663000Y-5275000D01*
X14588000Y-5200000D01*
X14513000Y-5275000D01*
X14588000Y-5350000D01*
D11*
X14523000Y-5350000D02*
X14653000Y-5350000D01*
X14653000Y-5200000D02*
G75*
G02*
X14653000Y-5350000I0J-75000D01*
G01*
X14653000Y-5200000D02*
X14523000Y-5200000D01*
X14523000Y-5200000D02*
G75*
G03*
X14523000Y-5350000I0J-75000D01*
G01*
D12*
X8309521Y-13511562D02*
X8309521Y-13311562D01*
X8309521Y-13311562D02*
X8357140Y-13311562D01*
X8357140Y-13311562D02*
X8385711Y-13321086D01*
X8385711Y-13321086D02*
X8404759Y-13340134D01*
X8404759Y-13340134D02*
X8414283Y-13359181D01*
X8414283Y-13359181D02*
X8423807Y-13397277D01*
X8423807Y-13397277D02*
X8423807Y-13425848D01*
X8423807Y-13425848D02*
X8414283Y-13463943D01*
X8414283Y-13463943D02*
X8404759Y-13482991D01*
X8404759Y-13482991D02*
X8385711Y-13502039D01*
X8385711Y-13502039D02*
X8357140Y-13511562D01*
X8357140Y-13511562D02*
X8309521Y-13511562D01*
X8509521Y-13511562D02*
X8509521Y-13378229D01*
X8509521Y-13416324D02*
X8519045Y-13397277D01*
X8519045Y-13397277D02*
X8528569Y-13387753D01*
X8528569Y-13387753D02*
X8547616Y-13378229D01*
X8547616Y-13378229D02*
X8566664Y-13378229D01*
X8633331Y-13511562D02*
X8633331Y-13378229D01*
X8633331Y-13311562D02*
X8623807Y-13321086D01*
X8623807Y-13321086D02*
X8633331Y-13330610D01*
X8633331Y-13330610D02*
X8642854Y-13321086D01*
X8642854Y-13321086D02*
X8633331Y-13311562D01*
X8633331Y-13311562D02*
X8633331Y-13330610D01*
X8757140Y-13511562D02*
X8738092Y-13502039D01*
X8738092Y-13502039D02*
X8728569Y-13482991D01*
X8728569Y-13482991D02*
X8728569Y-13311562D01*
X8861902Y-13511562D02*
X8842854Y-13502039D01*
X8842854Y-13502039D02*
X8833331Y-13482991D01*
X8833331Y-13482991D02*
X8833331Y-13311562D01*
X9090473Y-13511562D02*
X9090473Y-13311562D01*
X9090473Y-13311562D02*
X9157140Y-13454419D01*
X9157140Y-13454419D02*
X9223807Y-13311562D01*
X9223807Y-13311562D02*
X9223807Y-13511562D01*
X9404759Y-13511562D02*
X9404759Y-13406800D01*
X9404759Y-13406800D02*
X9395235Y-13387753D01*
X9395235Y-13387753D02*
X9376188Y-13378229D01*
X9376188Y-13378229D02*
X9338092Y-13378229D01*
X9338092Y-13378229D02*
X9319045Y-13387753D01*
X9404759Y-13502039D02*
X9385712Y-13511562D01*
X9385712Y-13511562D02*
X9338092Y-13511562D01*
X9338092Y-13511562D02*
X9319045Y-13502039D01*
X9319045Y-13502039D02*
X9309521Y-13482991D01*
X9309521Y-13482991D02*
X9309521Y-13463943D01*
X9309521Y-13463943D02*
X9319045Y-13444896D01*
X9319045Y-13444896D02*
X9338092Y-13435372D01*
X9338092Y-13435372D02*
X9385712Y-13435372D01*
X9385712Y-13435372D02*
X9404759Y-13425848D01*
X9499997Y-13378229D02*
X9499997Y-13578229D01*
X9499997Y-13387753D02*
X9519045Y-13378229D01*
X9519045Y-13378229D02*
X9557140Y-13378229D01*
X9557140Y-13378229D02*
X9576188Y-13387753D01*
X9576188Y-13387753D02*
X9585712Y-13397277D01*
X9585712Y-13397277D02*
X9595235Y-13416324D01*
X9595235Y-13416324D02*
X9595235Y-13473467D01*
X9595235Y-13473467D02*
X9585712Y-13492515D01*
X9585712Y-13492515D02*
X9576188Y-13502039D01*
X9576188Y-13502039D02*
X9557140Y-13511562D01*
X9557140Y-13511562D02*
X9519045Y-13511562D01*
X9519045Y-13511562D02*
X9499997Y-13502039D01*
X9680950Y-13492515D02*
X9690473Y-13502039D01*
X9690473Y-13502039D02*
X9680950Y-13511562D01*
X9680950Y-13511562D02*
X9671426Y-13502039D01*
X9671426Y-13502039D02*
X9680950Y-13492515D01*
X9680950Y-13492515D02*
X9680950Y-13511562D01*
X9680950Y-13387753D02*
X9690473Y-13397277D01*
X9690473Y-13397277D02*
X9680950Y-13406800D01*
X9680950Y-13406800D02*
X9671426Y-13397277D01*
X9671426Y-13397277D02*
X9680950Y-13387753D01*
X9680950Y-13387753D02*
X9680950Y-13406800D01*
D11*
X8008744Y-13820079D02*
X8048744Y-13860079D01*
X8048744Y-13820079D02*
X8008744Y-13860079D01*
D12*
X8347616Y-13731562D02*
X8366664Y-13731562D01*
X8366664Y-13731562D02*
X8385711Y-13741086D01*
X8385711Y-13741086D02*
X8395235Y-13750610D01*
X8395235Y-13750610D02*
X8404759Y-13769658D01*
X8404759Y-13769658D02*
X8414283Y-13807753D01*
X8414283Y-13807753D02*
X8414283Y-13855372D01*
X8414283Y-13855372D02*
X8404759Y-13893467D01*
X8404759Y-13893467D02*
X8395235Y-13912515D01*
X8395235Y-13912515D02*
X8385711Y-13922039D01*
X8385711Y-13922039D02*
X8366664Y-13931562D01*
X8366664Y-13931562D02*
X8347616Y-13931562D01*
X8347616Y-13931562D02*
X8328569Y-13922039D01*
X8328569Y-13922039D02*
X8319045Y-13912515D01*
X8319045Y-13912515D02*
X8309521Y-13893467D01*
X8309521Y-13893467D02*
X8299997Y-13855372D01*
X8299997Y-13855372D02*
X8299997Y-13807753D01*
X8299997Y-13807753D02*
X8309521Y-13769658D01*
X8309521Y-13769658D02*
X8319045Y-13750610D01*
X8319045Y-13750610D02*
X8328569Y-13741086D01*
X8328569Y-13741086D02*
X8347616Y-13731562D01*
X8499997Y-13912515D02*
X8509521Y-13922039D01*
X8509521Y-13922039D02*
X8499997Y-13931562D01*
X8499997Y-13931562D02*
X8490473Y-13922039D01*
X8490473Y-13922039D02*
X8499997Y-13912515D01*
X8499997Y-13912515D02*
X8499997Y-13931562D01*
X8680950Y-13798229D02*
X8680950Y-13931562D01*
X8633331Y-13722039D02*
X8585712Y-13864896D01*
X8585712Y-13864896D02*
X8709521Y-13864896D01*
X8823807Y-13731562D02*
X8842854Y-13731562D01*
X8842854Y-13731562D02*
X8861902Y-13741086D01*
X8861902Y-13741086D02*
X8871426Y-13750610D01*
X8871426Y-13750610D02*
X8880950Y-13769658D01*
X8880950Y-13769658D02*
X8890473Y-13807753D01*
X8890473Y-13807753D02*
X8890473Y-13855372D01*
X8890473Y-13855372D02*
X8880950Y-13893467D01*
X8880950Y-13893467D02*
X8871426Y-13912515D01*
X8871426Y-13912515D02*
X8861902Y-13922039D01*
X8861902Y-13922039D02*
X8842854Y-13931562D01*
X8842854Y-13931562D02*
X8823807Y-13931562D01*
X8823807Y-13931562D02*
X8804759Y-13922039D01*
X8804759Y-13922039D02*
X8795235Y-13912515D01*
X8795235Y-13912515D02*
X8785712Y-13893467D01*
X8785712Y-13893467D02*
X8776188Y-13855372D01*
X8776188Y-13855372D02*
X8776188Y-13807753D01*
X8776188Y-13807753D02*
X8785712Y-13769658D01*
X8785712Y-13769658D02*
X8795235Y-13750610D01*
X8795235Y-13750610D02*
X8804759Y-13741086D01*
X8804759Y-13741086D02*
X8823807Y-13731562D01*
X9014283Y-13731562D02*
X9033331Y-13731562D01*
X9033331Y-13731562D02*
X9052378Y-13741086D01*
X9052378Y-13741086D02*
X9061902Y-13750610D01*
X9061902Y-13750610D02*
X9071426Y-13769658D01*
X9071426Y-13769658D02*
X9080950Y-13807753D01*
X9080950Y-13807753D02*
X9080950Y-13855372D01*
X9080950Y-13855372D02*
X9071426Y-13893467D01*
X9071426Y-13893467D02*
X9061902Y-13912515D01*
X9061902Y-13912515D02*
X9052378Y-13922039D01*
X9052378Y-13922039D02*
X9033331Y-13931562D01*
X9033331Y-13931562D02*
X9014283Y-13931562D01*
X9014283Y-13931562D02*
X8995235Y-13922039D01*
X8995235Y-13922039D02*
X8985712Y-13912515D01*
X8985712Y-13912515D02*
X8976188Y-13893467D01*
X8976188Y-13893467D02*
X8966664Y-13855372D01*
X8966664Y-13855372D02*
X8966664Y-13807753D01*
X8966664Y-13807753D02*
X8976188Y-13769658D01*
X8976188Y-13769658D02*
X8985712Y-13750610D01*
X8985712Y-13750610D02*
X8995235Y-13741086D01*
X8995235Y-13741086D02*
X9014283Y-13731562D01*
X9166664Y-13931562D02*
X9166664Y-13798229D01*
X9166664Y-13817277D02*
X9176188Y-13807753D01*
X9176188Y-13807753D02*
X9195235Y-13798229D01*
X9195235Y-13798229D02*
X9223807Y-13798229D01*
X9223807Y-13798229D02*
X9242854Y-13807753D01*
X9242854Y-13807753D02*
X9252378Y-13826800D01*
X9252378Y-13826800D02*
X9252378Y-13931562D01*
X9252378Y-13826800D02*
X9261902Y-13807753D01*
X9261902Y-13807753D02*
X9280950Y-13798229D01*
X9280950Y-13798229D02*
X9309521Y-13798229D01*
X9309521Y-13798229D02*
X9328569Y-13807753D01*
X9328569Y-13807753D02*
X9338093Y-13826800D01*
X9338093Y-13826800D02*
X9338093Y-13931562D01*
X9433331Y-13931562D02*
X9433331Y-13798229D01*
X9433331Y-13817277D02*
X9442854Y-13807753D01*
X9442854Y-13807753D02*
X9461902Y-13798229D01*
X9461902Y-13798229D02*
X9490474Y-13798229D01*
X9490474Y-13798229D02*
X9509521Y-13807753D01*
X9509521Y-13807753D02*
X9519045Y-13826800D01*
X9519045Y-13826800D02*
X9519045Y-13931562D01*
X9519045Y-13826800D02*
X9528569Y-13807753D01*
X9528569Y-13807753D02*
X9547616Y-13798229D01*
X9547616Y-13798229D02*
X9576188Y-13798229D01*
X9576188Y-13798229D02*
X9595235Y-13807753D01*
X9595235Y-13807753D02*
X9604759Y-13826800D01*
X9604759Y-13826800D02*
X9604759Y-13931562D01*
X9995235Y-13722039D02*
X9823807Y-13979181D01*
X10252378Y-13731562D02*
X10271426Y-13731562D01*
X10271426Y-13731562D02*
X10290474Y-13741086D01*
X10290474Y-13741086D02*
X10299997Y-13750610D01*
X10299997Y-13750610D02*
X10309521Y-13769658D01*
X10309521Y-13769658D02*
X10319045Y-13807753D01*
X10319045Y-13807753D02*
X10319045Y-13855372D01*
X10319045Y-13855372D02*
X10309521Y-13893467D01*
X10309521Y-13893467D02*
X10299997Y-13912515D01*
X10299997Y-13912515D02*
X10290474Y-13922039D01*
X10290474Y-13922039D02*
X10271426Y-13931562D01*
X10271426Y-13931562D02*
X10252378Y-13931562D01*
X10252378Y-13931562D02*
X10233331Y-13922039D01*
X10233331Y-13922039D02*
X10223807Y-13912515D01*
X10223807Y-13912515D02*
X10214283Y-13893467D01*
X10214283Y-13893467D02*
X10204759Y-13855372D01*
X10204759Y-13855372D02*
X10204759Y-13807753D01*
X10204759Y-13807753D02*
X10214283Y-13769658D01*
X10214283Y-13769658D02*
X10223807Y-13750610D01*
X10223807Y-13750610D02*
X10233331Y-13741086D01*
X10233331Y-13741086D02*
X10252378Y-13731562D01*
X10404759Y-13912515D02*
X10414283Y-13922039D01*
X10414283Y-13922039D02*
X10404759Y-13931562D01*
X10404759Y-13931562D02*
X10395236Y-13922039D01*
X10395236Y-13922039D02*
X10404759Y-13912515D01*
X10404759Y-13912515D02*
X10404759Y-13931562D01*
X10538093Y-13731562D02*
X10557140Y-13731562D01*
X10557140Y-13731562D02*
X10576188Y-13741086D01*
X10576188Y-13741086D02*
X10585712Y-13750610D01*
X10585712Y-13750610D02*
X10595236Y-13769658D01*
X10595236Y-13769658D02*
X10604759Y-13807753D01*
X10604759Y-13807753D02*
X10604759Y-13855372D01*
X10604759Y-13855372D02*
X10595236Y-13893467D01*
X10595236Y-13893467D02*
X10585712Y-13912515D01*
X10585712Y-13912515D02*
X10576188Y-13922039D01*
X10576188Y-13922039D02*
X10557140Y-13931562D01*
X10557140Y-13931562D02*
X10538093Y-13931562D01*
X10538093Y-13931562D02*
X10519045Y-13922039D01*
X10519045Y-13922039D02*
X10509521Y-13912515D01*
X10509521Y-13912515D02*
X10499997Y-13893467D01*
X10499997Y-13893467D02*
X10490474Y-13855372D01*
X10490474Y-13855372D02*
X10490474Y-13807753D01*
X10490474Y-13807753D02*
X10499997Y-13769658D01*
X10499997Y-13769658D02*
X10509521Y-13750610D01*
X10509521Y-13750610D02*
X10519045Y-13741086D01*
X10519045Y-13741086D02*
X10538093Y-13731562D01*
X10795236Y-13931562D02*
X10680950Y-13931562D01*
X10738093Y-13931562D02*
X10738093Y-13731562D01*
X10738093Y-13731562D02*
X10719045Y-13760134D01*
X10719045Y-13760134D02*
X10699997Y-13779181D01*
X10699997Y-13779181D02*
X10680950Y-13788705D01*
X10976188Y-13731562D02*
X10880950Y-13731562D01*
X10880950Y-13731562D02*
X10871426Y-13826800D01*
X10871426Y-13826800D02*
X10880950Y-13817277D01*
X10880950Y-13817277D02*
X10899997Y-13807753D01*
X10899997Y-13807753D02*
X10947617Y-13807753D01*
X10947617Y-13807753D02*
X10966664Y-13817277D01*
X10966664Y-13817277D02*
X10976188Y-13826800D01*
X10976188Y-13826800D02*
X10985712Y-13845848D01*
X10985712Y-13845848D02*
X10985712Y-13893467D01*
X10985712Y-13893467D02*
X10976188Y-13912515D01*
X10976188Y-13912515D02*
X10966664Y-13922039D01*
X10966664Y-13922039D02*
X10947617Y-13931562D01*
X10947617Y-13931562D02*
X10899997Y-13931562D01*
X10899997Y-13931562D02*
X10880950Y-13922039D01*
X10880950Y-13922039D02*
X10871426Y-13912515D01*
X11052378Y-13731562D02*
X11185712Y-13731562D01*
X11185712Y-13731562D02*
X11099997Y-13931562D01*
X11252378Y-13731562D02*
X11252378Y-13769658D01*
X11328569Y-13731562D02*
X11328569Y-13769658D01*
X11623807Y-14007753D02*
X11614283Y-13998229D01*
X11614283Y-13998229D02*
X11595236Y-13969658D01*
X11595236Y-13969658D02*
X11585712Y-13950610D01*
X11585712Y-13950610D02*
X11576188Y-13922039D01*
X11576188Y-13922039D02*
X11566664Y-13874419D01*
X11566664Y-13874419D02*
X11566664Y-13836324D01*
X11566664Y-13836324D02*
X11576188Y-13788705D01*
X11576188Y-13788705D02*
X11585712Y-13760134D01*
X11585712Y-13760134D02*
X11595236Y-13741086D01*
X11595236Y-13741086D02*
X11614283Y-13712515D01*
X11614283Y-13712515D02*
X11623807Y-13702991D01*
X11709521Y-13931562D02*
X11747616Y-13931562D01*
X11747616Y-13931562D02*
X11766664Y-13922039D01*
X11766664Y-13922039D02*
X11776188Y-13912515D01*
X11776188Y-13912515D02*
X11795236Y-13883943D01*
X11795236Y-13883943D02*
X11804759Y-13845848D01*
X11804759Y-13845848D02*
X11804759Y-13769658D01*
X11804759Y-13769658D02*
X11795236Y-13750610D01*
X11795236Y-13750610D02*
X11785712Y-13741086D01*
X11785712Y-13741086D02*
X11766664Y-13731562D01*
X11766664Y-13731562D02*
X11728569Y-13731562D01*
X11728569Y-13731562D02*
X11709521Y-13741086D01*
X11709521Y-13741086D02*
X11699997Y-13750610D01*
X11699997Y-13750610D02*
X11690474Y-13769658D01*
X11690474Y-13769658D02*
X11690474Y-13817277D01*
X11690474Y-13817277D02*
X11699997Y-13836324D01*
X11699997Y-13836324D02*
X11709521Y-13845848D01*
X11709521Y-13845848D02*
X11728569Y-13855372D01*
X11728569Y-13855372D02*
X11766664Y-13855372D01*
X11766664Y-13855372D02*
X11785712Y-13845848D01*
X11785712Y-13845848D02*
X11795236Y-13836324D01*
X11795236Y-13836324D02*
X11804759Y-13817277D01*
X12042855Y-13931562D02*
X12042855Y-13731562D01*
X12128569Y-13931562D02*
X12128569Y-13826800D01*
X12128569Y-13826800D02*
X12119045Y-13807753D01*
X12119045Y-13807753D02*
X12099998Y-13798229D01*
X12099998Y-13798229D02*
X12071426Y-13798229D01*
X12071426Y-13798229D02*
X12052378Y-13807753D01*
X12052378Y-13807753D02*
X12042855Y-13817277D01*
X12252378Y-13931562D02*
X12233331Y-13922039D01*
X12233331Y-13922039D02*
X12223807Y-13912515D01*
X12223807Y-13912515D02*
X12214283Y-13893467D01*
X12214283Y-13893467D02*
X12214283Y-13836324D01*
X12214283Y-13836324D02*
X12223807Y-13817277D01*
X12223807Y-13817277D02*
X12233331Y-13807753D01*
X12233331Y-13807753D02*
X12252378Y-13798229D01*
X12252378Y-13798229D02*
X12280950Y-13798229D01*
X12280950Y-13798229D02*
X12299998Y-13807753D01*
X12299998Y-13807753D02*
X12309521Y-13817277D01*
X12309521Y-13817277D02*
X12319045Y-13836324D01*
X12319045Y-13836324D02*
X12319045Y-13893467D01*
X12319045Y-13893467D02*
X12309521Y-13912515D01*
X12309521Y-13912515D02*
X12299998Y-13922039D01*
X12299998Y-13922039D02*
X12280950Y-13931562D01*
X12280950Y-13931562D02*
X12252378Y-13931562D01*
X12433331Y-13931562D02*
X12414283Y-13922039D01*
X12414283Y-13922039D02*
X12404759Y-13902991D01*
X12404759Y-13902991D02*
X12404759Y-13731562D01*
X12585712Y-13922039D02*
X12566664Y-13931562D01*
X12566664Y-13931562D02*
X12528569Y-13931562D01*
X12528569Y-13931562D02*
X12509521Y-13922039D01*
X12509521Y-13922039D02*
X12499998Y-13902991D01*
X12499998Y-13902991D02*
X12499998Y-13826800D01*
X12499998Y-13826800D02*
X12509521Y-13807753D01*
X12509521Y-13807753D02*
X12528569Y-13798229D01*
X12528569Y-13798229D02*
X12566664Y-13798229D01*
X12566664Y-13798229D02*
X12585712Y-13807753D01*
X12585712Y-13807753D02*
X12595236Y-13826800D01*
X12595236Y-13826800D02*
X12595236Y-13845848D01*
X12595236Y-13845848D02*
X12499998Y-13864896D01*
X12671426Y-13922039D02*
X12690474Y-13931562D01*
X12690474Y-13931562D02*
X12728569Y-13931562D01*
X12728569Y-13931562D02*
X12747617Y-13922039D01*
X12747617Y-13922039D02*
X12757140Y-13902991D01*
X12757140Y-13902991D02*
X12757140Y-13893467D01*
X12757140Y-13893467D02*
X12747617Y-13874419D01*
X12747617Y-13874419D02*
X12728569Y-13864896D01*
X12728569Y-13864896D02*
X12699998Y-13864896D01*
X12699998Y-13864896D02*
X12680950Y-13855372D01*
X12680950Y-13855372D02*
X12671426Y-13836324D01*
X12671426Y-13836324D02*
X12671426Y-13826800D01*
X12671426Y-13826800D02*
X12680950Y-13807753D01*
X12680950Y-13807753D02*
X12699998Y-13798229D01*
X12699998Y-13798229D02*
X12728569Y-13798229D01*
X12728569Y-13798229D02*
X12747617Y-13807753D01*
X12823807Y-14007753D02*
X12833331Y-13998229D01*
X12833331Y-13998229D02*
X12852379Y-13969658D01*
X12852379Y-13969658D02*
X12861902Y-13950610D01*
X12861902Y-13950610D02*
X12871426Y-13922039D01*
X12871426Y-13922039D02*
X12880950Y-13874419D01*
X12880950Y-13874419D02*
X12880950Y-13836324D01*
X12880950Y-13836324D02*
X12871426Y-13788705D01*
X12871426Y-13788705D02*
X12861902Y-13760134D01*
X12861902Y-13760134D02*
X12852379Y-13741086D01*
X12852379Y-13741086D02*
X12833331Y-13712515D01*
X12833331Y-13712515D02*
X12823807Y-13702991D01*
D11*
X8048744Y-14104079D02*
G75*
G02*
X7949684Y-14104079I-49530J0D01*
G01*
X7949684Y-14104079D02*
G75*
G02*
X8048744Y-14104079I49530J0D01*
G01*
D12*
X8347616Y-13995562D02*
X8366664Y-13995562D01*
X8366664Y-13995562D02*
X8385711Y-14005086D01*
X8385711Y-14005086D02*
X8395235Y-14014610D01*
X8395235Y-14014610D02*
X8404759Y-14033658D01*
X8404759Y-14033658D02*
X8414283Y-14071753D01*
X8414283Y-14071753D02*
X8414283Y-14119372D01*
X8414283Y-14119372D02*
X8404759Y-14157467D01*
X8404759Y-14157467D02*
X8395235Y-14176515D01*
X8395235Y-14176515D02*
X8385711Y-14186039D01*
X8385711Y-14186039D02*
X8366664Y-14195562D01*
X8366664Y-14195562D02*
X8347616Y-14195562D01*
X8347616Y-14195562D02*
X8328569Y-14186039D01*
X8328569Y-14186039D02*
X8319045Y-14176515D01*
X8319045Y-14176515D02*
X8309521Y-14157467D01*
X8309521Y-14157467D02*
X8299997Y-14119372D01*
X8299997Y-14119372D02*
X8299997Y-14071753D01*
X8299997Y-14071753D02*
X8309521Y-14033658D01*
X8309521Y-14033658D02*
X8319045Y-14014610D01*
X8319045Y-14014610D02*
X8328569Y-14005086D01*
X8328569Y-14005086D02*
X8347616Y-13995562D01*
X8499997Y-14176515D02*
X8509521Y-14186039D01*
X8509521Y-14186039D02*
X8499997Y-14195562D01*
X8499997Y-14195562D02*
X8490473Y-14186039D01*
X8490473Y-14186039D02*
X8499997Y-14176515D01*
X8499997Y-14176515D02*
X8499997Y-14195562D01*
X8604759Y-14195562D02*
X8642854Y-14195562D01*
X8642854Y-14195562D02*
X8661902Y-14186039D01*
X8661902Y-14186039D02*
X8671426Y-14176515D01*
X8671426Y-14176515D02*
X8690473Y-14147943D01*
X8690473Y-14147943D02*
X8699997Y-14109848D01*
X8699997Y-14109848D02*
X8699997Y-14033658D01*
X8699997Y-14033658D02*
X8690473Y-14014610D01*
X8690473Y-14014610D02*
X8680950Y-14005086D01*
X8680950Y-14005086D02*
X8661902Y-13995562D01*
X8661902Y-13995562D02*
X8623807Y-13995562D01*
X8623807Y-13995562D02*
X8604759Y-14005086D01*
X8604759Y-14005086D02*
X8595235Y-14014610D01*
X8595235Y-14014610D02*
X8585712Y-14033658D01*
X8585712Y-14033658D02*
X8585712Y-14081277D01*
X8585712Y-14081277D02*
X8595235Y-14100324D01*
X8595235Y-14100324D02*
X8604759Y-14109848D01*
X8604759Y-14109848D02*
X8623807Y-14119372D01*
X8623807Y-14119372D02*
X8661902Y-14119372D01*
X8661902Y-14119372D02*
X8680950Y-14109848D01*
X8680950Y-14109848D02*
X8690473Y-14100324D01*
X8690473Y-14100324D02*
X8699997Y-14081277D01*
X8795235Y-14195562D02*
X8833331Y-14195562D01*
X8833331Y-14195562D02*
X8852378Y-14186039D01*
X8852378Y-14186039D02*
X8861902Y-14176515D01*
X8861902Y-14176515D02*
X8880950Y-14147943D01*
X8880950Y-14147943D02*
X8890473Y-14109848D01*
X8890473Y-14109848D02*
X8890473Y-14033658D01*
X8890473Y-14033658D02*
X8880950Y-14014610D01*
X8880950Y-14014610D02*
X8871426Y-14005086D01*
X8871426Y-14005086D02*
X8852378Y-13995562D01*
X8852378Y-13995562D02*
X8814283Y-13995562D01*
X8814283Y-13995562D02*
X8795235Y-14005086D01*
X8795235Y-14005086D02*
X8785712Y-14014610D01*
X8785712Y-14014610D02*
X8776188Y-14033658D01*
X8776188Y-14033658D02*
X8776188Y-14081277D01*
X8776188Y-14081277D02*
X8785712Y-14100324D01*
X8785712Y-14100324D02*
X8795235Y-14109848D01*
X8795235Y-14109848D02*
X8814283Y-14119372D01*
X8814283Y-14119372D02*
X8852378Y-14119372D01*
X8852378Y-14119372D02*
X8871426Y-14109848D01*
X8871426Y-14109848D02*
X8880950Y-14100324D01*
X8880950Y-14100324D02*
X8890473Y-14081277D01*
X9080950Y-14195562D02*
X8966664Y-14195562D01*
X9023807Y-14195562D02*
X9023807Y-13995562D01*
X9023807Y-13995562D02*
X9004759Y-14024134D01*
X9004759Y-14024134D02*
X8985712Y-14043181D01*
X8985712Y-14043181D02*
X8966664Y-14052705D01*
X9166664Y-14195562D02*
X9166664Y-14062229D01*
X9166664Y-14081277D02*
X9176188Y-14071753D01*
X9176188Y-14071753D02*
X9195235Y-14062229D01*
X9195235Y-14062229D02*
X9223807Y-14062229D01*
X9223807Y-14062229D02*
X9242854Y-14071753D01*
X9242854Y-14071753D02*
X9252378Y-14090800D01*
X9252378Y-14090800D02*
X9252378Y-14195562D01*
X9252378Y-14090800D02*
X9261902Y-14071753D01*
X9261902Y-14071753D02*
X9280950Y-14062229D01*
X9280950Y-14062229D02*
X9309521Y-14062229D01*
X9309521Y-14062229D02*
X9328569Y-14071753D01*
X9328569Y-14071753D02*
X9338093Y-14090800D01*
X9338093Y-14090800D02*
X9338093Y-14195562D01*
X9433331Y-14195562D02*
X9433331Y-14062229D01*
X9433331Y-14081277D02*
X9442854Y-14071753D01*
X9442854Y-14071753D02*
X9461902Y-14062229D01*
X9461902Y-14062229D02*
X9490474Y-14062229D01*
X9490474Y-14062229D02*
X9509521Y-14071753D01*
X9509521Y-14071753D02*
X9519045Y-14090800D01*
X9519045Y-14090800D02*
X9519045Y-14195562D01*
X9519045Y-14090800D02*
X9528569Y-14071753D01*
X9528569Y-14071753D02*
X9547616Y-14062229D01*
X9547616Y-14062229D02*
X9576188Y-14062229D01*
X9576188Y-14062229D02*
X9595235Y-14071753D01*
X9595235Y-14071753D02*
X9604759Y-14090800D01*
X9604759Y-14090800D02*
X9604759Y-14195562D01*
X9995235Y-13986039D02*
X9823807Y-14243181D01*
X10252378Y-13995562D02*
X10271426Y-13995562D01*
X10271426Y-13995562D02*
X10290474Y-14005086D01*
X10290474Y-14005086D02*
X10299997Y-14014610D01*
X10299997Y-14014610D02*
X10309521Y-14033658D01*
X10309521Y-14033658D02*
X10319045Y-14071753D01*
X10319045Y-14071753D02*
X10319045Y-14119372D01*
X10319045Y-14119372D02*
X10309521Y-14157467D01*
X10309521Y-14157467D02*
X10299997Y-14176515D01*
X10299997Y-14176515D02*
X10290474Y-14186039D01*
X10290474Y-14186039D02*
X10271426Y-14195562D01*
X10271426Y-14195562D02*
X10252378Y-14195562D01*
X10252378Y-14195562D02*
X10233331Y-14186039D01*
X10233331Y-14186039D02*
X10223807Y-14176515D01*
X10223807Y-14176515D02*
X10214283Y-14157467D01*
X10214283Y-14157467D02*
X10204759Y-14119372D01*
X10204759Y-14119372D02*
X10204759Y-14071753D01*
X10204759Y-14071753D02*
X10214283Y-14033658D01*
X10214283Y-14033658D02*
X10223807Y-14014610D01*
X10223807Y-14014610D02*
X10233331Y-14005086D01*
X10233331Y-14005086D02*
X10252378Y-13995562D01*
X10404759Y-14176515D02*
X10414283Y-14186039D01*
X10414283Y-14186039D02*
X10404759Y-14195562D01*
X10404759Y-14195562D02*
X10395236Y-14186039D01*
X10395236Y-14186039D02*
X10404759Y-14176515D01*
X10404759Y-14176515D02*
X10404759Y-14195562D01*
X10538093Y-13995562D02*
X10557140Y-13995562D01*
X10557140Y-13995562D02*
X10576188Y-14005086D01*
X10576188Y-14005086D02*
X10585712Y-14014610D01*
X10585712Y-14014610D02*
X10595236Y-14033658D01*
X10595236Y-14033658D02*
X10604759Y-14071753D01*
X10604759Y-14071753D02*
X10604759Y-14119372D01*
X10604759Y-14119372D02*
X10595236Y-14157467D01*
X10595236Y-14157467D02*
X10585712Y-14176515D01*
X10585712Y-14176515D02*
X10576188Y-14186039D01*
X10576188Y-14186039D02*
X10557140Y-14195562D01*
X10557140Y-14195562D02*
X10538093Y-14195562D01*
X10538093Y-14195562D02*
X10519045Y-14186039D01*
X10519045Y-14186039D02*
X10509521Y-14176515D01*
X10509521Y-14176515D02*
X10499997Y-14157467D01*
X10499997Y-14157467D02*
X10490474Y-14119372D01*
X10490474Y-14119372D02*
X10490474Y-14071753D01*
X10490474Y-14071753D02*
X10499997Y-14033658D01*
X10499997Y-14033658D02*
X10509521Y-14014610D01*
X10509521Y-14014610D02*
X10519045Y-14005086D01*
X10519045Y-14005086D02*
X10538093Y-13995562D01*
X10671426Y-13995562D02*
X10795236Y-13995562D01*
X10795236Y-13995562D02*
X10728569Y-14071753D01*
X10728569Y-14071753D02*
X10757140Y-14071753D01*
X10757140Y-14071753D02*
X10776188Y-14081277D01*
X10776188Y-14081277D02*
X10785712Y-14090800D01*
X10785712Y-14090800D02*
X10795236Y-14109848D01*
X10795236Y-14109848D02*
X10795236Y-14157467D01*
X10795236Y-14157467D02*
X10785712Y-14176515D01*
X10785712Y-14176515D02*
X10776188Y-14186039D01*
X10776188Y-14186039D02*
X10757140Y-14195562D01*
X10757140Y-14195562D02*
X10699997Y-14195562D01*
X10699997Y-14195562D02*
X10680950Y-14186039D01*
X10680950Y-14186039D02*
X10671426Y-14176515D01*
X10890474Y-14195562D02*
X10928569Y-14195562D01*
X10928569Y-14195562D02*
X10947617Y-14186039D01*
X10947617Y-14186039D02*
X10957140Y-14176515D01*
X10957140Y-14176515D02*
X10976188Y-14147943D01*
X10976188Y-14147943D02*
X10985712Y-14109848D01*
X10985712Y-14109848D02*
X10985712Y-14033658D01*
X10985712Y-14033658D02*
X10976188Y-14014610D01*
X10976188Y-14014610D02*
X10966664Y-14005086D01*
X10966664Y-14005086D02*
X10947617Y-13995562D01*
X10947617Y-13995562D02*
X10909521Y-13995562D01*
X10909521Y-13995562D02*
X10890474Y-14005086D01*
X10890474Y-14005086D02*
X10880950Y-14014610D01*
X10880950Y-14014610D02*
X10871426Y-14033658D01*
X10871426Y-14033658D02*
X10871426Y-14081277D01*
X10871426Y-14081277D02*
X10880950Y-14100324D01*
X10880950Y-14100324D02*
X10890474Y-14109848D01*
X10890474Y-14109848D02*
X10909521Y-14119372D01*
X10909521Y-14119372D02*
X10947617Y-14119372D01*
X10947617Y-14119372D02*
X10966664Y-14109848D01*
X10966664Y-14109848D02*
X10976188Y-14100324D01*
X10976188Y-14100324D02*
X10985712Y-14081277D01*
X11109521Y-13995562D02*
X11128569Y-13995562D01*
X11128569Y-13995562D02*
X11147617Y-14005086D01*
X11147617Y-14005086D02*
X11157140Y-14014610D01*
X11157140Y-14014610D02*
X11166664Y-14033658D01*
X11166664Y-14033658D02*
X11176188Y-14071753D01*
X11176188Y-14071753D02*
X11176188Y-14119372D01*
X11176188Y-14119372D02*
X11166664Y-14157467D01*
X11166664Y-14157467D02*
X11157140Y-14176515D01*
X11157140Y-14176515D02*
X11147617Y-14186039D01*
X11147617Y-14186039D02*
X11128569Y-14195562D01*
X11128569Y-14195562D02*
X11109521Y-14195562D01*
X11109521Y-14195562D02*
X11090474Y-14186039D01*
X11090474Y-14186039D02*
X11080950Y-14176515D01*
X11080950Y-14176515D02*
X11071426Y-14157467D01*
X11071426Y-14157467D02*
X11061902Y-14119372D01*
X11061902Y-14119372D02*
X11061902Y-14071753D01*
X11061902Y-14071753D02*
X11071426Y-14033658D01*
X11071426Y-14033658D02*
X11080950Y-14014610D01*
X11080950Y-14014610D02*
X11090474Y-14005086D01*
X11090474Y-14005086D02*
X11109521Y-13995562D01*
X11252378Y-13995562D02*
X11252378Y-14033658D01*
X11328569Y-13995562D02*
X11328569Y-14033658D01*
X11623807Y-14271753D02*
X11614283Y-14262229D01*
X11614283Y-14262229D02*
X11595236Y-14233658D01*
X11595236Y-14233658D02*
X11585712Y-14214610D01*
X11585712Y-14214610D02*
X11576188Y-14186039D01*
X11576188Y-14186039D02*
X11566664Y-14138419D01*
X11566664Y-14138419D02*
X11566664Y-14100324D01*
X11566664Y-14100324D02*
X11576188Y-14052705D01*
X11576188Y-14052705D02*
X11585712Y-14024134D01*
X11585712Y-14024134D02*
X11595236Y-14005086D01*
X11595236Y-14005086D02*
X11614283Y-13976515D01*
X11614283Y-13976515D02*
X11623807Y-13966991D01*
X11680950Y-13995562D02*
X11804759Y-13995562D01*
X11804759Y-13995562D02*
X11738093Y-14071753D01*
X11738093Y-14071753D02*
X11766664Y-14071753D01*
X11766664Y-14071753D02*
X11785712Y-14081277D01*
X11785712Y-14081277D02*
X11795236Y-14090800D01*
X11795236Y-14090800D02*
X11804759Y-14109848D01*
X11804759Y-14109848D02*
X11804759Y-14157467D01*
X11804759Y-14157467D02*
X11795236Y-14176515D01*
X11795236Y-14176515D02*
X11785712Y-14186039D01*
X11785712Y-14186039D02*
X11766664Y-14195562D01*
X11766664Y-14195562D02*
X11709521Y-14195562D01*
X11709521Y-14195562D02*
X11690474Y-14186039D01*
X11690474Y-14186039D02*
X11680950Y-14176515D01*
X11976188Y-14062229D02*
X11976188Y-14195562D01*
X11928569Y-13986039D02*
X11880950Y-14128896D01*
X11880950Y-14128896D02*
X12004759Y-14128896D01*
X12233331Y-14195562D02*
X12233331Y-13995562D01*
X12319045Y-14195562D02*
X12319045Y-14090800D01*
X12319045Y-14090800D02*
X12309521Y-14071753D01*
X12309521Y-14071753D02*
X12290474Y-14062229D01*
X12290474Y-14062229D02*
X12261902Y-14062229D01*
X12261902Y-14062229D02*
X12242855Y-14071753D01*
X12242855Y-14071753D02*
X12233331Y-14081277D01*
X12442855Y-14195562D02*
X12423807Y-14186039D01*
X12423807Y-14186039D02*
X12414283Y-14176515D01*
X12414283Y-14176515D02*
X12404759Y-14157467D01*
X12404759Y-14157467D02*
X12404759Y-14100324D01*
X12404759Y-14100324D02*
X12414283Y-14081277D01*
X12414283Y-14081277D02*
X12423807Y-14071753D01*
X12423807Y-14071753D02*
X12442855Y-14062229D01*
X12442855Y-14062229D02*
X12471426Y-14062229D01*
X12471426Y-14062229D02*
X12490474Y-14071753D01*
X12490474Y-14071753D02*
X12499998Y-14081277D01*
X12499998Y-14081277D02*
X12509521Y-14100324D01*
X12509521Y-14100324D02*
X12509521Y-14157467D01*
X12509521Y-14157467D02*
X12499998Y-14176515D01*
X12499998Y-14176515D02*
X12490474Y-14186039D01*
X12490474Y-14186039D02*
X12471426Y-14195562D01*
X12471426Y-14195562D02*
X12442855Y-14195562D01*
X12623807Y-14195562D02*
X12604759Y-14186039D01*
X12604759Y-14186039D02*
X12595236Y-14166991D01*
X12595236Y-14166991D02*
X12595236Y-13995562D01*
X12776188Y-14186039D02*
X12757140Y-14195562D01*
X12757140Y-14195562D02*
X12719045Y-14195562D01*
X12719045Y-14195562D02*
X12699998Y-14186039D01*
X12699998Y-14186039D02*
X12690474Y-14166991D01*
X12690474Y-14166991D02*
X12690474Y-14090800D01*
X12690474Y-14090800D02*
X12699998Y-14071753D01*
X12699998Y-14071753D02*
X12719045Y-14062229D01*
X12719045Y-14062229D02*
X12757140Y-14062229D01*
X12757140Y-14062229D02*
X12776188Y-14071753D01*
X12776188Y-14071753D02*
X12785712Y-14090800D01*
X12785712Y-14090800D02*
X12785712Y-14109848D01*
X12785712Y-14109848D02*
X12690474Y-14128896D01*
X12861902Y-14186039D02*
X12880950Y-14195562D01*
X12880950Y-14195562D02*
X12919045Y-14195562D01*
X12919045Y-14195562D02*
X12938093Y-14186039D01*
X12938093Y-14186039D02*
X12947617Y-14166991D01*
X12947617Y-14166991D02*
X12947617Y-14157467D01*
X12947617Y-14157467D02*
X12938093Y-14138419D01*
X12938093Y-14138419D02*
X12919045Y-14128896D01*
X12919045Y-14128896D02*
X12890474Y-14128896D01*
X12890474Y-14128896D02*
X12871426Y-14119372D01*
X12871426Y-14119372D02*
X12861902Y-14100324D01*
X12861902Y-14100324D02*
X12861902Y-14090800D01*
X12861902Y-14090800D02*
X12871426Y-14071753D01*
X12871426Y-14071753D02*
X12890474Y-14062229D01*
X12890474Y-14062229D02*
X12919045Y-14062229D01*
X12919045Y-14062229D02*
X12938093Y-14071753D01*
X13014283Y-14271753D02*
X13023807Y-14262229D01*
X13023807Y-14262229D02*
X13042855Y-14233658D01*
X13042855Y-14233658D02*
X13052379Y-14214610D01*
X13052379Y-14214610D02*
X13061902Y-14186039D01*
X13061902Y-14186039D02*
X13071426Y-14138419D01*
X13071426Y-14138419D02*
X13071426Y-14100324D01*
X13071426Y-14100324D02*
X13061902Y-14052705D01*
X13061902Y-14052705D02*
X13052379Y-14024134D01*
X13052379Y-14024134D02*
X13042855Y-14005086D01*
X13042855Y-14005086D02*
X13023807Y-13976515D01*
X13023807Y-13976515D02*
X13014283Y-13966991D01*
D11*
X7998744Y-14318079D02*
X7998744Y-14418079D01*
X7948744Y-14368079D02*
X8048744Y-14368079D01*
D12*
X8414283Y-14459562D02*
X8299997Y-14459562D01*
X8357140Y-14459562D02*
X8357140Y-14259562D01*
X8357140Y-14259562D02*
X8338092Y-14288134D01*
X8338092Y-14288134D02*
X8319045Y-14307181D01*
X8319045Y-14307181D02*
X8299997Y-14316705D01*
X8499997Y-14440515D02*
X8509521Y-14450039D01*
X8509521Y-14450039D02*
X8499997Y-14459562D01*
X8499997Y-14459562D02*
X8490473Y-14450039D01*
X8490473Y-14450039D02*
X8499997Y-14440515D01*
X8499997Y-14440515D02*
X8499997Y-14459562D01*
X8633331Y-14259562D02*
X8652378Y-14259562D01*
X8652378Y-14259562D02*
X8671426Y-14269086D01*
X8671426Y-14269086D02*
X8680950Y-14278610D01*
X8680950Y-14278610D02*
X8690473Y-14297658D01*
X8690473Y-14297658D02*
X8699997Y-14335753D01*
X8699997Y-14335753D02*
X8699997Y-14383372D01*
X8699997Y-14383372D02*
X8690473Y-14421467D01*
X8690473Y-14421467D02*
X8680950Y-14440515D01*
X8680950Y-14440515D02*
X8671426Y-14450039D01*
X8671426Y-14450039D02*
X8652378Y-14459562D01*
X8652378Y-14459562D02*
X8633331Y-14459562D01*
X8633331Y-14459562D02*
X8614283Y-14450039D01*
X8614283Y-14450039D02*
X8604759Y-14440515D01*
X8604759Y-14440515D02*
X8595235Y-14421467D01*
X8595235Y-14421467D02*
X8585712Y-14383372D01*
X8585712Y-14383372D02*
X8585712Y-14335753D01*
X8585712Y-14335753D02*
X8595235Y-14297658D01*
X8595235Y-14297658D02*
X8604759Y-14278610D01*
X8604759Y-14278610D02*
X8614283Y-14269086D01*
X8614283Y-14269086D02*
X8633331Y-14259562D01*
X8823807Y-14259562D02*
X8842854Y-14259562D01*
X8842854Y-14259562D02*
X8861902Y-14269086D01*
X8861902Y-14269086D02*
X8871426Y-14278610D01*
X8871426Y-14278610D02*
X8880950Y-14297658D01*
X8880950Y-14297658D02*
X8890473Y-14335753D01*
X8890473Y-14335753D02*
X8890473Y-14383372D01*
X8890473Y-14383372D02*
X8880950Y-14421467D01*
X8880950Y-14421467D02*
X8871426Y-14440515D01*
X8871426Y-14440515D02*
X8861902Y-14450039D01*
X8861902Y-14450039D02*
X8842854Y-14459562D01*
X8842854Y-14459562D02*
X8823807Y-14459562D01*
X8823807Y-14459562D02*
X8804759Y-14450039D01*
X8804759Y-14450039D02*
X8795235Y-14440515D01*
X8795235Y-14440515D02*
X8785712Y-14421467D01*
X8785712Y-14421467D02*
X8776188Y-14383372D01*
X8776188Y-14383372D02*
X8776188Y-14335753D01*
X8776188Y-14335753D02*
X8785712Y-14297658D01*
X8785712Y-14297658D02*
X8795235Y-14278610D01*
X8795235Y-14278610D02*
X8804759Y-14269086D01*
X8804759Y-14269086D02*
X8823807Y-14259562D01*
X9014283Y-14259562D02*
X9033331Y-14259562D01*
X9033331Y-14259562D02*
X9052378Y-14269086D01*
X9052378Y-14269086D02*
X9061902Y-14278610D01*
X9061902Y-14278610D02*
X9071426Y-14297658D01*
X9071426Y-14297658D02*
X9080950Y-14335753D01*
X9080950Y-14335753D02*
X9080950Y-14383372D01*
X9080950Y-14383372D02*
X9071426Y-14421467D01*
X9071426Y-14421467D02*
X9061902Y-14440515D01*
X9061902Y-14440515D02*
X9052378Y-14450039D01*
X9052378Y-14450039D02*
X9033331Y-14459562D01*
X9033331Y-14459562D02*
X9014283Y-14459562D01*
X9014283Y-14459562D02*
X8995235Y-14450039D01*
X8995235Y-14450039D02*
X8985712Y-14440515D01*
X8985712Y-14440515D02*
X8976188Y-14421467D01*
X8976188Y-14421467D02*
X8966664Y-14383372D01*
X8966664Y-14383372D02*
X8966664Y-14335753D01*
X8966664Y-14335753D02*
X8976188Y-14297658D01*
X8976188Y-14297658D02*
X8985712Y-14278610D01*
X8985712Y-14278610D02*
X8995235Y-14269086D01*
X8995235Y-14269086D02*
X9014283Y-14259562D01*
X9166664Y-14459562D02*
X9166664Y-14326229D01*
X9166664Y-14345277D02*
X9176188Y-14335753D01*
X9176188Y-14335753D02*
X9195235Y-14326229D01*
X9195235Y-14326229D02*
X9223807Y-14326229D01*
X9223807Y-14326229D02*
X9242854Y-14335753D01*
X9242854Y-14335753D02*
X9252378Y-14354800D01*
X9252378Y-14354800D02*
X9252378Y-14459562D01*
X9252378Y-14354800D02*
X9261902Y-14335753D01*
X9261902Y-14335753D02*
X9280950Y-14326229D01*
X9280950Y-14326229D02*
X9309521Y-14326229D01*
X9309521Y-14326229D02*
X9328569Y-14335753D01*
X9328569Y-14335753D02*
X9338093Y-14354800D01*
X9338093Y-14354800D02*
X9338093Y-14459562D01*
X9433331Y-14459562D02*
X9433331Y-14326229D01*
X9433331Y-14345277D02*
X9442854Y-14335753D01*
X9442854Y-14335753D02*
X9461902Y-14326229D01*
X9461902Y-14326229D02*
X9490474Y-14326229D01*
X9490474Y-14326229D02*
X9509521Y-14335753D01*
X9509521Y-14335753D02*
X9519045Y-14354800D01*
X9519045Y-14354800D02*
X9519045Y-14459562D01*
X9519045Y-14354800D02*
X9528569Y-14335753D01*
X9528569Y-14335753D02*
X9547616Y-14326229D01*
X9547616Y-14326229D02*
X9576188Y-14326229D01*
X9576188Y-14326229D02*
X9595235Y-14335753D01*
X9595235Y-14335753D02*
X9604759Y-14354800D01*
X9604759Y-14354800D02*
X9604759Y-14459562D01*
X9995235Y-14250039D02*
X9823807Y-14507181D01*
X10252378Y-14259562D02*
X10271426Y-14259562D01*
X10271426Y-14259562D02*
X10290474Y-14269086D01*
X10290474Y-14269086D02*
X10299997Y-14278610D01*
X10299997Y-14278610D02*
X10309521Y-14297658D01*
X10309521Y-14297658D02*
X10319045Y-14335753D01*
X10319045Y-14335753D02*
X10319045Y-14383372D01*
X10319045Y-14383372D02*
X10309521Y-14421467D01*
X10309521Y-14421467D02*
X10299997Y-14440515D01*
X10299997Y-14440515D02*
X10290474Y-14450039D01*
X10290474Y-14450039D02*
X10271426Y-14459562D01*
X10271426Y-14459562D02*
X10252378Y-14459562D01*
X10252378Y-14459562D02*
X10233331Y-14450039D01*
X10233331Y-14450039D02*
X10223807Y-14440515D01*
X10223807Y-14440515D02*
X10214283Y-14421467D01*
X10214283Y-14421467D02*
X10204759Y-14383372D01*
X10204759Y-14383372D02*
X10204759Y-14335753D01*
X10204759Y-14335753D02*
X10214283Y-14297658D01*
X10214283Y-14297658D02*
X10223807Y-14278610D01*
X10223807Y-14278610D02*
X10233331Y-14269086D01*
X10233331Y-14269086D02*
X10252378Y-14259562D01*
X10404759Y-14440515D02*
X10414283Y-14450039D01*
X10414283Y-14450039D02*
X10404759Y-14459562D01*
X10404759Y-14459562D02*
X10395236Y-14450039D01*
X10395236Y-14450039D02*
X10404759Y-14440515D01*
X10404759Y-14440515D02*
X10404759Y-14459562D01*
X10538093Y-14259562D02*
X10557140Y-14259562D01*
X10557140Y-14259562D02*
X10576188Y-14269086D01*
X10576188Y-14269086D02*
X10585712Y-14278610D01*
X10585712Y-14278610D02*
X10595236Y-14297658D01*
X10595236Y-14297658D02*
X10604759Y-14335753D01*
X10604759Y-14335753D02*
X10604759Y-14383372D01*
X10604759Y-14383372D02*
X10595236Y-14421467D01*
X10595236Y-14421467D02*
X10585712Y-14440515D01*
X10585712Y-14440515D02*
X10576188Y-14450039D01*
X10576188Y-14450039D02*
X10557140Y-14459562D01*
X10557140Y-14459562D02*
X10538093Y-14459562D01*
X10538093Y-14459562D02*
X10519045Y-14450039D01*
X10519045Y-14450039D02*
X10509521Y-14440515D01*
X10509521Y-14440515D02*
X10499997Y-14421467D01*
X10499997Y-14421467D02*
X10490474Y-14383372D01*
X10490474Y-14383372D02*
X10490474Y-14335753D01*
X10490474Y-14335753D02*
X10499997Y-14297658D01*
X10499997Y-14297658D02*
X10509521Y-14278610D01*
X10509521Y-14278610D02*
X10519045Y-14269086D01*
X10519045Y-14269086D02*
X10538093Y-14259562D01*
X10671426Y-14259562D02*
X10795236Y-14259562D01*
X10795236Y-14259562D02*
X10728569Y-14335753D01*
X10728569Y-14335753D02*
X10757140Y-14335753D01*
X10757140Y-14335753D02*
X10776188Y-14345277D01*
X10776188Y-14345277D02*
X10785712Y-14354800D01*
X10785712Y-14354800D02*
X10795236Y-14373848D01*
X10795236Y-14373848D02*
X10795236Y-14421467D01*
X10795236Y-14421467D02*
X10785712Y-14440515D01*
X10785712Y-14440515D02*
X10776188Y-14450039D01*
X10776188Y-14450039D02*
X10757140Y-14459562D01*
X10757140Y-14459562D02*
X10699997Y-14459562D01*
X10699997Y-14459562D02*
X10680950Y-14450039D01*
X10680950Y-14450039D02*
X10671426Y-14440515D01*
X10890474Y-14459562D02*
X10928569Y-14459562D01*
X10928569Y-14459562D02*
X10947617Y-14450039D01*
X10947617Y-14450039D02*
X10957140Y-14440515D01*
X10957140Y-14440515D02*
X10976188Y-14411943D01*
X10976188Y-14411943D02*
X10985712Y-14373848D01*
X10985712Y-14373848D02*
X10985712Y-14297658D01*
X10985712Y-14297658D02*
X10976188Y-14278610D01*
X10976188Y-14278610D02*
X10966664Y-14269086D01*
X10966664Y-14269086D02*
X10947617Y-14259562D01*
X10947617Y-14259562D02*
X10909521Y-14259562D01*
X10909521Y-14259562D02*
X10890474Y-14269086D01*
X10890474Y-14269086D02*
X10880950Y-14278610D01*
X10880950Y-14278610D02*
X10871426Y-14297658D01*
X10871426Y-14297658D02*
X10871426Y-14345277D01*
X10871426Y-14345277D02*
X10880950Y-14364324D01*
X10880950Y-14364324D02*
X10890474Y-14373848D01*
X10890474Y-14373848D02*
X10909521Y-14383372D01*
X10909521Y-14383372D02*
X10947617Y-14383372D01*
X10947617Y-14383372D02*
X10966664Y-14373848D01*
X10966664Y-14373848D02*
X10976188Y-14364324D01*
X10976188Y-14364324D02*
X10985712Y-14345277D01*
X11157140Y-14326229D02*
X11157140Y-14459562D01*
X11109521Y-14250039D02*
X11061902Y-14392896D01*
X11061902Y-14392896D02*
X11185712Y-14392896D01*
X11252378Y-14259562D02*
X11252378Y-14297658D01*
X11328569Y-14259562D02*
X11328569Y-14297658D01*
X11623807Y-14535753D02*
X11614283Y-14526229D01*
X11614283Y-14526229D02*
X11595236Y-14497658D01*
X11595236Y-14497658D02*
X11585712Y-14478610D01*
X11585712Y-14478610D02*
X11576188Y-14450039D01*
X11576188Y-14450039D02*
X11566664Y-14402419D01*
X11566664Y-14402419D02*
X11566664Y-14364324D01*
X11566664Y-14364324D02*
X11576188Y-14316705D01*
X11576188Y-14316705D02*
X11585712Y-14288134D01*
X11585712Y-14288134D02*
X11595236Y-14269086D01*
X11595236Y-14269086D02*
X11614283Y-14240515D01*
X11614283Y-14240515D02*
X11623807Y-14230991D01*
X11690474Y-14278610D02*
X11699997Y-14269086D01*
X11699997Y-14269086D02*
X11719045Y-14259562D01*
X11719045Y-14259562D02*
X11766664Y-14259562D01*
X11766664Y-14259562D02*
X11785712Y-14269086D01*
X11785712Y-14269086D02*
X11795236Y-14278610D01*
X11795236Y-14278610D02*
X11804759Y-14297658D01*
X11804759Y-14297658D02*
X11804759Y-14316705D01*
X11804759Y-14316705D02*
X11795236Y-14345277D01*
X11795236Y-14345277D02*
X11680950Y-14459562D01*
X11680950Y-14459562D02*
X11804759Y-14459562D01*
X11880950Y-14278610D02*
X11890474Y-14269086D01*
X11890474Y-14269086D02*
X11909521Y-14259562D01*
X11909521Y-14259562D02*
X11957140Y-14259562D01*
X11957140Y-14259562D02*
X11976188Y-14269086D01*
X11976188Y-14269086D02*
X11985712Y-14278610D01*
X11985712Y-14278610D02*
X11995236Y-14297658D01*
X11995236Y-14297658D02*
X11995236Y-14316705D01*
X11995236Y-14316705D02*
X11985712Y-14345277D01*
X11985712Y-14345277D02*
X11871426Y-14459562D01*
X11871426Y-14459562D02*
X11995236Y-14459562D01*
X12233331Y-14459562D02*
X12233331Y-14259562D01*
X12319045Y-14459562D02*
X12319045Y-14354800D01*
X12319045Y-14354800D02*
X12309521Y-14335753D01*
X12309521Y-14335753D02*
X12290474Y-14326229D01*
X12290474Y-14326229D02*
X12261902Y-14326229D01*
X12261902Y-14326229D02*
X12242855Y-14335753D01*
X12242855Y-14335753D02*
X12233331Y-14345277D01*
X12442855Y-14459562D02*
X12423807Y-14450039D01*
X12423807Y-14450039D02*
X12414283Y-14440515D01*
X12414283Y-14440515D02*
X12404759Y-14421467D01*
X12404759Y-14421467D02*
X12404759Y-14364324D01*
X12404759Y-14364324D02*
X12414283Y-14345277D01*
X12414283Y-14345277D02*
X12423807Y-14335753D01*
X12423807Y-14335753D02*
X12442855Y-14326229D01*
X12442855Y-14326229D02*
X12471426Y-14326229D01*
X12471426Y-14326229D02*
X12490474Y-14335753D01*
X12490474Y-14335753D02*
X12499998Y-14345277D01*
X12499998Y-14345277D02*
X12509521Y-14364324D01*
X12509521Y-14364324D02*
X12509521Y-14421467D01*
X12509521Y-14421467D02*
X12499998Y-14440515D01*
X12499998Y-14440515D02*
X12490474Y-14450039D01*
X12490474Y-14450039D02*
X12471426Y-14459562D01*
X12471426Y-14459562D02*
X12442855Y-14459562D01*
X12623807Y-14459562D02*
X12604759Y-14450039D01*
X12604759Y-14450039D02*
X12595236Y-14430991D01*
X12595236Y-14430991D02*
X12595236Y-14259562D01*
X12776188Y-14450039D02*
X12757140Y-14459562D01*
X12757140Y-14459562D02*
X12719045Y-14459562D01*
X12719045Y-14459562D02*
X12699998Y-14450039D01*
X12699998Y-14450039D02*
X12690474Y-14430991D01*
X12690474Y-14430991D02*
X12690474Y-14354800D01*
X12690474Y-14354800D02*
X12699998Y-14335753D01*
X12699998Y-14335753D02*
X12719045Y-14326229D01*
X12719045Y-14326229D02*
X12757140Y-14326229D01*
X12757140Y-14326229D02*
X12776188Y-14335753D01*
X12776188Y-14335753D02*
X12785712Y-14354800D01*
X12785712Y-14354800D02*
X12785712Y-14373848D01*
X12785712Y-14373848D02*
X12690474Y-14392896D01*
X12861902Y-14450039D02*
X12880950Y-14459562D01*
X12880950Y-14459562D02*
X12919045Y-14459562D01*
X12919045Y-14459562D02*
X12938093Y-14450039D01*
X12938093Y-14450039D02*
X12947617Y-14430991D01*
X12947617Y-14430991D02*
X12947617Y-14421467D01*
X12947617Y-14421467D02*
X12938093Y-14402419D01*
X12938093Y-14402419D02*
X12919045Y-14392896D01*
X12919045Y-14392896D02*
X12890474Y-14392896D01*
X12890474Y-14392896D02*
X12871426Y-14383372D01*
X12871426Y-14383372D02*
X12861902Y-14364324D01*
X12861902Y-14364324D02*
X12861902Y-14354800D01*
X12861902Y-14354800D02*
X12871426Y-14335753D01*
X12871426Y-14335753D02*
X12890474Y-14326229D01*
X12890474Y-14326229D02*
X12919045Y-14326229D01*
X12919045Y-14326229D02*
X12938093Y-14335753D01*
X13014283Y-14535753D02*
X13023807Y-14526229D01*
X13023807Y-14526229D02*
X13042855Y-14497658D01*
X13042855Y-14497658D02*
X13052379Y-14478610D01*
X13052379Y-14478610D02*
X13061902Y-14450039D01*
X13061902Y-14450039D02*
X13071426Y-14402419D01*
X13071426Y-14402419D02*
X13071426Y-14364324D01*
X13071426Y-14364324D02*
X13061902Y-14316705D01*
X13061902Y-14316705D02*
X13052379Y-14288134D01*
X13052379Y-14288134D02*
X13042855Y-14269086D01*
X13042855Y-14269086D02*
X13023807Y-14240515D01*
X13023807Y-14240515D02*
X13014283Y-14230991D01*
D13*
X8026798Y-14685063D02*
X8026798Y-14579095D01*
X7920830Y-14579095D01*
X7920830Y-14685063D01*
X8026798Y-14685063D01*
D12*
X8414283Y-14723562D02*
X8299997Y-14723562D01*
X8357140Y-14723562D02*
X8357140Y-14523562D01*
X8357140Y-14523562D02*
X8338092Y-14552134D01*
X8338092Y-14552134D02*
X8319045Y-14571181D01*
X8319045Y-14571181D02*
X8299997Y-14580705D01*
X8499997Y-14704515D02*
X8509521Y-14714039D01*
X8509521Y-14714039D02*
X8499997Y-14723562D01*
X8499997Y-14723562D02*
X8490473Y-14714039D01*
X8490473Y-14714039D02*
X8499997Y-14704515D01*
X8499997Y-14704515D02*
X8499997Y-14723562D01*
X8680950Y-14590229D02*
X8680950Y-14723562D01*
X8633331Y-14514039D02*
X8585712Y-14656896D01*
X8585712Y-14656896D02*
X8709521Y-14656896D01*
X8795235Y-14723562D02*
X8833331Y-14723562D01*
X8833331Y-14723562D02*
X8852378Y-14714039D01*
X8852378Y-14714039D02*
X8861902Y-14704515D01*
X8861902Y-14704515D02*
X8880950Y-14675943D01*
X8880950Y-14675943D02*
X8890473Y-14637848D01*
X8890473Y-14637848D02*
X8890473Y-14561658D01*
X8890473Y-14561658D02*
X8880950Y-14542610D01*
X8880950Y-14542610D02*
X8871426Y-14533086D01*
X8871426Y-14533086D02*
X8852378Y-14523562D01*
X8852378Y-14523562D02*
X8814283Y-14523562D01*
X8814283Y-14523562D02*
X8795235Y-14533086D01*
X8795235Y-14533086D02*
X8785712Y-14542610D01*
X8785712Y-14542610D02*
X8776188Y-14561658D01*
X8776188Y-14561658D02*
X8776188Y-14609277D01*
X8776188Y-14609277D02*
X8785712Y-14628324D01*
X8785712Y-14628324D02*
X8795235Y-14637848D01*
X8795235Y-14637848D02*
X8814283Y-14647372D01*
X8814283Y-14647372D02*
X8852378Y-14647372D01*
X8852378Y-14647372D02*
X8871426Y-14637848D01*
X8871426Y-14637848D02*
X8880950Y-14628324D01*
X8880950Y-14628324D02*
X8890473Y-14609277D01*
X8985712Y-14723562D02*
X9023807Y-14723562D01*
X9023807Y-14723562D02*
X9042854Y-14714039D01*
X9042854Y-14714039D02*
X9052378Y-14704515D01*
X9052378Y-14704515D02*
X9071426Y-14675943D01*
X9071426Y-14675943D02*
X9080950Y-14637848D01*
X9080950Y-14637848D02*
X9080950Y-14561658D01*
X9080950Y-14561658D02*
X9071426Y-14542610D01*
X9071426Y-14542610D02*
X9061902Y-14533086D01*
X9061902Y-14533086D02*
X9042854Y-14523562D01*
X9042854Y-14523562D02*
X9004759Y-14523562D01*
X9004759Y-14523562D02*
X8985712Y-14533086D01*
X8985712Y-14533086D02*
X8976188Y-14542610D01*
X8976188Y-14542610D02*
X8966664Y-14561658D01*
X8966664Y-14561658D02*
X8966664Y-14609277D01*
X8966664Y-14609277D02*
X8976188Y-14628324D01*
X8976188Y-14628324D02*
X8985712Y-14637848D01*
X8985712Y-14637848D02*
X9004759Y-14647372D01*
X9004759Y-14647372D02*
X9042854Y-14647372D01*
X9042854Y-14647372D02*
X9061902Y-14637848D01*
X9061902Y-14637848D02*
X9071426Y-14628324D01*
X9071426Y-14628324D02*
X9080950Y-14609277D01*
X9166664Y-14723562D02*
X9166664Y-14590229D01*
X9166664Y-14609277D02*
X9176188Y-14599753D01*
X9176188Y-14599753D02*
X9195235Y-14590229D01*
X9195235Y-14590229D02*
X9223807Y-14590229D01*
X9223807Y-14590229D02*
X9242854Y-14599753D01*
X9242854Y-14599753D02*
X9252378Y-14618800D01*
X9252378Y-14618800D02*
X9252378Y-14723562D01*
X9252378Y-14618800D02*
X9261902Y-14599753D01*
X9261902Y-14599753D02*
X9280950Y-14590229D01*
X9280950Y-14590229D02*
X9309521Y-14590229D01*
X9309521Y-14590229D02*
X9328569Y-14599753D01*
X9328569Y-14599753D02*
X9338093Y-14618800D01*
X9338093Y-14618800D02*
X9338093Y-14723562D01*
X9433331Y-14723562D02*
X9433331Y-14590229D01*
X9433331Y-14609277D02*
X9442854Y-14599753D01*
X9442854Y-14599753D02*
X9461902Y-14590229D01*
X9461902Y-14590229D02*
X9490474Y-14590229D01*
X9490474Y-14590229D02*
X9509521Y-14599753D01*
X9509521Y-14599753D02*
X9519045Y-14618800D01*
X9519045Y-14618800D02*
X9519045Y-14723562D01*
X9519045Y-14618800D02*
X9528569Y-14599753D01*
X9528569Y-14599753D02*
X9547616Y-14590229D01*
X9547616Y-14590229D02*
X9576188Y-14590229D01*
X9576188Y-14590229D02*
X9595235Y-14599753D01*
X9595235Y-14599753D02*
X9604759Y-14618800D01*
X9604759Y-14618800D02*
X9604759Y-14723562D01*
X9995235Y-14514039D02*
X9823807Y-14771181D01*
X10252378Y-14523562D02*
X10271426Y-14523562D01*
X10271426Y-14523562D02*
X10290474Y-14533086D01*
X10290474Y-14533086D02*
X10299997Y-14542610D01*
X10299997Y-14542610D02*
X10309521Y-14561658D01*
X10309521Y-14561658D02*
X10319045Y-14599753D01*
X10319045Y-14599753D02*
X10319045Y-14647372D01*
X10319045Y-14647372D02*
X10309521Y-14685467D01*
X10309521Y-14685467D02*
X10299997Y-14704515D01*
X10299997Y-14704515D02*
X10290474Y-14714039D01*
X10290474Y-14714039D02*
X10271426Y-14723562D01*
X10271426Y-14723562D02*
X10252378Y-14723562D01*
X10252378Y-14723562D02*
X10233331Y-14714039D01*
X10233331Y-14714039D02*
X10223807Y-14704515D01*
X10223807Y-14704515D02*
X10214283Y-14685467D01*
X10214283Y-14685467D02*
X10204759Y-14647372D01*
X10204759Y-14647372D02*
X10204759Y-14599753D01*
X10204759Y-14599753D02*
X10214283Y-14561658D01*
X10214283Y-14561658D02*
X10223807Y-14542610D01*
X10223807Y-14542610D02*
X10233331Y-14533086D01*
X10233331Y-14533086D02*
X10252378Y-14523562D01*
X10404759Y-14704515D02*
X10414283Y-14714039D01*
X10414283Y-14714039D02*
X10404759Y-14723562D01*
X10404759Y-14723562D02*
X10395236Y-14714039D01*
X10395236Y-14714039D02*
X10404759Y-14704515D01*
X10404759Y-14704515D02*
X10404759Y-14723562D01*
X10538093Y-14523562D02*
X10557140Y-14523562D01*
X10557140Y-14523562D02*
X10576188Y-14533086D01*
X10576188Y-14533086D02*
X10585712Y-14542610D01*
X10585712Y-14542610D02*
X10595236Y-14561658D01*
X10595236Y-14561658D02*
X10604759Y-14599753D01*
X10604759Y-14599753D02*
X10604759Y-14647372D01*
X10604759Y-14647372D02*
X10595236Y-14685467D01*
X10595236Y-14685467D02*
X10585712Y-14704515D01*
X10585712Y-14704515D02*
X10576188Y-14714039D01*
X10576188Y-14714039D02*
X10557140Y-14723562D01*
X10557140Y-14723562D02*
X10538093Y-14723562D01*
X10538093Y-14723562D02*
X10519045Y-14714039D01*
X10519045Y-14714039D02*
X10509521Y-14704515D01*
X10509521Y-14704515D02*
X10499997Y-14685467D01*
X10499997Y-14685467D02*
X10490474Y-14647372D01*
X10490474Y-14647372D02*
X10490474Y-14599753D01*
X10490474Y-14599753D02*
X10499997Y-14561658D01*
X10499997Y-14561658D02*
X10509521Y-14542610D01*
X10509521Y-14542610D02*
X10519045Y-14533086D01*
X10519045Y-14533086D02*
X10538093Y-14523562D01*
X10785712Y-14523562D02*
X10690474Y-14523562D01*
X10690474Y-14523562D02*
X10680950Y-14618800D01*
X10680950Y-14618800D02*
X10690474Y-14609277D01*
X10690474Y-14609277D02*
X10709521Y-14599753D01*
X10709521Y-14599753D02*
X10757140Y-14599753D01*
X10757140Y-14599753D02*
X10776188Y-14609277D01*
X10776188Y-14609277D02*
X10785712Y-14618800D01*
X10785712Y-14618800D02*
X10795236Y-14637848D01*
X10795236Y-14637848D02*
X10795236Y-14685467D01*
X10795236Y-14685467D02*
X10785712Y-14704515D01*
X10785712Y-14704515D02*
X10776188Y-14714039D01*
X10776188Y-14714039D02*
X10757140Y-14723562D01*
X10757140Y-14723562D02*
X10709521Y-14723562D01*
X10709521Y-14723562D02*
X10690474Y-14714039D01*
X10690474Y-14714039D02*
X10680950Y-14704515D01*
X10890474Y-14723562D02*
X10928569Y-14723562D01*
X10928569Y-14723562D02*
X10947617Y-14714039D01*
X10947617Y-14714039D02*
X10957140Y-14704515D01*
X10957140Y-14704515D02*
X10976188Y-14675943D01*
X10976188Y-14675943D02*
X10985712Y-14637848D01*
X10985712Y-14637848D02*
X10985712Y-14561658D01*
X10985712Y-14561658D02*
X10976188Y-14542610D01*
X10976188Y-14542610D02*
X10966664Y-14533086D01*
X10966664Y-14533086D02*
X10947617Y-14523562D01*
X10947617Y-14523562D02*
X10909521Y-14523562D01*
X10909521Y-14523562D02*
X10890474Y-14533086D01*
X10890474Y-14533086D02*
X10880950Y-14542610D01*
X10880950Y-14542610D02*
X10871426Y-14561658D01*
X10871426Y-14561658D02*
X10871426Y-14609277D01*
X10871426Y-14609277D02*
X10880950Y-14628324D01*
X10880950Y-14628324D02*
X10890474Y-14637848D01*
X10890474Y-14637848D02*
X10909521Y-14647372D01*
X10909521Y-14647372D02*
X10947617Y-14647372D01*
X10947617Y-14647372D02*
X10966664Y-14637848D01*
X10966664Y-14637848D02*
X10976188Y-14628324D01*
X10976188Y-14628324D02*
X10985712Y-14609277D01*
X11109521Y-14523562D02*
X11128569Y-14523562D01*
X11128569Y-14523562D02*
X11147617Y-14533086D01*
X11147617Y-14533086D02*
X11157140Y-14542610D01*
X11157140Y-14542610D02*
X11166664Y-14561658D01*
X11166664Y-14561658D02*
X11176188Y-14599753D01*
X11176188Y-14599753D02*
X11176188Y-14647372D01*
X11176188Y-14647372D02*
X11166664Y-14685467D01*
X11166664Y-14685467D02*
X11157140Y-14704515D01*
X11157140Y-14704515D02*
X11147617Y-14714039D01*
X11147617Y-14714039D02*
X11128569Y-14723562D01*
X11128569Y-14723562D02*
X11109521Y-14723562D01*
X11109521Y-14723562D02*
X11090474Y-14714039D01*
X11090474Y-14714039D02*
X11080950Y-14704515D01*
X11080950Y-14704515D02*
X11071426Y-14685467D01*
X11071426Y-14685467D02*
X11061902Y-14647372D01*
X11061902Y-14647372D02*
X11061902Y-14599753D01*
X11061902Y-14599753D02*
X11071426Y-14561658D01*
X11071426Y-14561658D02*
X11080950Y-14542610D01*
X11080950Y-14542610D02*
X11090474Y-14533086D01*
X11090474Y-14533086D02*
X11109521Y-14523562D01*
X11252378Y-14523562D02*
X11252378Y-14561658D01*
X11328569Y-14523562D02*
X11328569Y-14561658D01*
X11623807Y-14799753D02*
X11614283Y-14790229D01*
X11614283Y-14790229D02*
X11595236Y-14761658D01*
X11595236Y-14761658D02*
X11585712Y-14742610D01*
X11585712Y-14742610D02*
X11576188Y-14714039D01*
X11576188Y-14714039D02*
X11566664Y-14666419D01*
X11566664Y-14666419D02*
X11566664Y-14628324D01*
X11566664Y-14628324D02*
X11576188Y-14580705D01*
X11576188Y-14580705D02*
X11585712Y-14552134D01*
X11585712Y-14552134D02*
X11595236Y-14533086D01*
X11595236Y-14533086D02*
X11614283Y-14504515D01*
X11614283Y-14504515D02*
X11623807Y-14494991D01*
X11680950Y-14523562D02*
X11804759Y-14523562D01*
X11804759Y-14523562D02*
X11738093Y-14599753D01*
X11738093Y-14599753D02*
X11766664Y-14599753D01*
X11766664Y-14599753D02*
X11785712Y-14609277D01*
X11785712Y-14609277D02*
X11795236Y-14618800D01*
X11795236Y-14618800D02*
X11804759Y-14637848D01*
X11804759Y-14637848D02*
X11804759Y-14685467D01*
X11804759Y-14685467D02*
X11795236Y-14704515D01*
X11795236Y-14704515D02*
X11785712Y-14714039D01*
X11785712Y-14714039D02*
X11766664Y-14723562D01*
X11766664Y-14723562D02*
X11709521Y-14723562D01*
X11709521Y-14723562D02*
X11690474Y-14714039D01*
X11690474Y-14714039D02*
X11680950Y-14704515D01*
X11880950Y-14542610D02*
X11890474Y-14533086D01*
X11890474Y-14533086D02*
X11909521Y-14523562D01*
X11909521Y-14523562D02*
X11957140Y-14523562D01*
X11957140Y-14523562D02*
X11976188Y-14533086D01*
X11976188Y-14533086D02*
X11985712Y-14542610D01*
X11985712Y-14542610D02*
X11995236Y-14561658D01*
X11995236Y-14561658D02*
X11995236Y-14580705D01*
X11995236Y-14580705D02*
X11985712Y-14609277D01*
X11985712Y-14609277D02*
X11871426Y-14723562D01*
X11871426Y-14723562D02*
X11995236Y-14723562D01*
X12233331Y-14723562D02*
X12233331Y-14523562D01*
X12319045Y-14723562D02*
X12319045Y-14618800D01*
X12319045Y-14618800D02*
X12309521Y-14599753D01*
X12309521Y-14599753D02*
X12290474Y-14590229D01*
X12290474Y-14590229D02*
X12261902Y-14590229D01*
X12261902Y-14590229D02*
X12242855Y-14599753D01*
X12242855Y-14599753D02*
X12233331Y-14609277D01*
X12442855Y-14723562D02*
X12423807Y-14714039D01*
X12423807Y-14714039D02*
X12414283Y-14704515D01*
X12414283Y-14704515D02*
X12404759Y-14685467D01*
X12404759Y-14685467D02*
X12404759Y-14628324D01*
X12404759Y-14628324D02*
X12414283Y-14609277D01*
X12414283Y-14609277D02*
X12423807Y-14599753D01*
X12423807Y-14599753D02*
X12442855Y-14590229D01*
X12442855Y-14590229D02*
X12471426Y-14590229D01*
X12471426Y-14590229D02*
X12490474Y-14599753D01*
X12490474Y-14599753D02*
X12499998Y-14609277D01*
X12499998Y-14609277D02*
X12509521Y-14628324D01*
X12509521Y-14628324D02*
X12509521Y-14685467D01*
X12509521Y-14685467D02*
X12499998Y-14704515D01*
X12499998Y-14704515D02*
X12490474Y-14714039D01*
X12490474Y-14714039D02*
X12471426Y-14723562D01*
X12471426Y-14723562D02*
X12442855Y-14723562D01*
X12623807Y-14723562D02*
X12604759Y-14714039D01*
X12604759Y-14714039D02*
X12595236Y-14694991D01*
X12595236Y-14694991D02*
X12595236Y-14523562D01*
X12776188Y-14714039D02*
X12757140Y-14723562D01*
X12757140Y-14723562D02*
X12719045Y-14723562D01*
X12719045Y-14723562D02*
X12699998Y-14714039D01*
X12699998Y-14714039D02*
X12690474Y-14694991D01*
X12690474Y-14694991D02*
X12690474Y-14618800D01*
X12690474Y-14618800D02*
X12699998Y-14599753D01*
X12699998Y-14599753D02*
X12719045Y-14590229D01*
X12719045Y-14590229D02*
X12757140Y-14590229D01*
X12757140Y-14590229D02*
X12776188Y-14599753D01*
X12776188Y-14599753D02*
X12785712Y-14618800D01*
X12785712Y-14618800D02*
X12785712Y-14637848D01*
X12785712Y-14637848D02*
X12690474Y-14656896D01*
X12861902Y-14714039D02*
X12880950Y-14723562D01*
X12880950Y-14723562D02*
X12919045Y-14723562D01*
X12919045Y-14723562D02*
X12938093Y-14714039D01*
X12938093Y-14714039D02*
X12947617Y-14694991D01*
X12947617Y-14694991D02*
X12947617Y-14685467D01*
X12947617Y-14685467D02*
X12938093Y-14666419D01*
X12938093Y-14666419D02*
X12919045Y-14656896D01*
X12919045Y-14656896D02*
X12890474Y-14656896D01*
X12890474Y-14656896D02*
X12871426Y-14647372D01*
X12871426Y-14647372D02*
X12861902Y-14628324D01*
X12861902Y-14628324D02*
X12861902Y-14618800D01*
X12861902Y-14618800D02*
X12871426Y-14599753D01*
X12871426Y-14599753D02*
X12890474Y-14590229D01*
X12890474Y-14590229D02*
X12919045Y-14590229D01*
X12919045Y-14590229D02*
X12938093Y-14599753D01*
X13014283Y-14799753D02*
X13023807Y-14790229D01*
X13023807Y-14790229D02*
X13042855Y-14761658D01*
X13042855Y-14761658D02*
X13052379Y-14742610D01*
X13052379Y-14742610D02*
X13061902Y-14714039D01*
X13061902Y-14714039D02*
X13071426Y-14666419D01*
X13071426Y-14666419D02*
X13071426Y-14628324D01*
X13071426Y-14628324D02*
X13061902Y-14580705D01*
X13061902Y-14580705D02*
X13052379Y-14552134D01*
X13052379Y-14552134D02*
X13042855Y-14533086D01*
X13042855Y-14533086D02*
X13023807Y-14504515D01*
X13023807Y-14504515D02*
X13014283Y-14494991D01*
D14*
X7973744Y-14976939D02*
X8048744Y-14901939D01*
X7973744Y-14826939D01*
X7898744Y-14901939D01*
X7973744Y-14976939D01*
D12*
X8414283Y-14993422D02*
X8299997Y-14993422D01*
X8357140Y-14993422D02*
X8357140Y-14793422D01*
X8357140Y-14793422D02*
X8338092Y-14821994D01*
X8338092Y-14821994D02*
X8319045Y-14841041D01*
X8319045Y-14841041D02*
X8299997Y-14850565D01*
X8499997Y-14974375D02*
X8509521Y-14983899D01*
X8509521Y-14983899D02*
X8499997Y-14993422D01*
X8499997Y-14993422D02*
X8490473Y-14983899D01*
X8490473Y-14983899D02*
X8499997Y-14974375D01*
X8499997Y-14974375D02*
X8499997Y-14993422D01*
X8690473Y-14793422D02*
X8595235Y-14793422D01*
X8595235Y-14793422D02*
X8585712Y-14888660D01*
X8585712Y-14888660D02*
X8595235Y-14879137D01*
X8595235Y-14879137D02*
X8614283Y-14869613D01*
X8614283Y-14869613D02*
X8661902Y-14869613D01*
X8661902Y-14869613D02*
X8680950Y-14879137D01*
X8680950Y-14879137D02*
X8690473Y-14888660D01*
X8690473Y-14888660D02*
X8699997Y-14907708D01*
X8699997Y-14907708D02*
X8699997Y-14955327D01*
X8699997Y-14955327D02*
X8690473Y-14974375D01*
X8690473Y-14974375D02*
X8680950Y-14983899D01*
X8680950Y-14983899D02*
X8661902Y-14993422D01*
X8661902Y-14993422D02*
X8614283Y-14993422D01*
X8614283Y-14993422D02*
X8595235Y-14983899D01*
X8595235Y-14983899D02*
X8585712Y-14974375D01*
X8823807Y-14793422D02*
X8842854Y-14793422D01*
X8842854Y-14793422D02*
X8861902Y-14802946D01*
X8861902Y-14802946D02*
X8871426Y-14812470D01*
X8871426Y-14812470D02*
X8880950Y-14831518D01*
X8880950Y-14831518D02*
X8890473Y-14869613D01*
X8890473Y-14869613D02*
X8890473Y-14917232D01*
X8890473Y-14917232D02*
X8880950Y-14955327D01*
X8880950Y-14955327D02*
X8871426Y-14974375D01*
X8871426Y-14974375D02*
X8861902Y-14983899D01*
X8861902Y-14983899D02*
X8842854Y-14993422D01*
X8842854Y-14993422D02*
X8823807Y-14993422D01*
X8823807Y-14993422D02*
X8804759Y-14983899D01*
X8804759Y-14983899D02*
X8795235Y-14974375D01*
X8795235Y-14974375D02*
X8785712Y-14955327D01*
X8785712Y-14955327D02*
X8776188Y-14917232D01*
X8776188Y-14917232D02*
X8776188Y-14869613D01*
X8776188Y-14869613D02*
X8785712Y-14831518D01*
X8785712Y-14831518D02*
X8795235Y-14812470D01*
X8795235Y-14812470D02*
X8804759Y-14802946D01*
X8804759Y-14802946D02*
X8823807Y-14793422D01*
X9014283Y-14793422D02*
X9033331Y-14793422D01*
X9033331Y-14793422D02*
X9052378Y-14802946D01*
X9052378Y-14802946D02*
X9061902Y-14812470D01*
X9061902Y-14812470D02*
X9071426Y-14831518D01*
X9071426Y-14831518D02*
X9080950Y-14869613D01*
X9080950Y-14869613D02*
X9080950Y-14917232D01*
X9080950Y-14917232D02*
X9071426Y-14955327D01*
X9071426Y-14955327D02*
X9061902Y-14974375D01*
X9061902Y-14974375D02*
X9052378Y-14983899D01*
X9052378Y-14983899D02*
X9033331Y-14993422D01*
X9033331Y-14993422D02*
X9014283Y-14993422D01*
X9014283Y-14993422D02*
X8995235Y-14983899D01*
X8995235Y-14983899D02*
X8985712Y-14974375D01*
X8985712Y-14974375D02*
X8976188Y-14955327D01*
X8976188Y-14955327D02*
X8966664Y-14917232D01*
X8966664Y-14917232D02*
X8966664Y-14869613D01*
X8966664Y-14869613D02*
X8976188Y-14831518D01*
X8976188Y-14831518D02*
X8985712Y-14812470D01*
X8985712Y-14812470D02*
X8995235Y-14802946D01*
X8995235Y-14802946D02*
X9014283Y-14793422D01*
X9166664Y-14993422D02*
X9166664Y-14860089D01*
X9166664Y-14879137D02*
X9176188Y-14869613D01*
X9176188Y-14869613D02*
X9195235Y-14860089D01*
X9195235Y-14860089D02*
X9223807Y-14860089D01*
X9223807Y-14860089D02*
X9242854Y-14869613D01*
X9242854Y-14869613D02*
X9252378Y-14888660D01*
X9252378Y-14888660D02*
X9252378Y-14993422D01*
X9252378Y-14888660D02*
X9261902Y-14869613D01*
X9261902Y-14869613D02*
X9280950Y-14860089D01*
X9280950Y-14860089D02*
X9309521Y-14860089D01*
X9309521Y-14860089D02*
X9328569Y-14869613D01*
X9328569Y-14869613D02*
X9338093Y-14888660D01*
X9338093Y-14888660D02*
X9338093Y-14993422D01*
X9433331Y-14993422D02*
X9433331Y-14860089D01*
X9433331Y-14879137D02*
X9442854Y-14869613D01*
X9442854Y-14869613D02*
X9461902Y-14860089D01*
X9461902Y-14860089D02*
X9490474Y-14860089D01*
X9490474Y-14860089D02*
X9509521Y-14869613D01*
X9509521Y-14869613D02*
X9519045Y-14888660D01*
X9519045Y-14888660D02*
X9519045Y-14993422D01*
X9519045Y-14888660D02*
X9528569Y-14869613D01*
X9528569Y-14869613D02*
X9547616Y-14860089D01*
X9547616Y-14860089D02*
X9576188Y-14860089D01*
X9576188Y-14860089D02*
X9595235Y-14869613D01*
X9595235Y-14869613D02*
X9604759Y-14888660D01*
X9604759Y-14888660D02*
X9604759Y-14993422D01*
X9995235Y-14783899D02*
X9823807Y-15041041D01*
X10252378Y-14793422D02*
X10271426Y-14793422D01*
X10271426Y-14793422D02*
X10290474Y-14802946D01*
X10290474Y-14802946D02*
X10299997Y-14812470D01*
X10299997Y-14812470D02*
X10309521Y-14831518D01*
X10309521Y-14831518D02*
X10319045Y-14869613D01*
X10319045Y-14869613D02*
X10319045Y-14917232D01*
X10319045Y-14917232D02*
X10309521Y-14955327D01*
X10309521Y-14955327D02*
X10299997Y-14974375D01*
X10299997Y-14974375D02*
X10290474Y-14983899D01*
X10290474Y-14983899D02*
X10271426Y-14993422D01*
X10271426Y-14993422D02*
X10252378Y-14993422D01*
X10252378Y-14993422D02*
X10233331Y-14983899D01*
X10233331Y-14983899D02*
X10223807Y-14974375D01*
X10223807Y-14974375D02*
X10214283Y-14955327D01*
X10214283Y-14955327D02*
X10204759Y-14917232D01*
X10204759Y-14917232D02*
X10204759Y-14869613D01*
X10204759Y-14869613D02*
X10214283Y-14831518D01*
X10214283Y-14831518D02*
X10223807Y-14812470D01*
X10223807Y-14812470D02*
X10233331Y-14802946D01*
X10233331Y-14802946D02*
X10252378Y-14793422D01*
X10404759Y-14974375D02*
X10414283Y-14983899D01*
X10414283Y-14983899D02*
X10404759Y-14993422D01*
X10404759Y-14993422D02*
X10395236Y-14983899D01*
X10395236Y-14983899D02*
X10404759Y-14974375D01*
X10404759Y-14974375D02*
X10404759Y-14993422D01*
X10538093Y-14793422D02*
X10557140Y-14793422D01*
X10557140Y-14793422D02*
X10576188Y-14802946D01*
X10576188Y-14802946D02*
X10585712Y-14812470D01*
X10585712Y-14812470D02*
X10595236Y-14831518D01*
X10595236Y-14831518D02*
X10604759Y-14869613D01*
X10604759Y-14869613D02*
X10604759Y-14917232D01*
X10604759Y-14917232D02*
X10595236Y-14955327D01*
X10595236Y-14955327D02*
X10585712Y-14974375D01*
X10585712Y-14974375D02*
X10576188Y-14983899D01*
X10576188Y-14983899D02*
X10557140Y-14993422D01*
X10557140Y-14993422D02*
X10538093Y-14993422D01*
X10538093Y-14993422D02*
X10519045Y-14983899D01*
X10519045Y-14983899D02*
X10509521Y-14974375D01*
X10509521Y-14974375D02*
X10499997Y-14955327D01*
X10499997Y-14955327D02*
X10490474Y-14917232D01*
X10490474Y-14917232D02*
X10490474Y-14869613D01*
X10490474Y-14869613D02*
X10499997Y-14831518D01*
X10499997Y-14831518D02*
X10509521Y-14812470D01*
X10509521Y-14812470D02*
X10519045Y-14802946D01*
X10519045Y-14802946D02*
X10538093Y-14793422D01*
X10785712Y-14793422D02*
X10690474Y-14793422D01*
X10690474Y-14793422D02*
X10680950Y-14888660D01*
X10680950Y-14888660D02*
X10690474Y-14879137D01*
X10690474Y-14879137D02*
X10709521Y-14869613D01*
X10709521Y-14869613D02*
X10757140Y-14869613D01*
X10757140Y-14869613D02*
X10776188Y-14879137D01*
X10776188Y-14879137D02*
X10785712Y-14888660D01*
X10785712Y-14888660D02*
X10795236Y-14907708D01*
X10795236Y-14907708D02*
X10795236Y-14955327D01*
X10795236Y-14955327D02*
X10785712Y-14974375D01*
X10785712Y-14974375D02*
X10776188Y-14983899D01*
X10776188Y-14983899D02*
X10757140Y-14993422D01*
X10757140Y-14993422D02*
X10709521Y-14993422D01*
X10709521Y-14993422D02*
X10690474Y-14983899D01*
X10690474Y-14983899D02*
X10680950Y-14974375D01*
X10890474Y-14993422D02*
X10928569Y-14993422D01*
X10928569Y-14993422D02*
X10947617Y-14983899D01*
X10947617Y-14983899D02*
X10957140Y-14974375D01*
X10957140Y-14974375D02*
X10976188Y-14945803D01*
X10976188Y-14945803D02*
X10985712Y-14907708D01*
X10985712Y-14907708D02*
X10985712Y-14831518D01*
X10985712Y-14831518D02*
X10976188Y-14812470D01*
X10976188Y-14812470D02*
X10966664Y-14802946D01*
X10966664Y-14802946D02*
X10947617Y-14793422D01*
X10947617Y-14793422D02*
X10909521Y-14793422D01*
X10909521Y-14793422D02*
X10890474Y-14802946D01*
X10890474Y-14802946D02*
X10880950Y-14812470D01*
X10880950Y-14812470D02*
X10871426Y-14831518D01*
X10871426Y-14831518D02*
X10871426Y-14879137D01*
X10871426Y-14879137D02*
X10880950Y-14898184D01*
X10880950Y-14898184D02*
X10890474Y-14907708D01*
X10890474Y-14907708D02*
X10909521Y-14917232D01*
X10909521Y-14917232D02*
X10947617Y-14917232D01*
X10947617Y-14917232D02*
X10966664Y-14907708D01*
X10966664Y-14907708D02*
X10976188Y-14898184D01*
X10976188Y-14898184D02*
X10985712Y-14879137D01*
X11176188Y-14993422D02*
X11061902Y-14993422D01*
X11119045Y-14993422D02*
X11119045Y-14793422D01*
X11119045Y-14793422D02*
X11099997Y-14821994D01*
X11099997Y-14821994D02*
X11080950Y-14841041D01*
X11080950Y-14841041D02*
X11061902Y-14850565D01*
X11252378Y-14793422D02*
X11252378Y-14831518D01*
X11328569Y-14793422D02*
X11328569Y-14831518D01*
X11623807Y-15069613D02*
X11614283Y-15060089D01*
X11614283Y-15060089D02*
X11595236Y-15031518D01*
X11595236Y-15031518D02*
X11585712Y-15012470D01*
X11585712Y-15012470D02*
X11576188Y-14983899D01*
X11576188Y-14983899D02*
X11566664Y-14936279D01*
X11566664Y-14936279D02*
X11566664Y-14898184D01*
X11566664Y-14898184D02*
X11576188Y-14850565D01*
X11576188Y-14850565D02*
X11585712Y-14821994D01*
X11585712Y-14821994D02*
X11595236Y-14802946D01*
X11595236Y-14802946D02*
X11614283Y-14774375D01*
X11614283Y-14774375D02*
X11623807Y-14764851D01*
X11738093Y-14793422D02*
X11757140Y-14793422D01*
X11757140Y-14793422D02*
X11776188Y-14802946D01*
X11776188Y-14802946D02*
X11785712Y-14812470D01*
X11785712Y-14812470D02*
X11795236Y-14831518D01*
X11795236Y-14831518D02*
X11804759Y-14869613D01*
X11804759Y-14869613D02*
X11804759Y-14917232D01*
X11804759Y-14917232D02*
X11795236Y-14955327D01*
X11795236Y-14955327D02*
X11785712Y-14974375D01*
X11785712Y-14974375D02*
X11776188Y-14983899D01*
X11776188Y-14983899D02*
X11757140Y-14993422D01*
X11757140Y-14993422D02*
X11738093Y-14993422D01*
X11738093Y-14993422D02*
X11719045Y-14983899D01*
X11719045Y-14983899D02*
X11709521Y-14974375D01*
X11709521Y-14974375D02*
X11699997Y-14955327D01*
X11699997Y-14955327D02*
X11690474Y-14917232D01*
X11690474Y-14917232D02*
X11690474Y-14869613D01*
X11690474Y-14869613D02*
X11699997Y-14831518D01*
X11699997Y-14831518D02*
X11709521Y-14812470D01*
X11709521Y-14812470D02*
X11719045Y-14802946D01*
X11719045Y-14802946D02*
X11738093Y-14793422D01*
X12042855Y-14993422D02*
X12042855Y-14793422D01*
X12128569Y-14993422D02*
X12128569Y-14888660D01*
X12128569Y-14888660D02*
X12119045Y-14869613D01*
X12119045Y-14869613D02*
X12099998Y-14860089D01*
X12099998Y-14860089D02*
X12071426Y-14860089D01*
X12071426Y-14860089D02*
X12052378Y-14869613D01*
X12052378Y-14869613D02*
X12042855Y-14879137D01*
X12252378Y-14993422D02*
X12233331Y-14983899D01*
X12233331Y-14983899D02*
X12223807Y-14974375D01*
X12223807Y-14974375D02*
X12214283Y-14955327D01*
X12214283Y-14955327D02*
X12214283Y-14898184D01*
X12214283Y-14898184D02*
X12223807Y-14879137D01*
X12223807Y-14879137D02*
X12233331Y-14869613D01*
X12233331Y-14869613D02*
X12252378Y-14860089D01*
X12252378Y-14860089D02*
X12280950Y-14860089D01*
X12280950Y-14860089D02*
X12299998Y-14869613D01*
X12299998Y-14869613D02*
X12309521Y-14879137D01*
X12309521Y-14879137D02*
X12319045Y-14898184D01*
X12319045Y-14898184D02*
X12319045Y-14955327D01*
X12319045Y-14955327D02*
X12309521Y-14974375D01*
X12309521Y-14974375D02*
X12299998Y-14983899D01*
X12299998Y-14983899D02*
X12280950Y-14993422D01*
X12280950Y-14993422D02*
X12252378Y-14993422D01*
X12433331Y-14993422D02*
X12414283Y-14983899D01*
X12414283Y-14983899D02*
X12404759Y-14964851D01*
X12404759Y-14964851D02*
X12404759Y-14793422D01*
X12585712Y-14983899D02*
X12566664Y-14993422D01*
X12566664Y-14993422D02*
X12528569Y-14993422D01*
X12528569Y-14993422D02*
X12509521Y-14983899D01*
X12509521Y-14983899D02*
X12499998Y-14964851D01*
X12499998Y-14964851D02*
X12499998Y-14888660D01*
X12499998Y-14888660D02*
X12509521Y-14869613D01*
X12509521Y-14869613D02*
X12528569Y-14860089D01*
X12528569Y-14860089D02*
X12566664Y-14860089D01*
X12566664Y-14860089D02*
X12585712Y-14869613D01*
X12585712Y-14869613D02*
X12595236Y-14888660D01*
X12595236Y-14888660D02*
X12595236Y-14907708D01*
X12595236Y-14907708D02*
X12499998Y-14926756D01*
X12671426Y-14983899D02*
X12690474Y-14993422D01*
X12690474Y-14993422D02*
X12728569Y-14993422D01*
X12728569Y-14993422D02*
X12747617Y-14983899D01*
X12747617Y-14983899D02*
X12757140Y-14964851D01*
X12757140Y-14964851D02*
X12757140Y-14955327D01*
X12757140Y-14955327D02*
X12747617Y-14936279D01*
X12747617Y-14936279D02*
X12728569Y-14926756D01*
X12728569Y-14926756D02*
X12699998Y-14926756D01*
X12699998Y-14926756D02*
X12680950Y-14917232D01*
X12680950Y-14917232D02*
X12671426Y-14898184D01*
X12671426Y-14898184D02*
X12671426Y-14888660D01*
X12671426Y-14888660D02*
X12680950Y-14869613D01*
X12680950Y-14869613D02*
X12699998Y-14860089D01*
X12699998Y-14860089D02*
X12728569Y-14860089D01*
X12728569Y-14860089D02*
X12747617Y-14869613D01*
X12995236Y-14917232D02*
X13147617Y-14917232D01*
X13071426Y-14993422D02*
X13071426Y-14841041D01*
X13385712Y-14812470D02*
X13395236Y-14802946D01*
X13395236Y-14802946D02*
X13414283Y-14793422D01*
X13414283Y-14793422D02*
X13461902Y-14793422D01*
X13461902Y-14793422D02*
X13480950Y-14802946D01*
X13480950Y-14802946D02*
X13490474Y-14812470D01*
X13490474Y-14812470D02*
X13499998Y-14831518D01*
X13499998Y-14831518D02*
X13499998Y-14850565D01*
X13499998Y-14850565D02*
X13490474Y-14879137D01*
X13490474Y-14879137D02*
X13376188Y-14993422D01*
X13376188Y-14993422D02*
X13499998Y-14993422D01*
X13728569Y-14983899D02*
X13747617Y-14993422D01*
X13747617Y-14993422D02*
X13785712Y-14993422D01*
X13785712Y-14993422D02*
X13804760Y-14983899D01*
X13804760Y-14983899D02*
X13814283Y-14964851D01*
X13814283Y-14964851D02*
X13814283Y-14955327D01*
X13814283Y-14955327D02*
X13804760Y-14936279D01*
X13804760Y-14936279D02*
X13785712Y-14926756D01*
X13785712Y-14926756D02*
X13757141Y-14926756D01*
X13757141Y-14926756D02*
X13738093Y-14917232D01*
X13738093Y-14917232D02*
X13728569Y-14898184D01*
X13728569Y-14898184D02*
X13728569Y-14888660D01*
X13728569Y-14888660D02*
X13738093Y-14869613D01*
X13738093Y-14869613D02*
X13757141Y-14860089D01*
X13757141Y-14860089D02*
X13785712Y-14860089D01*
X13785712Y-14860089D02*
X13804760Y-14869613D01*
X13928569Y-14993422D02*
X13909522Y-14983899D01*
X13909522Y-14983899D02*
X13899998Y-14964851D01*
X13899998Y-14964851D02*
X13899998Y-14793422D01*
X14033331Y-14993422D02*
X14014283Y-14983899D01*
X14014283Y-14983899D02*
X14004760Y-14974375D01*
X14004760Y-14974375D02*
X13995236Y-14955327D01*
X13995236Y-14955327D02*
X13995236Y-14898184D01*
X13995236Y-14898184D02*
X14004760Y-14879137D01*
X14004760Y-14879137D02*
X14014283Y-14869613D01*
X14014283Y-14869613D02*
X14033331Y-14860089D01*
X14033331Y-14860089D02*
X14061903Y-14860089D01*
X14061903Y-14860089D02*
X14080950Y-14869613D01*
X14080950Y-14869613D02*
X14090474Y-14879137D01*
X14090474Y-14879137D02*
X14099998Y-14898184D01*
X14099998Y-14898184D02*
X14099998Y-14955327D01*
X14099998Y-14955327D02*
X14090474Y-14974375D01*
X14090474Y-14974375D02*
X14080950Y-14983899D01*
X14080950Y-14983899D02*
X14061903Y-14993422D01*
X14061903Y-14993422D02*
X14033331Y-14993422D01*
X14157141Y-14860089D02*
X14233331Y-14860089D01*
X14185712Y-14793422D02*
X14185712Y-14964851D01*
X14185712Y-14964851D02*
X14195236Y-14983899D01*
X14195236Y-14983899D02*
X14214283Y-14993422D01*
X14214283Y-14993422D02*
X14233331Y-14993422D01*
X14290474Y-14983899D02*
X14309522Y-14993422D01*
X14309522Y-14993422D02*
X14347617Y-14993422D01*
X14347617Y-14993422D02*
X14366664Y-14983899D01*
X14366664Y-14983899D02*
X14376188Y-14964851D01*
X14376188Y-14964851D02*
X14376188Y-14955327D01*
X14376188Y-14955327D02*
X14366664Y-14936279D01*
X14366664Y-14936279D02*
X14347617Y-14926756D01*
X14347617Y-14926756D02*
X14319045Y-14926756D01*
X14319045Y-14926756D02*
X14299998Y-14917232D01*
X14299998Y-14917232D02*
X14290474Y-14898184D01*
X14290474Y-14898184D02*
X14290474Y-14888660D01*
X14290474Y-14888660D02*
X14299998Y-14869613D01*
X14299998Y-14869613D02*
X14319045Y-14860089D01*
X14319045Y-14860089D02*
X14347617Y-14860089D01*
X14347617Y-14860089D02*
X14366664Y-14869613D01*
X14442855Y-15069613D02*
X14452379Y-15060089D01*
X14452379Y-15060089D02*
X14471426Y-15031518D01*
X14471426Y-15031518D02*
X14480950Y-15012470D01*
X14480950Y-15012470D02*
X14490474Y-14983899D01*
X14490474Y-14983899D02*
X14499998Y-14936279D01*
X14499998Y-14936279D02*
X14499998Y-14898184D01*
X14499998Y-14898184D02*
X14490474Y-14850565D01*
X14490474Y-14850565D02*
X14480950Y-14821994D01*
X14480950Y-14821994D02*
X14471426Y-14802946D01*
X14471426Y-14802946D02*
X14452379Y-14774375D01*
X14452379Y-14774375D02*
X14442855Y-14764851D01*
M02*
