%TF.GenerationSoftware,KiCad,Pcbnew,8.0.5*%
%TF.CreationDate,2024-10-25T18:54:30-04:00*%
%TF.ProjectId,macropad,6d616372-6f70-4616-942e-6b696361645f,v1.0.0*%
%TF.SameCoordinates,Original*%
%TF.FileFunction,Soldermask,Top*%
%TF.FilePolarity,Negative*%
%FSLAX46Y46*%
G04 Gerber Fmt 4.6, Leading zero omitted, Abs format (unit mm)*
G04 Created by KiCad (PCBNEW 8.0.5) date 2024-10-25 18:54:30*
%MOMM*%
%LPD*%
G01*
G04 APERTURE LIST*
G04 Aperture macros list*
%AMRoundRect*
0 Rectangle with rounded corners*
0 $1 Rounding radius*
0 $2 $3 $4 $5 $6 $7 $8 $9 X,Y pos of 4 corners*
0 Add a 4 corners polygon primitive as box body*
4,1,4,$2,$3,$4,$5,$6,$7,$8,$9,$2,$3,0*
0 Add four circle primitives for the rounded corners*
1,1,$1+$1,$2,$3*
1,1,$1+$1,$4,$5*
1,1,$1+$1,$6,$7*
1,1,$1+$1,$8,$9*
0 Add four rect primitives between the rounded corners*
20,1,$1+$1,$2,$3,$4,$5,0*
20,1,$1+$1,$4,$5,$6,$7,0*
20,1,$1+$1,$6,$7,$8,$9,0*
20,1,$1+$1,$8,$9,$2,$3,0*%
G04 Aperture macros list end*
%ADD10C,1.801800*%
%ADD11C,4.087800*%
%ADD12C,2.386000*%
%ADD13RoundRect,0.050000X0.889000X-0.889000X0.889000X0.889000X-0.889000X0.889000X-0.889000X-0.889000X0*%
%ADD14RoundRect,0.050000X0.600000X-0.450000X0.600000X0.450000X-0.600000X0.450000X-0.600000X-0.450000X0*%
%ADD15C,2.005000*%
%ADD16O,1.800000X2.850000*%
%ADD17O,1.800000X2.350000*%
%ADD18RoundRect,0.050000X-1.600000X-1.000000X1.600000X-1.000000X1.600000X1.000000X-1.600000X1.000000X0*%
%ADD19C,1.600000*%
%ADD20RoundRect,0.050000X-1.000000X-1.000000X1.000000X-1.000000X1.000000X1.000000X-1.000000X1.000000X0*%
%ADD21C,2.100000*%
%ADD22C,1.630000*%
%ADD23C,1.500000*%
G04 APERTURE END LIST*
D10*
%TO.C,S14*%
X140920000Y-104190000D03*
D11*
X146000000Y-104190000D03*
D10*
X151080000Y-104190000D03*
D12*
X148540000Y-99110000D03*
X142190000Y-101650000D03*
%TD*%
D13*
%TO.C,D10*%
X136500000Y-108000000D03*
D14*
X136500000Y-105840000D03*
X136500000Y-102540000D03*
D15*
X136500000Y-100380000D03*
%TD*%
D16*
%TO.C,*%
X100620000Y-54000000D03*
%TD*%
%TO.C,*%
X87920000Y-54000000D03*
%TD*%
D10*
%TO.C,S5*%
X102920000Y-123190000D03*
D11*
X108000000Y-123190000D03*
D10*
X113080000Y-123190000D03*
D12*
X110540000Y-118110000D03*
X104190000Y-120650000D03*
%TD*%
D10*
%TO.C,S2*%
X83920000Y-104190000D03*
D11*
X89000000Y-104190000D03*
D10*
X94080000Y-104190000D03*
D12*
X91540000Y-99110000D03*
X85190000Y-101650000D03*
%TD*%
D10*
%TO.C,S7*%
X102920000Y-85190000D03*
D11*
X108000000Y-85190000D03*
D10*
X113080000Y-85190000D03*
D12*
X110540000Y-80110000D03*
X104190000Y-82650000D03*
%TD*%
D10*
%TO.C,S12*%
X121920000Y-66190000D03*
D11*
X127000000Y-66190000D03*
D10*
X132080000Y-66190000D03*
D12*
X129540000Y-61110000D03*
X123190000Y-63650000D03*
%TD*%
D10*
%TO.C,S13*%
X140920000Y-123190000D03*
D11*
X146000000Y-123190000D03*
D10*
X151080000Y-123190000D03*
D12*
X148540000Y-118110000D03*
X142190000Y-120650000D03*
%TD*%
D16*
%TO.C,*%
X85380000Y-34490000D03*
%TD*%
D17*
%TO.C,*%
X100620000Y-34760000D03*
%TD*%
D13*
%TO.C,D13*%
X155500000Y-127000000D03*
D14*
X155500000Y-124840000D03*
X155500000Y-121540000D03*
D15*
X155500000Y-119380000D03*
%TD*%
D16*
%TO.C,*%
X90460000Y-54000000D03*
%TD*%
D10*
%TO.C,S11*%
X121920000Y-85190000D03*
D11*
X127000000Y-85190000D03*
D10*
X132080000Y-85190000D03*
D12*
X129540000Y-80110000D03*
X123190000Y-82650000D03*
%TD*%
D10*
%TO.C,S15*%
X140920000Y-85190000D03*
D11*
X146000000Y-85190000D03*
D10*
X151080000Y-85190000D03*
D12*
X148540000Y-80110000D03*
X142190000Y-82650000D03*
%TD*%
D13*
%TO.C,D2*%
X98500000Y-108000000D03*
D14*
X98500000Y-105840000D03*
X98500000Y-102540000D03*
D15*
X98500000Y-100380000D03*
%TD*%
D13*
%TO.C,D9*%
X136500000Y-127000000D03*
D14*
X136500000Y-124840000D03*
X136500000Y-121540000D03*
D15*
X136500000Y-119380000D03*
%TD*%
D18*
%TO.C,ROT1*%
X145880000Y-41550000D03*
X145880000Y-52750000D03*
D19*
X152880000Y-44650000D03*
X152880000Y-49650000D03*
D20*
X138380000Y-44650000D03*
D21*
X138380000Y-49650000D03*
X138380000Y-47150000D03*
%TD*%
D16*
%TO.C,*%
X85380000Y-54000000D03*
%TD*%
%TO.C,*%
X87920000Y-34490000D03*
%TD*%
D13*
%TO.C,D4*%
X98500000Y-70000000D03*
D14*
X98500000Y-67840000D03*
X98500000Y-64540000D03*
D15*
X98500000Y-62380000D03*
%TD*%
D13*
%TO.C,D14*%
X155500000Y-108000000D03*
D14*
X155500000Y-105840000D03*
X155500000Y-102540000D03*
D15*
X155500000Y-100380000D03*
%TD*%
D13*
%TO.C,D15*%
X155500000Y-89000000D03*
D14*
X155500000Y-86840000D03*
X155500000Y-83540000D03*
D15*
X155500000Y-81380000D03*
%TD*%
D13*
%TO.C,D6*%
X117500000Y-108000000D03*
D14*
X117500000Y-105840000D03*
X117500000Y-102540000D03*
D15*
X117500000Y-100380000D03*
%TD*%
D10*
%TO.C,S6*%
X102920000Y-104190000D03*
D11*
X108000000Y-104190000D03*
D10*
X113080000Y-104190000D03*
D12*
X110540000Y-99110000D03*
X104190000Y-101650000D03*
%TD*%
D13*
%TO.C,D3*%
X98500000Y-89000000D03*
D14*
X98500000Y-86840000D03*
X98500000Y-83540000D03*
D15*
X98500000Y-81380000D03*
%TD*%
D13*
%TO.C,D8*%
X117500000Y-70000000D03*
D14*
X117500000Y-67840000D03*
X117500000Y-64540000D03*
D15*
X117500000Y-62380000D03*
%TD*%
D22*
%TO.C,_1*%
X85380000Y-51810000D03*
X87920000Y-51810000D03*
X90460000Y-51810000D03*
X93000000Y-51810000D03*
X95540000Y-51810000D03*
X98080000Y-51810000D03*
X100620000Y-51810000D03*
D23*
X92683000Y-48635000D03*
X86967000Y-45460000D03*
X86967000Y-42920000D03*
D22*
X85380000Y-36570000D03*
X87920000Y-36570000D03*
X90460000Y-36570000D03*
X93000000Y-36570000D03*
X95540000Y-36570000D03*
X98080000Y-36570000D03*
X100620000Y-36570000D03*
D16*
X85380000Y-52445000D03*
X87920000Y-52445000D03*
X90460000Y-52445000D03*
X93000000Y-52445000D03*
X95540000Y-52445000D03*
X98080000Y-52445000D03*
X100620000Y-52445000D03*
X100620000Y-35935000D03*
X98080000Y-35935000D03*
X95540000Y-35935000D03*
X93000000Y-35935000D03*
X90460000Y-35935000D03*
X87920000Y-35935000D03*
X85380000Y-35935000D03*
%TD*%
D10*
%TO.C,S10*%
X121920000Y-104190000D03*
D11*
X127000000Y-104190000D03*
D10*
X132080000Y-104190000D03*
D12*
X129540000Y-99110000D03*
X123190000Y-101650000D03*
%TD*%
D16*
%TO.C,*%
X98080000Y-34490000D03*
%TD*%
D10*
%TO.C,S1*%
X83920000Y-123190000D03*
D11*
X89000000Y-123190000D03*
D10*
X94080000Y-123190000D03*
D12*
X91540000Y-118110000D03*
X85190000Y-120650000D03*
%TD*%
D16*
%TO.C,*%
X93000000Y-54000000D03*
%TD*%
D13*
%TO.C,D11*%
X136500000Y-89000000D03*
D14*
X136500000Y-86840000D03*
X136500000Y-83540000D03*
D15*
X136500000Y-81380000D03*
%TD*%
D10*
%TO.C,S16*%
X140920000Y-66190000D03*
D11*
X146000000Y-66190000D03*
D10*
X151080000Y-66190000D03*
D12*
X148540000Y-61110000D03*
X142190000Y-63650000D03*
%TD*%
D16*
%TO.C,*%
X95540000Y-54000000D03*
%TD*%
D13*
%TO.C,D12*%
X136500000Y-70000000D03*
D14*
X136500000Y-67840000D03*
X136500000Y-64540000D03*
D15*
X136500000Y-62380000D03*
%TD*%
D13*
%TO.C,D5*%
X117500000Y-127000000D03*
D14*
X117500000Y-124840000D03*
X117500000Y-121540000D03*
D15*
X117500000Y-119380000D03*
%TD*%
D10*
%TO.C,S4*%
X83920000Y-66190000D03*
D11*
X89000000Y-66190000D03*
D10*
X94080000Y-66190000D03*
D12*
X91540000Y-61110000D03*
X85190000Y-63650000D03*
%TD*%
D10*
%TO.C,S9*%
X121920000Y-123190000D03*
D11*
X127000000Y-123190000D03*
D10*
X132080000Y-123190000D03*
D12*
X129540000Y-118110000D03*
X123190000Y-120650000D03*
%TD*%
D16*
%TO.C,*%
X93000000Y-34490000D03*
%TD*%
%TO.C,*%
X98080000Y-54000000D03*
%TD*%
D13*
%TO.C,D7*%
X117500000Y-89000000D03*
D14*
X117500000Y-86840000D03*
X117500000Y-83540000D03*
D15*
X117500000Y-81380000D03*
%TD*%
D10*
%TO.C,S8*%
X102920000Y-66190000D03*
D11*
X108000000Y-66190000D03*
D10*
X113080000Y-66190000D03*
D12*
X110540000Y-61110000D03*
X104190000Y-63650000D03*
%TD*%
D13*
%TO.C,D16*%
X155500000Y-70000000D03*
D14*
X155500000Y-67840000D03*
X155500000Y-64540000D03*
D15*
X155500000Y-62380000D03*
%TD*%
D16*
%TO.C,*%
X95540000Y-34490000D03*
%TD*%
D10*
%TO.C,S3*%
X83920000Y-85190000D03*
D11*
X89000000Y-85190000D03*
D10*
X94080000Y-85190000D03*
D12*
X91540000Y-80110000D03*
X85190000Y-82650000D03*
%TD*%
D13*
%TO.C,D17*%
X155500000Y-51000000D03*
D14*
X155500000Y-48840000D03*
X155500000Y-45540000D03*
D15*
X155500000Y-43380000D03*
%TD*%
D16*
%TO.C,*%
X90460000Y-34490000D03*
%TD*%
D13*
%TO.C,D1*%
X98500000Y-127000000D03*
D14*
X98500000Y-124840000D03*
X98500000Y-121540000D03*
D15*
X98500000Y-119380000D03*
%TD*%
M02*
