M48
; DRILL file {KiCad 8.0.5} date 2024-10-25T18:54:28-0400
; FORMAT={-:-/ absolute / inch / decimal}
; #@! TF.CreationDate,2024-10-25T18:54:28-04:00
; #@! TF.GenerationSoftware,Kicad,Pcbnew,8.0.5
; #@! TF.FileFunction,NonPlated,1,2,NPTH
FMAT,2
INCH
; #@! TA.AperFunction,NonPlated,NPTH,ComponentDrill
T1C0.0670
; #@! TA.AperFunction,NonPlated,NPTH,ComponentDrill
T2C0.1570
%
G90
G05
T1
X3.3039Y-2.6059
X3.3039Y-3.3539
X3.3039Y-4.102
X3.3039Y-4.85
X3.7039Y-2.6059
X3.7039Y-3.3539
X3.7039Y-4.102
X3.7039Y-4.85
X4.052Y-2.6059
X4.052Y-3.3539
X4.052Y-4.102
X4.052Y-4.85
X4.452Y-2.6059
X4.452Y-3.3539
X4.452Y-4.102
X4.452Y-4.85
X4.8Y-2.6059
X4.8Y-3.3539
X4.8Y-4.102
X4.8Y-4.85
X5.2Y-2.6059
X5.2Y-3.3539
X5.2Y-4.102
X5.2Y-4.85
X5.548Y-2.6059
X5.548Y-3.3539
X5.548Y-4.102
X5.548Y-4.85
X5.948Y-2.6059
X5.948Y-3.3539
X5.948Y-4.102
X5.948Y-4.85
T2
X3.5039Y-2.6059
X3.5039Y-3.3539
X3.5039Y-4.102
X3.5039Y-4.85
X4.252Y-2.6059
X4.252Y-3.3539
X4.252Y-4.102
X4.252Y-4.85
X5.0Y-2.6059
X5.0Y-3.3539
X5.0Y-4.102
X5.0Y-4.85
X5.748Y-2.6059
X5.748Y-3.3539
X5.748Y-4.102
X5.748Y-4.85
M30
