M48
; DRILL file {KiCad 8.0.5} date 2024-10-25T18:54:28-0400
; FORMAT={-:-/ absolute / inch / decimal}
; #@! TF.CreationDate,2024-10-25T18:54:28-04:00
; #@! TF.GenerationSoftware,Kicad,Pcbnew,8.0.5
; #@! TF.FileFunction,Plated,1,2,PTH
FMAT,2
INCH
; #@! TA.AperFunction,Plated,PTH,ViaDrill
T1C0.0157
; #@! TA.AperFunction,Plated,PTH,ComponentDrill
T2C0.0390
; #@! TA.AperFunction,Plated,PTH,ComponentDrill
T3C0.0394
; #@! TA.AperFunction,Plated,PTH,ComponentDrill
T4C0.0590
; #@! TA.AperFunction,Plated,PTH,ComponentDrill
T5C0.0591
%
G90
G05
T1
X3.689Y-1.7913
X3.7362Y-1.7323
X4.1181Y-1.8268
X4.372Y-1.8248
X4.4409Y-1.7835
X4.4882Y-1.8701
X4.4882Y-1.9488
X4.4921Y-2.0236
X4.7047Y-2.3031
T2
X3.878Y-2.4559
X3.878Y-2.7559
X3.878Y-3.2039
X3.878Y-3.5039
X3.878Y-3.952
X3.878Y-4.252
X3.878Y-4.7
X3.878Y-5.0
X4.626Y-2.4559
X4.626Y-2.7559
X4.626Y-3.2039
X4.626Y-3.5039
X4.626Y-3.952
X4.626Y-4.252
X4.626Y-4.7
X4.626Y-5.0
X5.374Y-2.4559
X5.374Y-2.7559
X5.374Y-3.2039
X5.374Y-3.5039
X5.374Y-3.952
X5.374Y-4.252
X5.374Y-4.7
X5.374Y-5.0
X6.122Y-1.7079
X6.122Y-2.0079
X6.122Y-2.4559
X6.122Y-2.7559
X6.122Y-3.2039
X6.122Y-3.5039
X6.122Y-3.952
X6.122Y-4.252
X6.122Y-4.7
X6.122Y-5.0
T3
X3.3614Y-1.4398
X3.3614Y-2.0398
X3.4239Y-1.6898
X3.4239Y-1.7898
X3.4614Y-1.4398
X3.4614Y-2.0398
X3.5614Y-1.4398
X3.5614Y-2.0398
X3.6489Y-1.9148
X3.6614Y-1.4398
X3.6614Y-2.0398
X3.7614Y-1.4398
X3.7614Y-2.0398
X3.8614Y-1.4398
X3.8614Y-2.0398
X3.9614Y-1.4398
X3.9614Y-2.0398
X5.448Y-1.7579
X5.448Y-1.8563
X5.448Y-1.9547
X6.0189Y-1.7579
X6.0189Y-1.9547
T4
X3.3539Y-2.5059
X3.3539Y-3.2539
X3.3539Y-4.002
X3.3539Y-4.75
X3.6039Y-2.4059
X3.6039Y-3.1539
X3.6039Y-3.902
X3.6039Y-4.65
X4.102Y-2.5059
X4.102Y-3.2539
X4.102Y-4.002
X4.102Y-4.75
X4.352Y-2.4059
X4.352Y-3.1539
X4.352Y-3.902
X4.352Y-4.65
X4.85Y-2.5059
X4.85Y-3.2539
X4.85Y-4.002
X4.85Y-4.75
X5.1Y-2.4059
X5.1Y-3.1539
X5.1Y-3.902
X5.1Y-4.65
X5.598Y-2.5059
X5.598Y-3.2539
X5.598Y-4.002
X5.598Y-4.75
X5.848Y-2.4059
X5.848Y-3.1539
X5.848Y-3.902
X5.848Y-4.65
T5
G00X5.7177Y-1.6358
M15
G01X5.7689Y-1.6358
M16
G05
G00X5.7177Y-2.0768
M15
G01X5.7689Y-2.0768
M16
G05
M30
