%TF.GenerationSoftware,KiCad,Pcbnew,8.0.5*%
%TF.CreationDate,2024-10-25T18:54:29-04:00*%
%TF.ProjectId,macropad,6d616372-6f70-4616-942e-6b696361645f,v1.0.0*%
%TF.SameCoordinates,Original*%
%TF.FileFunction,Drillmap*%
%TF.FilePolarity,Positive*%
%FSLAX45Y45*%
G04 Gerber Fmt 4.5, Leading zero omitted, Abs format (unit mm)*
G04 Created by KiCad (PCBNEW 8.0.5) date 2024-10-25 18:54:29*
%MOMM*%
%LPD*%
G01*
G04 APERTURE LIST*
%ADD10C,0.050000*%
%ADD11C,0.100000*%
%ADD12C,0.200000*%
%ADD13C,0.170180*%
%ADD14C,0.398780*%
G04 APERTURE END LIST*
D10*
X8252421Y-13197579D02*
X15499579Y-13197579D01*
X8243000Y-3300000D02*
X15496579Y-3296421D01*
X8051244Y-3500000D02*
G75*
G02*
X8243000Y-3300001I200176J0D01*
G01*
X8051244Y-3500000D02*
X8052421Y-12997579D01*
X15699579Y-12997579D02*
G75*
G02*
X15499579Y-13197579I-199999J-1D01*
G01*
X8252421Y-13197579D02*
G75*
G02*
X8052421Y-12997579I-1J199999D01*
G01*
X15496579Y-3296421D02*
G75*
G02*
X15696579Y-3496421I1J-199999D01*
G01*
X15696579Y-3496421D02*
X15699579Y-12997579D01*
D11*
X8417800Y-4317000D02*
X8467800Y-4317000D01*
X8417800Y-4521000D02*
X8417800Y-4317000D01*
X8467800Y-4267000D02*
X8671800Y-4267000D01*
X8467800Y-4317000D02*
X8467800Y-4267000D01*
X8467800Y-4521000D02*
X8417800Y-4521000D01*
X8467800Y-4571000D02*
X8467800Y-4521000D01*
X8671800Y-4267000D02*
X8671800Y-4317000D01*
X8671800Y-4317000D02*
X8721800Y-4317000D01*
X8671800Y-4521000D02*
X8671800Y-4571000D01*
X8671800Y-4571000D02*
X8467800Y-4571000D01*
X8721800Y-4317000D02*
X8721800Y-4521000D01*
X8721800Y-4521000D02*
X8671800Y-4521000D01*
X9052800Y-4622200D02*
X9293300Y-4622200D01*
X9052800Y-4838500D02*
X9052800Y-4622200D01*
X9102800Y-4838500D02*
X9052800Y-4838500D01*
X9102800Y-4888500D02*
X9102800Y-4838500D01*
X9243300Y-4838500D02*
X9243300Y-4888500D01*
X9243300Y-4888500D02*
X9102800Y-4888500D01*
X9293300Y-4622200D02*
X9293300Y-4838500D01*
X9293300Y-4838500D02*
X9243300Y-4838500D01*
D12*
D13*
X8306910Y-6533910D02*
X8477090Y-6704090D01*
X8477090Y-6533910D02*
X8306910Y-6704090D01*
X8306910Y-8433910D02*
X8477090Y-8604090D01*
X8477090Y-8433910D02*
X8306910Y-8604090D01*
X8306910Y-10333910D02*
X8477090Y-10504090D01*
X8477090Y-10333910D02*
X8306910Y-10504090D01*
X8306910Y-12233910D02*
X8477090Y-12404090D01*
X8477090Y-12233910D02*
X8306910Y-12404090D01*
X9322910Y-6533910D02*
X9493090Y-6704090D01*
X9493090Y-6533910D02*
X9322910Y-6704090D01*
X9322910Y-8433910D02*
X9493090Y-8604090D01*
X9493090Y-8433910D02*
X9322910Y-8604090D01*
X9322910Y-10333910D02*
X9493090Y-10504090D01*
X9493090Y-10333910D02*
X9322910Y-10504090D01*
X9322910Y-12233910D02*
X9493090Y-12404090D01*
X9493090Y-12233910D02*
X9322910Y-12404090D01*
X10206910Y-6533910D02*
X10377090Y-6704090D01*
X10377090Y-6533910D02*
X10206910Y-6704090D01*
X10206910Y-8433910D02*
X10377090Y-8604090D01*
X10377090Y-8433910D02*
X10206910Y-8604090D01*
X10206910Y-10333910D02*
X10377090Y-10504090D01*
X10377090Y-10333910D02*
X10206910Y-10504090D01*
X10206910Y-12233910D02*
X10377090Y-12404090D01*
X10377090Y-12233910D02*
X10206910Y-12404090D01*
X11222910Y-6533910D02*
X11393090Y-6704090D01*
X11393090Y-6533910D02*
X11222910Y-6704090D01*
X11222910Y-8433910D02*
X11393090Y-8604090D01*
X11393090Y-8433910D02*
X11222910Y-8604090D01*
X11222910Y-10333910D02*
X11393090Y-10504090D01*
X11393090Y-10333910D02*
X11222910Y-10504090D01*
X11222910Y-12233910D02*
X11393090Y-12404090D01*
X11393090Y-12233910D02*
X11222910Y-12404090D01*
X12106910Y-6533910D02*
X12277090Y-6704090D01*
X12277090Y-6533910D02*
X12106910Y-6704090D01*
X12106910Y-8433910D02*
X12277090Y-8604090D01*
X12277090Y-8433910D02*
X12106910Y-8604090D01*
X12106910Y-10333910D02*
X12277090Y-10504090D01*
X12277090Y-10333910D02*
X12106910Y-10504090D01*
X12106910Y-12233910D02*
X12277090Y-12404090D01*
X12277090Y-12233910D02*
X12106910Y-12404090D01*
X13122910Y-6533910D02*
X13293090Y-6704090D01*
X13293090Y-6533910D02*
X13122910Y-6704090D01*
X13122910Y-8433910D02*
X13293090Y-8604090D01*
X13293090Y-8433910D02*
X13122910Y-8604090D01*
X13122910Y-10333910D02*
X13293090Y-10504090D01*
X13293090Y-10333910D02*
X13122910Y-10504090D01*
X13122910Y-12233910D02*
X13293090Y-12404090D01*
X13293090Y-12233910D02*
X13122910Y-12404090D01*
X14006910Y-6533910D02*
X14177090Y-6704090D01*
X14177090Y-6533910D02*
X14006910Y-6704090D01*
X14006910Y-8433910D02*
X14177090Y-8604090D01*
X14177090Y-8433910D02*
X14006910Y-8604090D01*
X14006910Y-10333910D02*
X14177090Y-10504090D01*
X14177090Y-10333910D02*
X14006910Y-10504090D01*
X14006910Y-12233910D02*
X14177090Y-12404090D01*
X14177090Y-12233910D02*
X14006910Y-12404090D01*
X15022910Y-6533910D02*
X15193090Y-6704090D01*
X15193090Y-6533910D02*
X15022910Y-6704090D01*
X15022910Y-8433910D02*
X15193090Y-8604090D01*
X15193090Y-8433910D02*
X15022910Y-8604090D01*
X15022910Y-10333910D02*
X15193090Y-10504090D01*
X15193090Y-10333910D02*
X15022910Y-10504090D01*
X15022910Y-12233910D02*
X15193090Y-12404090D01*
X15193090Y-12233910D02*
X15022910Y-12404090D01*
D14*
X9099390Y-6619000D02*
G75*
G02*
X8700610Y-6619000I-199390J0D01*
G01*
X8700610Y-6619000D02*
G75*
G02*
X9099390Y-6619000I199390J0D01*
G01*
X9099390Y-8519000D02*
G75*
G02*
X8700610Y-8519000I-199390J0D01*
G01*
X8700610Y-8519000D02*
G75*
G02*
X9099390Y-8519000I199390J0D01*
G01*
X9099390Y-10419000D02*
G75*
G02*
X8700610Y-10419000I-199390J0D01*
G01*
X8700610Y-10419000D02*
G75*
G02*
X9099390Y-10419000I199390J0D01*
G01*
X9099390Y-12319000D02*
G75*
G02*
X8700610Y-12319000I-199390J0D01*
G01*
X8700610Y-12319000D02*
G75*
G02*
X9099390Y-12319000I199390J0D01*
G01*
X10999390Y-6619000D02*
G75*
G02*
X10600610Y-6619000I-199390J0D01*
G01*
X10600610Y-6619000D02*
G75*
G02*
X10999390Y-6619000I199390J0D01*
G01*
X10999390Y-8519000D02*
G75*
G02*
X10600610Y-8519000I-199390J0D01*
G01*
X10600610Y-8519000D02*
G75*
G02*
X10999390Y-8519000I199390J0D01*
G01*
X10999390Y-10419000D02*
G75*
G02*
X10600610Y-10419000I-199390J0D01*
G01*
X10600610Y-10419000D02*
G75*
G02*
X10999390Y-10419000I199390J0D01*
G01*
X10999390Y-12319000D02*
G75*
G02*
X10600610Y-12319000I-199390J0D01*
G01*
X10600610Y-12319000D02*
G75*
G02*
X10999390Y-12319000I199390J0D01*
G01*
X12899390Y-6619000D02*
G75*
G02*
X12500610Y-6619000I-199390J0D01*
G01*
X12500610Y-6619000D02*
G75*
G02*
X12899390Y-6619000I199390J0D01*
G01*
X12899390Y-8519000D02*
G75*
G02*
X12500610Y-8519000I-199390J0D01*
G01*
X12500610Y-8519000D02*
G75*
G02*
X12899390Y-8519000I199390J0D01*
G01*
X12899390Y-10419000D02*
G75*
G02*
X12500610Y-10419000I-199390J0D01*
G01*
X12500610Y-10419000D02*
G75*
G02*
X12899390Y-10419000I199390J0D01*
G01*
X12899390Y-12319000D02*
G75*
G02*
X12500610Y-12319000I-199390J0D01*
G01*
X12500610Y-12319000D02*
G75*
G02*
X12899390Y-12319000I199390J0D01*
G01*
X14799390Y-6619000D02*
G75*
G02*
X14400610Y-6619000I-199390J0D01*
G01*
X14400610Y-6619000D02*
G75*
G02*
X14799390Y-6619000I199390J0D01*
G01*
X14799390Y-8519000D02*
G75*
G02*
X14400610Y-8519000I-199390J0D01*
G01*
X14400610Y-8519000D02*
G75*
G02*
X14799390Y-8519000I199390J0D01*
G01*
X14799390Y-10419000D02*
G75*
G02*
X14400610Y-10419000I-199390J0D01*
G01*
X14400610Y-10419000D02*
G75*
G02*
X14799390Y-10419000I199390J0D01*
G01*
X14799390Y-12319000D02*
G75*
G02*
X14400610Y-12319000I-199390J0D01*
G01*
X14400610Y-12319000D02*
G75*
G02*
X14799390Y-12319000I199390J0D01*
G01*
D12*
X8309521Y-13511562D02*
X8309521Y-13311562D01*
X8309521Y-13311562D02*
X8357140Y-13311562D01*
X8357140Y-13311562D02*
X8385711Y-13321086D01*
X8385711Y-13321086D02*
X8404759Y-13340134D01*
X8404759Y-13340134D02*
X8414283Y-13359181D01*
X8414283Y-13359181D02*
X8423807Y-13397277D01*
X8423807Y-13397277D02*
X8423807Y-13425848D01*
X8423807Y-13425848D02*
X8414283Y-13463943D01*
X8414283Y-13463943D02*
X8404759Y-13482991D01*
X8404759Y-13482991D02*
X8385711Y-13502039D01*
X8385711Y-13502039D02*
X8357140Y-13511562D01*
X8357140Y-13511562D02*
X8309521Y-13511562D01*
X8509521Y-13511562D02*
X8509521Y-13378229D01*
X8509521Y-13416324D02*
X8519045Y-13397277D01*
X8519045Y-13397277D02*
X8528569Y-13387753D01*
X8528569Y-13387753D02*
X8547616Y-13378229D01*
X8547616Y-13378229D02*
X8566664Y-13378229D01*
X8633331Y-13511562D02*
X8633331Y-13378229D01*
X8633331Y-13311562D02*
X8623807Y-13321086D01*
X8623807Y-13321086D02*
X8633331Y-13330610D01*
X8633331Y-13330610D02*
X8642854Y-13321086D01*
X8642854Y-13321086D02*
X8633331Y-13311562D01*
X8633331Y-13311562D02*
X8633331Y-13330610D01*
X8757140Y-13511562D02*
X8738092Y-13502039D01*
X8738092Y-13502039D02*
X8728569Y-13482991D01*
X8728569Y-13482991D02*
X8728569Y-13311562D01*
X8861902Y-13511562D02*
X8842854Y-13502039D01*
X8842854Y-13502039D02*
X8833331Y-13482991D01*
X8833331Y-13482991D02*
X8833331Y-13311562D01*
X9090473Y-13511562D02*
X9090473Y-13311562D01*
X9090473Y-13311562D02*
X9157140Y-13454419D01*
X9157140Y-13454419D02*
X9223807Y-13311562D01*
X9223807Y-13311562D02*
X9223807Y-13511562D01*
X9404759Y-13511562D02*
X9404759Y-13406800D01*
X9404759Y-13406800D02*
X9395235Y-13387753D01*
X9395235Y-13387753D02*
X9376188Y-13378229D01*
X9376188Y-13378229D02*
X9338092Y-13378229D01*
X9338092Y-13378229D02*
X9319045Y-13387753D01*
X9404759Y-13502039D02*
X9385712Y-13511562D01*
X9385712Y-13511562D02*
X9338092Y-13511562D01*
X9338092Y-13511562D02*
X9319045Y-13502039D01*
X9319045Y-13502039D02*
X9309521Y-13482991D01*
X9309521Y-13482991D02*
X9309521Y-13463943D01*
X9309521Y-13463943D02*
X9319045Y-13444896D01*
X9319045Y-13444896D02*
X9338092Y-13435372D01*
X9338092Y-13435372D02*
X9385712Y-13435372D01*
X9385712Y-13435372D02*
X9404759Y-13425848D01*
X9499997Y-13378229D02*
X9499997Y-13578229D01*
X9499997Y-13387753D02*
X9519045Y-13378229D01*
X9519045Y-13378229D02*
X9557140Y-13378229D01*
X9557140Y-13378229D02*
X9576188Y-13387753D01*
X9576188Y-13387753D02*
X9585712Y-13397277D01*
X9585712Y-13397277D02*
X9595235Y-13416324D01*
X9595235Y-13416324D02*
X9595235Y-13473467D01*
X9595235Y-13473467D02*
X9585712Y-13492515D01*
X9585712Y-13492515D02*
X9576188Y-13502039D01*
X9576188Y-13502039D02*
X9557140Y-13511562D01*
X9557140Y-13511562D02*
X9519045Y-13511562D01*
X9519045Y-13511562D02*
X9499997Y-13502039D01*
X9680950Y-13492515D02*
X9690473Y-13502039D01*
X9690473Y-13502039D02*
X9680950Y-13511562D01*
X9680950Y-13511562D02*
X9671426Y-13502039D01*
X9671426Y-13502039D02*
X9680950Y-13492515D01*
X9680950Y-13492515D02*
X9680950Y-13511562D01*
X9680950Y-13387753D02*
X9690473Y-13397277D01*
X9690473Y-13397277D02*
X9680950Y-13406800D01*
X9680950Y-13406800D02*
X9671426Y-13397277D01*
X9671426Y-13397277D02*
X9680950Y-13387753D01*
X9680950Y-13387753D02*
X9680950Y-13406800D01*
D13*
X7878564Y-13754989D02*
X8048744Y-13925169D01*
X8048744Y-13754989D02*
X7878564Y-13925169D01*
D12*
X8414283Y-13931562D02*
X8299997Y-13931562D01*
X8357140Y-13931562D02*
X8357140Y-13731562D01*
X8357140Y-13731562D02*
X8338092Y-13760134D01*
X8338092Y-13760134D02*
X8319045Y-13779181D01*
X8319045Y-13779181D02*
X8299997Y-13788705D01*
X8499997Y-13912515D02*
X8509521Y-13922039D01*
X8509521Y-13922039D02*
X8499997Y-13931562D01*
X8499997Y-13931562D02*
X8490473Y-13922039D01*
X8490473Y-13922039D02*
X8499997Y-13912515D01*
X8499997Y-13912515D02*
X8499997Y-13931562D01*
X8576188Y-13731562D02*
X8709521Y-13731562D01*
X8709521Y-13731562D02*
X8623807Y-13931562D01*
X8823807Y-13731562D02*
X8842854Y-13731562D01*
X8842854Y-13731562D02*
X8861902Y-13741086D01*
X8861902Y-13741086D02*
X8871426Y-13750610D01*
X8871426Y-13750610D02*
X8880950Y-13769658D01*
X8880950Y-13769658D02*
X8890473Y-13807753D01*
X8890473Y-13807753D02*
X8890473Y-13855372D01*
X8890473Y-13855372D02*
X8880950Y-13893467D01*
X8880950Y-13893467D02*
X8871426Y-13912515D01*
X8871426Y-13912515D02*
X8861902Y-13922039D01*
X8861902Y-13922039D02*
X8842854Y-13931562D01*
X8842854Y-13931562D02*
X8823807Y-13931562D01*
X8823807Y-13931562D02*
X8804759Y-13922039D01*
X8804759Y-13922039D02*
X8795235Y-13912515D01*
X8795235Y-13912515D02*
X8785712Y-13893467D01*
X8785712Y-13893467D02*
X8776188Y-13855372D01*
X8776188Y-13855372D02*
X8776188Y-13807753D01*
X8776188Y-13807753D02*
X8785712Y-13769658D01*
X8785712Y-13769658D02*
X8795235Y-13750610D01*
X8795235Y-13750610D02*
X8804759Y-13741086D01*
X8804759Y-13741086D02*
X8823807Y-13731562D01*
X8966664Y-13750610D02*
X8976188Y-13741086D01*
X8976188Y-13741086D02*
X8995235Y-13731562D01*
X8995235Y-13731562D02*
X9042854Y-13731562D01*
X9042854Y-13731562D02*
X9061902Y-13741086D01*
X9061902Y-13741086D02*
X9071426Y-13750610D01*
X9071426Y-13750610D02*
X9080950Y-13769658D01*
X9080950Y-13769658D02*
X9080950Y-13788705D01*
X9080950Y-13788705D02*
X9071426Y-13817277D01*
X9071426Y-13817277D02*
X8957140Y-13931562D01*
X8957140Y-13931562D02*
X9080950Y-13931562D01*
X9166664Y-13931562D02*
X9166664Y-13798229D01*
X9166664Y-13817277D02*
X9176188Y-13807753D01*
X9176188Y-13807753D02*
X9195235Y-13798229D01*
X9195235Y-13798229D02*
X9223807Y-13798229D01*
X9223807Y-13798229D02*
X9242854Y-13807753D01*
X9242854Y-13807753D02*
X9252378Y-13826800D01*
X9252378Y-13826800D02*
X9252378Y-13931562D01*
X9252378Y-13826800D02*
X9261902Y-13807753D01*
X9261902Y-13807753D02*
X9280950Y-13798229D01*
X9280950Y-13798229D02*
X9309521Y-13798229D01*
X9309521Y-13798229D02*
X9328569Y-13807753D01*
X9328569Y-13807753D02*
X9338093Y-13826800D01*
X9338093Y-13826800D02*
X9338093Y-13931562D01*
X9433331Y-13931562D02*
X9433331Y-13798229D01*
X9433331Y-13817277D02*
X9442854Y-13807753D01*
X9442854Y-13807753D02*
X9461902Y-13798229D01*
X9461902Y-13798229D02*
X9490474Y-13798229D01*
X9490474Y-13798229D02*
X9509521Y-13807753D01*
X9509521Y-13807753D02*
X9519045Y-13826800D01*
X9519045Y-13826800D02*
X9519045Y-13931562D01*
X9519045Y-13826800D02*
X9528569Y-13807753D01*
X9528569Y-13807753D02*
X9547616Y-13798229D01*
X9547616Y-13798229D02*
X9576188Y-13798229D01*
X9576188Y-13798229D02*
X9595235Y-13807753D01*
X9595235Y-13807753D02*
X9604759Y-13826800D01*
X9604759Y-13826800D02*
X9604759Y-13931562D01*
X9995235Y-13722039D02*
X9823807Y-13979181D01*
X10252378Y-13731562D02*
X10271426Y-13731562D01*
X10271426Y-13731562D02*
X10290474Y-13741086D01*
X10290474Y-13741086D02*
X10299997Y-13750610D01*
X10299997Y-13750610D02*
X10309521Y-13769658D01*
X10309521Y-13769658D02*
X10319045Y-13807753D01*
X10319045Y-13807753D02*
X10319045Y-13855372D01*
X10319045Y-13855372D02*
X10309521Y-13893467D01*
X10309521Y-13893467D02*
X10299997Y-13912515D01*
X10299997Y-13912515D02*
X10290474Y-13922039D01*
X10290474Y-13922039D02*
X10271426Y-13931562D01*
X10271426Y-13931562D02*
X10252378Y-13931562D01*
X10252378Y-13931562D02*
X10233331Y-13922039D01*
X10233331Y-13922039D02*
X10223807Y-13912515D01*
X10223807Y-13912515D02*
X10214283Y-13893467D01*
X10214283Y-13893467D02*
X10204759Y-13855372D01*
X10204759Y-13855372D02*
X10204759Y-13807753D01*
X10204759Y-13807753D02*
X10214283Y-13769658D01*
X10214283Y-13769658D02*
X10223807Y-13750610D01*
X10223807Y-13750610D02*
X10233331Y-13741086D01*
X10233331Y-13741086D02*
X10252378Y-13731562D01*
X10404759Y-13912515D02*
X10414283Y-13922039D01*
X10414283Y-13922039D02*
X10404759Y-13931562D01*
X10404759Y-13931562D02*
X10395236Y-13922039D01*
X10395236Y-13922039D02*
X10404759Y-13912515D01*
X10404759Y-13912515D02*
X10404759Y-13931562D01*
X10538093Y-13731562D02*
X10557140Y-13731562D01*
X10557140Y-13731562D02*
X10576188Y-13741086D01*
X10576188Y-13741086D02*
X10585712Y-13750610D01*
X10585712Y-13750610D02*
X10595236Y-13769658D01*
X10595236Y-13769658D02*
X10604759Y-13807753D01*
X10604759Y-13807753D02*
X10604759Y-13855372D01*
X10604759Y-13855372D02*
X10595236Y-13893467D01*
X10595236Y-13893467D02*
X10585712Y-13912515D01*
X10585712Y-13912515D02*
X10576188Y-13922039D01*
X10576188Y-13922039D02*
X10557140Y-13931562D01*
X10557140Y-13931562D02*
X10538093Y-13931562D01*
X10538093Y-13931562D02*
X10519045Y-13922039D01*
X10519045Y-13922039D02*
X10509521Y-13912515D01*
X10509521Y-13912515D02*
X10499997Y-13893467D01*
X10499997Y-13893467D02*
X10490474Y-13855372D01*
X10490474Y-13855372D02*
X10490474Y-13807753D01*
X10490474Y-13807753D02*
X10499997Y-13769658D01*
X10499997Y-13769658D02*
X10509521Y-13750610D01*
X10509521Y-13750610D02*
X10519045Y-13741086D01*
X10519045Y-13741086D02*
X10538093Y-13731562D01*
X10776188Y-13731562D02*
X10738093Y-13731562D01*
X10738093Y-13731562D02*
X10719045Y-13741086D01*
X10719045Y-13741086D02*
X10709521Y-13750610D01*
X10709521Y-13750610D02*
X10690474Y-13779181D01*
X10690474Y-13779181D02*
X10680950Y-13817277D01*
X10680950Y-13817277D02*
X10680950Y-13893467D01*
X10680950Y-13893467D02*
X10690474Y-13912515D01*
X10690474Y-13912515D02*
X10699997Y-13922039D01*
X10699997Y-13922039D02*
X10719045Y-13931562D01*
X10719045Y-13931562D02*
X10757140Y-13931562D01*
X10757140Y-13931562D02*
X10776188Y-13922039D01*
X10776188Y-13922039D02*
X10785712Y-13912515D01*
X10785712Y-13912515D02*
X10795236Y-13893467D01*
X10795236Y-13893467D02*
X10795236Y-13845848D01*
X10795236Y-13845848D02*
X10785712Y-13826800D01*
X10785712Y-13826800D02*
X10776188Y-13817277D01*
X10776188Y-13817277D02*
X10757140Y-13807753D01*
X10757140Y-13807753D02*
X10719045Y-13807753D01*
X10719045Y-13807753D02*
X10699997Y-13817277D01*
X10699997Y-13817277D02*
X10690474Y-13826800D01*
X10690474Y-13826800D02*
X10680950Y-13845848D01*
X10861902Y-13731562D02*
X10995236Y-13731562D01*
X10995236Y-13731562D02*
X10909521Y-13931562D01*
X11109521Y-13731562D02*
X11128569Y-13731562D01*
X11128569Y-13731562D02*
X11147617Y-13741086D01*
X11147617Y-13741086D02*
X11157140Y-13750610D01*
X11157140Y-13750610D02*
X11166664Y-13769658D01*
X11166664Y-13769658D02*
X11176188Y-13807753D01*
X11176188Y-13807753D02*
X11176188Y-13855372D01*
X11176188Y-13855372D02*
X11166664Y-13893467D01*
X11166664Y-13893467D02*
X11157140Y-13912515D01*
X11157140Y-13912515D02*
X11147617Y-13922039D01*
X11147617Y-13922039D02*
X11128569Y-13931562D01*
X11128569Y-13931562D02*
X11109521Y-13931562D01*
X11109521Y-13931562D02*
X11090474Y-13922039D01*
X11090474Y-13922039D02*
X11080950Y-13912515D01*
X11080950Y-13912515D02*
X11071426Y-13893467D01*
X11071426Y-13893467D02*
X11061902Y-13855372D01*
X11061902Y-13855372D02*
X11061902Y-13807753D01*
X11061902Y-13807753D02*
X11071426Y-13769658D01*
X11071426Y-13769658D02*
X11080950Y-13750610D01*
X11080950Y-13750610D02*
X11090474Y-13741086D01*
X11090474Y-13741086D02*
X11109521Y-13731562D01*
X11252378Y-13731562D02*
X11252378Y-13769658D01*
X11328569Y-13731562D02*
X11328569Y-13769658D01*
X11623807Y-14007753D02*
X11614283Y-13998229D01*
X11614283Y-13998229D02*
X11595236Y-13969658D01*
X11595236Y-13969658D02*
X11585712Y-13950610D01*
X11585712Y-13950610D02*
X11576188Y-13922039D01*
X11576188Y-13922039D02*
X11566664Y-13874419D01*
X11566664Y-13874419D02*
X11566664Y-13836324D01*
X11566664Y-13836324D02*
X11576188Y-13788705D01*
X11576188Y-13788705D02*
X11585712Y-13760134D01*
X11585712Y-13760134D02*
X11595236Y-13741086D01*
X11595236Y-13741086D02*
X11614283Y-13712515D01*
X11614283Y-13712515D02*
X11623807Y-13702991D01*
X11680950Y-13731562D02*
X11804759Y-13731562D01*
X11804759Y-13731562D02*
X11738093Y-13807753D01*
X11738093Y-13807753D02*
X11766664Y-13807753D01*
X11766664Y-13807753D02*
X11785712Y-13817277D01*
X11785712Y-13817277D02*
X11795236Y-13826800D01*
X11795236Y-13826800D02*
X11804759Y-13845848D01*
X11804759Y-13845848D02*
X11804759Y-13893467D01*
X11804759Y-13893467D02*
X11795236Y-13912515D01*
X11795236Y-13912515D02*
X11785712Y-13922039D01*
X11785712Y-13922039D02*
X11766664Y-13931562D01*
X11766664Y-13931562D02*
X11709521Y-13931562D01*
X11709521Y-13931562D02*
X11690474Y-13922039D01*
X11690474Y-13922039D02*
X11680950Y-13912515D01*
X11880950Y-13750610D02*
X11890474Y-13741086D01*
X11890474Y-13741086D02*
X11909521Y-13731562D01*
X11909521Y-13731562D02*
X11957140Y-13731562D01*
X11957140Y-13731562D02*
X11976188Y-13741086D01*
X11976188Y-13741086D02*
X11985712Y-13750610D01*
X11985712Y-13750610D02*
X11995236Y-13769658D01*
X11995236Y-13769658D02*
X11995236Y-13788705D01*
X11995236Y-13788705D02*
X11985712Y-13817277D01*
X11985712Y-13817277D02*
X11871426Y-13931562D01*
X11871426Y-13931562D02*
X11995236Y-13931562D01*
X12233331Y-13931562D02*
X12233331Y-13731562D01*
X12319045Y-13931562D02*
X12319045Y-13826800D01*
X12319045Y-13826800D02*
X12309521Y-13807753D01*
X12309521Y-13807753D02*
X12290474Y-13798229D01*
X12290474Y-13798229D02*
X12261902Y-13798229D01*
X12261902Y-13798229D02*
X12242855Y-13807753D01*
X12242855Y-13807753D02*
X12233331Y-13817277D01*
X12442855Y-13931562D02*
X12423807Y-13922039D01*
X12423807Y-13922039D02*
X12414283Y-13912515D01*
X12414283Y-13912515D02*
X12404759Y-13893467D01*
X12404759Y-13893467D02*
X12404759Y-13836324D01*
X12404759Y-13836324D02*
X12414283Y-13817277D01*
X12414283Y-13817277D02*
X12423807Y-13807753D01*
X12423807Y-13807753D02*
X12442855Y-13798229D01*
X12442855Y-13798229D02*
X12471426Y-13798229D01*
X12471426Y-13798229D02*
X12490474Y-13807753D01*
X12490474Y-13807753D02*
X12499998Y-13817277D01*
X12499998Y-13817277D02*
X12509521Y-13836324D01*
X12509521Y-13836324D02*
X12509521Y-13893467D01*
X12509521Y-13893467D02*
X12499998Y-13912515D01*
X12499998Y-13912515D02*
X12490474Y-13922039D01*
X12490474Y-13922039D02*
X12471426Y-13931562D01*
X12471426Y-13931562D02*
X12442855Y-13931562D01*
X12623807Y-13931562D02*
X12604759Y-13922039D01*
X12604759Y-13922039D02*
X12595236Y-13902991D01*
X12595236Y-13902991D02*
X12595236Y-13731562D01*
X12776188Y-13922039D02*
X12757140Y-13931562D01*
X12757140Y-13931562D02*
X12719045Y-13931562D01*
X12719045Y-13931562D02*
X12699998Y-13922039D01*
X12699998Y-13922039D02*
X12690474Y-13902991D01*
X12690474Y-13902991D02*
X12690474Y-13826800D01*
X12690474Y-13826800D02*
X12699998Y-13807753D01*
X12699998Y-13807753D02*
X12719045Y-13798229D01*
X12719045Y-13798229D02*
X12757140Y-13798229D01*
X12757140Y-13798229D02*
X12776188Y-13807753D01*
X12776188Y-13807753D02*
X12785712Y-13826800D01*
X12785712Y-13826800D02*
X12785712Y-13845848D01*
X12785712Y-13845848D02*
X12690474Y-13864896D01*
X12861902Y-13922039D02*
X12880950Y-13931562D01*
X12880950Y-13931562D02*
X12919045Y-13931562D01*
X12919045Y-13931562D02*
X12938093Y-13922039D01*
X12938093Y-13922039D02*
X12947617Y-13902991D01*
X12947617Y-13902991D02*
X12947617Y-13893467D01*
X12947617Y-13893467D02*
X12938093Y-13874419D01*
X12938093Y-13874419D02*
X12919045Y-13864896D01*
X12919045Y-13864896D02*
X12890474Y-13864896D01*
X12890474Y-13864896D02*
X12871426Y-13855372D01*
X12871426Y-13855372D02*
X12861902Y-13836324D01*
X12861902Y-13836324D02*
X12861902Y-13826800D01*
X12861902Y-13826800D02*
X12871426Y-13807753D01*
X12871426Y-13807753D02*
X12890474Y-13798229D01*
X12890474Y-13798229D02*
X12919045Y-13798229D01*
X12919045Y-13798229D02*
X12938093Y-13807753D01*
X13014283Y-14007753D02*
X13023807Y-13998229D01*
X13023807Y-13998229D02*
X13042855Y-13969658D01*
X13042855Y-13969658D02*
X13052379Y-13950610D01*
X13052379Y-13950610D02*
X13061902Y-13922039D01*
X13061902Y-13922039D02*
X13071426Y-13874419D01*
X13071426Y-13874419D02*
X13071426Y-13836324D01*
X13071426Y-13836324D02*
X13061902Y-13788705D01*
X13061902Y-13788705D02*
X13052379Y-13760134D01*
X13052379Y-13760134D02*
X13042855Y-13741086D01*
X13042855Y-13741086D02*
X13023807Y-13712515D01*
X13023807Y-13712515D02*
X13014283Y-13702991D01*
X13376188Y-14007753D02*
X13366664Y-13998229D01*
X13366664Y-13998229D02*
X13347617Y-13969658D01*
X13347617Y-13969658D02*
X13338093Y-13950610D01*
X13338093Y-13950610D02*
X13328569Y-13922039D01*
X13328569Y-13922039D02*
X13319045Y-13874419D01*
X13319045Y-13874419D02*
X13319045Y-13836324D01*
X13319045Y-13836324D02*
X13328569Y-13788705D01*
X13328569Y-13788705D02*
X13338093Y-13760134D01*
X13338093Y-13760134D02*
X13347617Y-13741086D01*
X13347617Y-13741086D02*
X13366664Y-13712515D01*
X13366664Y-13712515D02*
X13376188Y-13702991D01*
X13452379Y-13798229D02*
X13452379Y-13931562D01*
X13452379Y-13817277D02*
X13461902Y-13807753D01*
X13461902Y-13807753D02*
X13480950Y-13798229D01*
X13480950Y-13798229D02*
X13509521Y-13798229D01*
X13509521Y-13798229D02*
X13528569Y-13807753D01*
X13528569Y-13807753D02*
X13538093Y-13826800D01*
X13538093Y-13826800D02*
X13538093Y-13931562D01*
X13661902Y-13931562D02*
X13642855Y-13922039D01*
X13642855Y-13922039D02*
X13633331Y-13912515D01*
X13633331Y-13912515D02*
X13623807Y-13893467D01*
X13623807Y-13893467D02*
X13623807Y-13836324D01*
X13623807Y-13836324D02*
X13633331Y-13817277D01*
X13633331Y-13817277D02*
X13642855Y-13807753D01*
X13642855Y-13807753D02*
X13661902Y-13798229D01*
X13661902Y-13798229D02*
X13690474Y-13798229D01*
X13690474Y-13798229D02*
X13709521Y-13807753D01*
X13709521Y-13807753D02*
X13719045Y-13817277D01*
X13719045Y-13817277D02*
X13728569Y-13836324D01*
X13728569Y-13836324D02*
X13728569Y-13893467D01*
X13728569Y-13893467D02*
X13719045Y-13912515D01*
X13719045Y-13912515D02*
X13709521Y-13922039D01*
X13709521Y-13922039D02*
X13690474Y-13931562D01*
X13690474Y-13931562D02*
X13661902Y-13931562D01*
X13785712Y-13798229D02*
X13861902Y-13798229D01*
X13814283Y-13731562D02*
X13814283Y-13902991D01*
X13814283Y-13902991D02*
X13823807Y-13922039D01*
X13823807Y-13922039D02*
X13842855Y-13931562D01*
X13842855Y-13931562D02*
X13861902Y-13931562D01*
X14080950Y-13798229D02*
X14080950Y-13998229D01*
X14080950Y-13807753D02*
X14099998Y-13798229D01*
X14099998Y-13798229D02*
X14138093Y-13798229D01*
X14138093Y-13798229D02*
X14157141Y-13807753D01*
X14157141Y-13807753D02*
X14166664Y-13817277D01*
X14166664Y-13817277D02*
X14176188Y-13836324D01*
X14176188Y-13836324D02*
X14176188Y-13893467D01*
X14176188Y-13893467D02*
X14166664Y-13912515D01*
X14166664Y-13912515D02*
X14157141Y-13922039D01*
X14157141Y-13922039D02*
X14138093Y-13931562D01*
X14138093Y-13931562D02*
X14099998Y-13931562D01*
X14099998Y-13931562D02*
X14080950Y-13922039D01*
X14290474Y-13931562D02*
X14271426Y-13922039D01*
X14271426Y-13922039D02*
X14261902Y-13902991D01*
X14261902Y-13902991D02*
X14261902Y-13731562D01*
X14452379Y-13931562D02*
X14452379Y-13826800D01*
X14452379Y-13826800D02*
X14442855Y-13807753D01*
X14442855Y-13807753D02*
X14423807Y-13798229D01*
X14423807Y-13798229D02*
X14385712Y-13798229D01*
X14385712Y-13798229D02*
X14366664Y-13807753D01*
X14452379Y-13922039D02*
X14433331Y-13931562D01*
X14433331Y-13931562D02*
X14385712Y-13931562D01*
X14385712Y-13931562D02*
X14366664Y-13922039D01*
X14366664Y-13922039D02*
X14357141Y-13902991D01*
X14357141Y-13902991D02*
X14357141Y-13883943D01*
X14357141Y-13883943D02*
X14366664Y-13864896D01*
X14366664Y-13864896D02*
X14385712Y-13855372D01*
X14385712Y-13855372D02*
X14433331Y-13855372D01*
X14433331Y-13855372D02*
X14452379Y-13845848D01*
X14519045Y-13798229D02*
X14595236Y-13798229D01*
X14547617Y-13731562D02*
X14547617Y-13902991D01*
X14547617Y-13902991D02*
X14557141Y-13922039D01*
X14557141Y-13922039D02*
X14576188Y-13931562D01*
X14576188Y-13931562D02*
X14595236Y-13931562D01*
X14738093Y-13922039D02*
X14719045Y-13931562D01*
X14719045Y-13931562D02*
X14680950Y-13931562D01*
X14680950Y-13931562D02*
X14661902Y-13922039D01*
X14661902Y-13922039D02*
X14652379Y-13902991D01*
X14652379Y-13902991D02*
X14652379Y-13826800D01*
X14652379Y-13826800D02*
X14661902Y-13807753D01*
X14661902Y-13807753D02*
X14680950Y-13798229D01*
X14680950Y-13798229D02*
X14719045Y-13798229D01*
X14719045Y-13798229D02*
X14738093Y-13807753D01*
X14738093Y-13807753D02*
X14747617Y-13826800D01*
X14747617Y-13826800D02*
X14747617Y-13845848D01*
X14747617Y-13845848D02*
X14652379Y-13864896D01*
X14919045Y-13931562D02*
X14919045Y-13731562D01*
X14919045Y-13922039D02*
X14899998Y-13931562D01*
X14899998Y-13931562D02*
X14861902Y-13931562D01*
X14861902Y-13931562D02*
X14842855Y-13922039D01*
X14842855Y-13922039D02*
X14833331Y-13912515D01*
X14833331Y-13912515D02*
X14823807Y-13893467D01*
X14823807Y-13893467D02*
X14823807Y-13836324D01*
X14823807Y-13836324D02*
X14833331Y-13817277D01*
X14833331Y-13817277D02*
X14842855Y-13807753D01*
X14842855Y-13807753D02*
X14861902Y-13798229D01*
X14861902Y-13798229D02*
X14899998Y-13798229D01*
X14899998Y-13798229D02*
X14919045Y-13807753D01*
X14995236Y-14007753D02*
X15004760Y-13998229D01*
X15004760Y-13998229D02*
X15023807Y-13969658D01*
X15023807Y-13969658D02*
X15033331Y-13950610D01*
X15033331Y-13950610D02*
X15042855Y-13922039D01*
X15042855Y-13922039D02*
X15052379Y-13874419D01*
X15052379Y-13874419D02*
X15052379Y-13836324D01*
X15052379Y-13836324D02*
X15042855Y-13788705D01*
X15042855Y-13788705D02*
X15033331Y-13760134D01*
X15033331Y-13760134D02*
X15023807Y-13741086D01*
X15023807Y-13741086D02*
X15004760Y-13712515D01*
X15004760Y-13712515D02*
X14995236Y-13702991D01*
X8048744Y-14130259D02*
G75*
G02*
X7848744Y-14130259I-100000J0D01*
G01*
X7848744Y-14130259D02*
G75*
G02*
X8048744Y-14130259I100000J0D01*
G01*
X8290473Y-14021742D02*
X8414283Y-14021742D01*
X8414283Y-14021742D02*
X8347616Y-14097933D01*
X8347616Y-14097933D02*
X8376188Y-14097933D01*
X8376188Y-14097933D02*
X8395235Y-14107457D01*
X8395235Y-14107457D02*
X8404759Y-14116980D01*
X8404759Y-14116980D02*
X8414283Y-14136028D01*
X8414283Y-14136028D02*
X8414283Y-14183647D01*
X8414283Y-14183647D02*
X8404759Y-14202695D01*
X8404759Y-14202695D02*
X8395235Y-14212219D01*
X8395235Y-14212219D02*
X8376188Y-14221742D01*
X8376188Y-14221742D02*
X8319045Y-14221742D01*
X8319045Y-14221742D02*
X8299997Y-14212219D01*
X8299997Y-14212219D02*
X8290473Y-14202695D01*
X8499997Y-14202695D02*
X8509521Y-14212219D01*
X8509521Y-14212219D02*
X8499997Y-14221742D01*
X8499997Y-14221742D02*
X8490473Y-14212219D01*
X8490473Y-14212219D02*
X8499997Y-14202695D01*
X8499997Y-14202695D02*
X8499997Y-14221742D01*
X8604759Y-14221742D02*
X8642854Y-14221742D01*
X8642854Y-14221742D02*
X8661902Y-14212219D01*
X8661902Y-14212219D02*
X8671426Y-14202695D01*
X8671426Y-14202695D02*
X8690473Y-14174123D01*
X8690473Y-14174123D02*
X8699997Y-14136028D01*
X8699997Y-14136028D02*
X8699997Y-14059838D01*
X8699997Y-14059838D02*
X8690473Y-14040790D01*
X8690473Y-14040790D02*
X8680950Y-14031266D01*
X8680950Y-14031266D02*
X8661902Y-14021742D01*
X8661902Y-14021742D02*
X8623807Y-14021742D01*
X8623807Y-14021742D02*
X8604759Y-14031266D01*
X8604759Y-14031266D02*
X8595235Y-14040790D01*
X8595235Y-14040790D02*
X8585712Y-14059838D01*
X8585712Y-14059838D02*
X8585712Y-14107457D01*
X8585712Y-14107457D02*
X8595235Y-14126504D01*
X8595235Y-14126504D02*
X8604759Y-14136028D01*
X8604759Y-14136028D02*
X8623807Y-14145552D01*
X8623807Y-14145552D02*
X8661902Y-14145552D01*
X8661902Y-14145552D02*
X8680950Y-14136028D01*
X8680950Y-14136028D02*
X8690473Y-14126504D01*
X8690473Y-14126504D02*
X8699997Y-14107457D01*
X8814283Y-14107457D02*
X8795235Y-14097933D01*
X8795235Y-14097933D02*
X8785712Y-14088409D01*
X8785712Y-14088409D02*
X8776188Y-14069361D01*
X8776188Y-14069361D02*
X8776188Y-14059838D01*
X8776188Y-14059838D02*
X8785712Y-14040790D01*
X8785712Y-14040790D02*
X8795235Y-14031266D01*
X8795235Y-14031266D02*
X8814283Y-14021742D01*
X8814283Y-14021742D02*
X8852378Y-14021742D01*
X8852378Y-14021742D02*
X8871426Y-14031266D01*
X8871426Y-14031266D02*
X8880950Y-14040790D01*
X8880950Y-14040790D02*
X8890473Y-14059838D01*
X8890473Y-14059838D02*
X8890473Y-14069361D01*
X8890473Y-14069361D02*
X8880950Y-14088409D01*
X8880950Y-14088409D02*
X8871426Y-14097933D01*
X8871426Y-14097933D02*
X8852378Y-14107457D01*
X8852378Y-14107457D02*
X8814283Y-14107457D01*
X8814283Y-14107457D02*
X8795235Y-14116980D01*
X8795235Y-14116980D02*
X8785712Y-14126504D01*
X8785712Y-14126504D02*
X8776188Y-14145552D01*
X8776188Y-14145552D02*
X8776188Y-14183647D01*
X8776188Y-14183647D02*
X8785712Y-14202695D01*
X8785712Y-14202695D02*
X8795235Y-14212219D01*
X8795235Y-14212219D02*
X8814283Y-14221742D01*
X8814283Y-14221742D02*
X8852378Y-14221742D01*
X8852378Y-14221742D02*
X8871426Y-14212219D01*
X8871426Y-14212219D02*
X8880950Y-14202695D01*
X8880950Y-14202695D02*
X8890473Y-14183647D01*
X8890473Y-14183647D02*
X8890473Y-14145552D01*
X8890473Y-14145552D02*
X8880950Y-14126504D01*
X8880950Y-14126504D02*
X8871426Y-14116980D01*
X8871426Y-14116980D02*
X8852378Y-14107457D01*
X9004759Y-14107457D02*
X8985712Y-14097933D01*
X8985712Y-14097933D02*
X8976188Y-14088409D01*
X8976188Y-14088409D02*
X8966664Y-14069361D01*
X8966664Y-14069361D02*
X8966664Y-14059838D01*
X8966664Y-14059838D02*
X8976188Y-14040790D01*
X8976188Y-14040790D02*
X8985712Y-14031266D01*
X8985712Y-14031266D02*
X9004759Y-14021742D01*
X9004759Y-14021742D02*
X9042854Y-14021742D01*
X9042854Y-14021742D02*
X9061902Y-14031266D01*
X9061902Y-14031266D02*
X9071426Y-14040790D01*
X9071426Y-14040790D02*
X9080950Y-14059838D01*
X9080950Y-14059838D02*
X9080950Y-14069361D01*
X9080950Y-14069361D02*
X9071426Y-14088409D01*
X9071426Y-14088409D02*
X9061902Y-14097933D01*
X9061902Y-14097933D02*
X9042854Y-14107457D01*
X9042854Y-14107457D02*
X9004759Y-14107457D01*
X9004759Y-14107457D02*
X8985712Y-14116980D01*
X8985712Y-14116980D02*
X8976188Y-14126504D01*
X8976188Y-14126504D02*
X8966664Y-14145552D01*
X8966664Y-14145552D02*
X8966664Y-14183647D01*
X8966664Y-14183647D02*
X8976188Y-14202695D01*
X8976188Y-14202695D02*
X8985712Y-14212219D01*
X8985712Y-14212219D02*
X9004759Y-14221742D01*
X9004759Y-14221742D02*
X9042854Y-14221742D01*
X9042854Y-14221742D02*
X9061902Y-14212219D01*
X9061902Y-14212219D02*
X9071426Y-14202695D01*
X9071426Y-14202695D02*
X9080950Y-14183647D01*
X9080950Y-14183647D02*
X9080950Y-14145552D01*
X9080950Y-14145552D02*
X9071426Y-14126504D01*
X9071426Y-14126504D02*
X9061902Y-14116980D01*
X9061902Y-14116980D02*
X9042854Y-14107457D01*
X9166664Y-14221742D02*
X9166664Y-14088409D01*
X9166664Y-14107457D02*
X9176188Y-14097933D01*
X9176188Y-14097933D02*
X9195235Y-14088409D01*
X9195235Y-14088409D02*
X9223807Y-14088409D01*
X9223807Y-14088409D02*
X9242854Y-14097933D01*
X9242854Y-14097933D02*
X9252378Y-14116980D01*
X9252378Y-14116980D02*
X9252378Y-14221742D01*
X9252378Y-14116980D02*
X9261902Y-14097933D01*
X9261902Y-14097933D02*
X9280950Y-14088409D01*
X9280950Y-14088409D02*
X9309521Y-14088409D01*
X9309521Y-14088409D02*
X9328569Y-14097933D01*
X9328569Y-14097933D02*
X9338093Y-14116980D01*
X9338093Y-14116980D02*
X9338093Y-14221742D01*
X9433331Y-14221742D02*
X9433331Y-14088409D01*
X9433331Y-14107457D02*
X9442854Y-14097933D01*
X9442854Y-14097933D02*
X9461902Y-14088409D01*
X9461902Y-14088409D02*
X9490474Y-14088409D01*
X9490474Y-14088409D02*
X9509521Y-14097933D01*
X9509521Y-14097933D02*
X9519045Y-14116980D01*
X9519045Y-14116980D02*
X9519045Y-14221742D01*
X9519045Y-14116980D02*
X9528569Y-14097933D01*
X9528569Y-14097933D02*
X9547616Y-14088409D01*
X9547616Y-14088409D02*
X9576188Y-14088409D01*
X9576188Y-14088409D02*
X9595235Y-14097933D01*
X9595235Y-14097933D02*
X9604759Y-14116980D01*
X9604759Y-14116980D02*
X9604759Y-14221742D01*
X9995235Y-14012219D02*
X9823807Y-14269361D01*
X10252378Y-14021742D02*
X10271426Y-14021742D01*
X10271426Y-14021742D02*
X10290474Y-14031266D01*
X10290474Y-14031266D02*
X10299997Y-14040790D01*
X10299997Y-14040790D02*
X10309521Y-14059838D01*
X10309521Y-14059838D02*
X10319045Y-14097933D01*
X10319045Y-14097933D02*
X10319045Y-14145552D01*
X10319045Y-14145552D02*
X10309521Y-14183647D01*
X10309521Y-14183647D02*
X10299997Y-14202695D01*
X10299997Y-14202695D02*
X10290474Y-14212219D01*
X10290474Y-14212219D02*
X10271426Y-14221742D01*
X10271426Y-14221742D02*
X10252378Y-14221742D01*
X10252378Y-14221742D02*
X10233331Y-14212219D01*
X10233331Y-14212219D02*
X10223807Y-14202695D01*
X10223807Y-14202695D02*
X10214283Y-14183647D01*
X10214283Y-14183647D02*
X10204759Y-14145552D01*
X10204759Y-14145552D02*
X10204759Y-14097933D01*
X10204759Y-14097933D02*
X10214283Y-14059838D01*
X10214283Y-14059838D02*
X10223807Y-14040790D01*
X10223807Y-14040790D02*
X10233331Y-14031266D01*
X10233331Y-14031266D02*
X10252378Y-14021742D01*
X10404759Y-14202695D02*
X10414283Y-14212219D01*
X10414283Y-14212219D02*
X10404759Y-14221742D01*
X10404759Y-14221742D02*
X10395236Y-14212219D01*
X10395236Y-14212219D02*
X10404759Y-14202695D01*
X10404759Y-14202695D02*
X10404759Y-14221742D01*
X10604759Y-14221742D02*
X10490474Y-14221742D01*
X10547616Y-14221742D02*
X10547616Y-14021742D01*
X10547616Y-14021742D02*
X10528569Y-14050314D01*
X10528569Y-14050314D02*
X10509521Y-14069361D01*
X10509521Y-14069361D02*
X10490474Y-14078885D01*
X10785712Y-14021742D02*
X10690474Y-14021742D01*
X10690474Y-14021742D02*
X10680950Y-14116980D01*
X10680950Y-14116980D02*
X10690474Y-14107457D01*
X10690474Y-14107457D02*
X10709521Y-14097933D01*
X10709521Y-14097933D02*
X10757140Y-14097933D01*
X10757140Y-14097933D02*
X10776188Y-14107457D01*
X10776188Y-14107457D02*
X10785712Y-14116980D01*
X10785712Y-14116980D02*
X10795236Y-14136028D01*
X10795236Y-14136028D02*
X10795236Y-14183647D01*
X10795236Y-14183647D02*
X10785712Y-14202695D01*
X10785712Y-14202695D02*
X10776188Y-14212219D01*
X10776188Y-14212219D02*
X10757140Y-14221742D01*
X10757140Y-14221742D02*
X10709521Y-14221742D01*
X10709521Y-14221742D02*
X10690474Y-14212219D01*
X10690474Y-14212219D02*
X10680950Y-14202695D01*
X10861902Y-14021742D02*
X10995236Y-14021742D01*
X10995236Y-14021742D02*
X10909521Y-14221742D01*
X11109521Y-14021742D02*
X11128569Y-14021742D01*
X11128569Y-14021742D02*
X11147617Y-14031266D01*
X11147617Y-14031266D02*
X11157140Y-14040790D01*
X11157140Y-14040790D02*
X11166664Y-14059838D01*
X11166664Y-14059838D02*
X11176188Y-14097933D01*
X11176188Y-14097933D02*
X11176188Y-14145552D01*
X11176188Y-14145552D02*
X11166664Y-14183647D01*
X11166664Y-14183647D02*
X11157140Y-14202695D01*
X11157140Y-14202695D02*
X11147617Y-14212219D01*
X11147617Y-14212219D02*
X11128569Y-14221742D01*
X11128569Y-14221742D02*
X11109521Y-14221742D01*
X11109521Y-14221742D02*
X11090474Y-14212219D01*
X11090474Y-14212219D02*
X11080950Y-14202695D01*
X11080950Y-14202695D02*
X11071426Y-14183647D01*
X11071426Y-14183647D02*
X11061902Y-14145552D01*
X11061902Y-14145552D02*
X11061902Y-14097933D01*
X11061902Y-14097933D02*
X11071426Y-14059838D01*
X11071426Y-14059838D02*
X11080950Y-14040790D01*
X11080950Y-14040790D02*
X11090474Y-14031266D01*
X11090474Y-14031266D02*
X11109521Y-14021742D01*
X11252378Y-14021742D02*
X11252378Y-14059838D01*
X11328569Y-14021742D02*
X11328569Y-14059838D01*
X11623807Y-14297933D02*
X11614283Y-14288409D01*
X11614283Y-14288409D02*
X11595236Y-14259838D01*
X11595236Y-14259838D02*
X11585712Y-14240790D01*
X11585712Y-14240790D02*
X11576188Y-14212219D01*
X11576188Y-14212219D02*
X11566664Y-14164599D01*
X11566664Y-14164599D02*
X11566664Y-14126504D01*
X11566664Y-14126504D02*
X11576188Y-14078885D01*
X11576188Y-14078885D02*
X11585712Y-14050314D01*
X11585712Y-14050314D02*
X11595236Y-14031266D01*
X11595236Y-14031266D02*
X11614283Y-14002695D01*
X11614283Y-14002695D02*
X11623807Y-13993171D01*
X11804759Y-14221742D02*
X11690474Y-14221742D01*
X11747616Y-14221742D02*
X11747616Y-14021742D01*
X11747616Y-14021742D02*
X11728569Y-14050314D01*
X11728569Y-14050314D02*
X11709521Y-14069361D01*
X11709521Y-14069361D02*
X11690474Y-14078885D01*
X11976188Y-14021742D02*
X11938093Y-14021742D01*
X11938093Y-14021742D02*
X11919045Y-14031266D01*
X11919045Y-14031266D02*
X11909521Y-14040790D01*
X11909521Y-14040790D02*
X11890474Y-14069361D01*
X11890474Y-14069361D02*
X11880950Y-14107457D01*
X11880950Y-14107457D02*
X11880950Y-14183647D01*
X11880950Y-14183647D02*
X11890474Y-14202695D01*
X11890474Y-14202695D02*
X11899997Y-14212219D01*
X11899997Y-14212219D02*
X11919045Y-14221742D01*
X11919045Y-14221742D02*
X11957140Y-14221742D01*
X11957140Y-14221742D02*
X11976188Y-14212219D01*
X11976188Y-14212219D02*
X11985712Y-14202695D01*
X11985712Y-14202695D02*
X11995236Y-14183647D01*
X11995236Y-14183647D02*
X11995236Y-14136028D01*
X11995236Y-14136028D02*
X11985712Y-14116980D01*
X11985712Y-14116980D02*
X11976188Y-14107457D01*
X11976188Y-14107457D02*
X11957140Y-14097933D01*
X11957140Y-14097933D02*
X11919045Y-14097933D01*
X11919045Y-14097933D02*
X11899997Y-14107457D01*
X11899997Y-14107457D02*
X11890474Y-14116980D01*
X11890474Y-14116980D02*
X11880950Y-14136028D01*
X12233331Y-14221742D02*
X12233331Y-14021742D01*
X12319045Y-14221742D02*
X12319045Y-14116980D01*
X12319045Y-14116980D02*
X12309521Y-14097933D01*
X12309521Y-14097933D02*
X12290474Y-14088409D01*
X12290474Y-14088409D02*
X12261902Y-14088409D01*
X12261902Y-14088409D02*
X12242855Y-14097933D01*
X12242855Y-14097933D02*
X12233331Y-14107457D01*
X12442855Y-14221742D02*
X12423807Y-14212219D01*
X12423807Y-14212219D02*
X12414283Y-14202695D01*
X12414283Y-14202695D02*
X12404759Y-14183647D01*
X12404759Y-14183647D02*
X12404759Y-14126504D01*
X12404759Y-14126504D02*
X12414283Y-14107457D01*
X12414283Y-14107457D02*
X12423807Y-14097933D01*
X12423807Y-14097933D02*
X12442855Y-14088409D01*
X12442855Y-14088409D02*
X12471426Y-14088409D01*
X12471426Y-14088409D02*
X12490474Y-14097933D01*
X12490474Y-14097933D02*
X12499998Y-14107457D01*
X12499998Y-14107457D02*
X12509521Y-14126504D01*
X12509521Y-14126504D02*
X12509521Y-14183647D01*
X12509521Y-14183647D02*
X12499998Y-14202695D01*
X12499998Y-14202695D02*
X12490474Y-14212219D01*
X12490474Y-14212219D02*
X12471426Y-14221742D01*
X12471426Y-14221742D02*
X12442855Y-14221742D01*
X12623807Y-14221742D02*
X12604759Y-14212219D01*
X12604759Y-14212219D02*
X12595236Y-14193171D01*
X12595236Y-14193171D02*
X12595236Y-14021742D01*
X12776188Y-14212219D02*
X12757140Y-14221742D01*
X12757140Y-14221742D02*
X12719045Y-14221742D01*
X12719045Y-14221742D02*
X12699998Y-14212219D01*
X12699998Y-14212219D02*
X12690474Y-14193171D01*
X12690474Y-14193171D02*
X12690474Y-14116980D01*
X12690474Y-14116980D02*
X12699998Y-14097933D01*
X12699998Y-14097933D02*
X12719045Y-14088409D01*
X12719045Y-14088409D02*
X12757140Y-14088409D01*
X12757140Y-14088409D02*
X12776188Y-14097933D01*
X12776188Y-14097933D02*
X12785712Y-14116980D01*
X12785712Y-14116980D02*
X12785712Y-14136028D01*
X12785712Y-14136028D02*
X12690474Y-14155076D01*
X12861902Y-14212219D02*
X12880950Y-14221742D01*
X12880950Y-14221742D02*
X12919045Y-14221742D01*
X12919045Y-14221742D02*
X12938093Y-14212219D01*
X12938093Y-14212219D02*
X12947617Y-14193171D01*
X12947617Y-14193171D02*
X12947617Y-14183647D01*
X12947617Y-14183647D02*
X12938093Y-14164599D01*
X12938093Y-14164599D02*
X12919045Y-14155076D01*
X12919045Y-14155076D02*
X12890474Y-14155076D01*
X12890474Y-14155076D02*
X12871426Y-14145552D01*
X12871426Y-14145552D02*
X12861902Y-14126504D01*
X12861902Y-14126504D02*
X12861902Y-14116980D01*
X12861902Y-14116980D02*
X12871426Y-14097933D01*
X12871426Y-14097933D02*
X12890474Y-14088409D01*
X12890474Y-14088409D02*
X12919045Y-14088409D01*
X12919045Y-14088409D02*
X12938093Y-14097933D01*
X13014283Y-14297933D02*
X13023807Y-14288409D01*
X13023807Y-14288409D02*
X13042855Y-14259838D01*
X13042855Y-14259838D02*
X13052379Y-14240790D01*
X13052379Y-14240790D02*
X13061902Y-14212219D01*
X13061902Y-14212219D02*
X13071426Y-14164599D01*
X13071426Y-14164599D02*
X13071426Y-14126504D01*
X13071426Y-14126504D02*
X13061902Y-14078885D01*
X13061902Y-14078885D02*
X13052379Y-14050314D01*
X13052379Y-14050314D02*
X13042855Y-14031266D01*
X13042855Y-14031266D02*
X13023807Y-14002695D01*
X13023807Y-14002695D02*
X13014283Y-13993171D01*
X13376188Y-14297933D02*
X13366664Y-14288409D01*
X13366664Y-14288409D02*
X13347617Y-14259838D01*
X13347617Y-14259838D02*
X13338093Y-14240790D01*
X13338093Y-14240790D02*
X13328569Y-14212219D01*
X13328569Y-14212219D02*
X13319045Y-14164599D01*
X13319045Y-14164599D02*
X13319045Y-14126504D01*
X13319045Y-14126504D02*
X13328569Y-14078885D01*
X13328569Y-14078885D02*
X13338093Y-14050314D01*
X13338093Y-14050314D02*
X13347617Y-14031266D01*
X13347617Y-14031266D02*
X13366664Y-14002695D01*
X13366664Y-14002695D02*
X13376188Y-13993171D01*
X13452379Y-14088409D02*
X13452379Y-14221742D01*
X13452379Y-14107457D02*
X13461902Y-14097933D01*
X13461902Y-14097933D02*
X13480950Y-14088409D01*
X13480950Y-14088409D02*
X13509521Y-14088409D01*
X13509521Y-14088409D02*
X13528569Y-14097933D01*
X13528569Y-14097933D02*
X13538093Y-14116980D01*
X13538093Y-14116980D02*
X13538093Y-14221742D01*
X13661902Y-14221742D02*
X13642855Y-14212219D01*
X13642855Y-14212219D02*
X13633331Y-14202695D01*
X13633331Y-14202695D02*
X13623807Y-14183647D01*
X13623807Y-14183647D02*
X13623807Y-14126504D01*
X13623807Y-14126504D02*
X13633331Y-14107457D01*
X13633331Y-14107457D02*
X13642855Y-14097933D01*
X13642855Y-14097933D02*
X13661902Y-14088409D01*
X13661902Y-14088409D02*
X13690474Y-14088409D01*
X13690474Y-14088409D02*
X13709521Y-14097933D01*
X13709521Y-14097933D02*
X13719045Y-14107457D01*
X13719045Y-14107457D02*
X13728569Y-14126504D01*
X13728569Y-14126504D02*
X13728569Y-14183647D01*
X13728569Y-14183647D02*
X13719045Y-14202695D01*
X13719045Y-14202695D02*
X13709521Y-14212219D01*
X13709521Y-14212219D02*
X13690474Y-14221742D01*
X13690474Y-14221742D02*
X13661902Y-14221742D01*
X13785712Y-14088409D02*
X13861902Y-14088409D01*
X13814283Y-14021742D02*
X13814283Y-14193171D01*
X13814283Y-14193171D02*
X13823807Y-14212219D01*
X13823807Y-14212219D02*
X13842855Y-14221742D01*
X13842855Y-14221742D02*
X13861902Y-14221742D01*
X14080950Y-14088409D02*
X14080950Y-14288409D01*
X14080950Y-14097933D02*
X14099998Y-14088409D01*
X14099998Y-14088409D02*
X14138093Y-14088409D01*
X14138093Y-14088409D02*
X14157141Y-14097933D01*
X14157141Y-14097933D02*
X14166664Y-14107457D01*
X14166664Y-14107457D02*
X14176188Y-14126504D01*
X14176188Y-14126504D02*
X14176188Y-14183647D01*
X14176188Y-14183647D02*
X14166664Y-14202695D01*
X14166664Y-14202695D02*
X14157141Y-14212219D01*
X14157141Y-14212219D02*
X14138093Y-14221742D01*
X14138093Y-14221742D02*
X14099998Y-14221742D01*
X14099998Y-14221742D02*
X14080950Y-14212219D01*
X14290474Y-14221742D02*
X14271426Y-14212219D01*
X14271426Y-14212219D02*
X14261902Y-14193171D01*
X14261902Y-14193171D02*
X14261902Y-14021742D01*
X14452379Y-14221742D02*
X14452379Y-14116980D01*
X14452379Y-14116980D02*
X14442855Y-14097933D01*
X14442855Y-14097933D02*
X14423807Y-14088409D01*
X14423807Y-14088409D02*
X14385712Y-14088409D01*
X14385712Y-14088409D02*
X14366664Y-14097933D01*
X14452379Y-14212219D02*
X14433331Y-14221742D01*
X14433331Y-14221742D02*
X14385712Y-14221742D01*
X14385712Y-14221742D02*
X14366664Y-14212219D01*
X14366664Y-14212219D02*
X14357141Y-14193171D01*
X14357141Y-14193171D02*
X14357141Y-14174123D01*
X14357141Y-14174123D02*
X14366664Y-14155076D01*
X14366664Y-14155076D02*
X14385712Y-14145552D01*
X14385712Y-14145552D02*
X14433331Y-14145552D01*
X14433331Y-14145552D02*
X14452379Y-14136028D01*
X14519045Y-14088409D02*
X14595236Y-14088409D01*
X14547617Y-14021742D02*
X14547617Y-14193171D01*
X14547617Y-14193171D02*
X14557141Y-14212219D01*
X14557141Y-14212219D02*
X14576188Y-14221742D01*
X14576188Y-14221742D02*
X14595236Y-14221742D01*
X14738093Y-14212219D02*
X14719045Y-14221742D01*
X14719045Y-14221742D02*
X14680950Y-14221742D01*
X14680950Y-14221742D02*
X14661902Y-14212219D01*
X14661902Y-14212219D02*
X14652379Y-14193171D01*
X14652379Y-14193171D02*
X14652379Y-14116980D01*
X14652379Y-14116980D02*
X14661902Y-14097933D01*
X14661902Y-14097933D02*
X14680950Y-14088409D01*
X14680950Y-14088409D02*
X14719045Y-14088409D01*
X14719045Y-14088409D02*
X14738093Y-14097933D01*
X14738093Y-14097933D02*
X14747617Y-14116980D01*
X14747617Y-14116980D02*
X14747617Y-14136028D01*
X14747617Y-14136028D02*
X14652379Y-14155076D01*
X14919045Y-14221742D02*
X14919045Y-14021742D01*
X14919045Y-14212219D02*
X14899998Y-14221742D01*
X14899998Y-14221742D02*
X14861902Y-14221742D01*
X14861902Y-14221742D02*
X14842855Y-14212219D01*
X14842855Y-14212219D02*
X14833331Y-14202695D01*
X14833331Y-14202695D02*
X14823807Y-14183647D01*
X14823807Y-14183647D02*
X14823807Y-14126504D01*
X14823807Y-14126504D02*
X14833331Y-14107457D01*
X14833331Y-14107457D02*
X14842855Y-14097933D01*
X14842855Y-14097933D02*
X14861902Y-14088409D01*
X14861902Y-14088409D02*
X14899998Y-14088409D01*
X14899998Y-14088409D02*
X14919045Y-14097933D01*
X14995236Y-14297933D02*
X15004760Y-14288409D01*
X15004760Y-14288409D02*
X15023807Y-14259838D01*
X15023807Y-14259838D02*
X15033331Y-14240790D01*
X15033331Y-14240790D02*
X15042855Y-14212219D01*
X15042855Y-14212219D02*
X15052379Y-14164599D01*
X15052379Y-14164599D02*
X15052379Y-14126504D01*
X15052379Y-14126504D02*
X15042855Y-14078885D01*
X15042855Y-14078885D02*
X15033331Y-14050314D01*
X15033331Y-14050314D02*
X15023807Y-14031266D01*
X15023807Y-14031266D02*
X15004760Y-14002695D01*
X15004760Y-14002695D02*
X14995236Y-13993171D01*
M02*
